<?xml version="1.0" encoding="UTF-8" standalone="no"?>
<svg
   version="1.0"
   width="533.33331"
   height="533.33331"
   viewBox="0 0 400 400"
   preserveAspectRatio="xMidYMid meet"
   id="svg154"
   sodipodi:docname="quitting-time-7259410.svg"
   inkscape:version="1.1.2 (0a00cf5339, 2022-02-04)"
   xmlns:inkscape="http://www.inkscape.org/namespaces/inkscape"
   xmlns:sodipodi="http://sodipodi.sourceforge.net/DTD/sodipodi-0.dtd"
   xmlns="http://www.w3.org/2000/svg"
   xmlns:svg="http://www.w3.org/2000/svg">
  <sodipodi:namedview
     id="namedview82"
     pagecolor="#ffffff"
     bordercolor="#666666"
     borderopacity="1.0"
     inkscape:pageshadow="2"
     inkscape:pageopacity="0.0"
     inkscape:pagecheckerboard="0"
     inkscape:document-units="pt"
     showgrid="false"
     units="px"
     inkscape:zoom="0.56108923"
     inkscape:cx="350.21168"
     inkscape:cy="339.51819"
     inkscape:window-width="1366"
     inkscape:window-height="703"
     inkscape:window-x="0"
     inkscape:window-y="0"
     inkscape:window-maximized="1"
     inkscape:current-layer="svg154" />
  <metadata
     id="metadata160" />
  <defs
     id="defs158" />
  <g
     transform="matrix(0.01400803,0,0,-0.01400803,-210.41539,454.99535)"
     id="g152"
     style="fill:#000000;stroke:none">
    <path
       d="m 29575,28283 c -551,-16 -1028,-84 -1645,-234 -703,-171 -1337,-423 -1965,-783 -199,-115 -520,-326 -591,-389 -27,-24 -68,-54 -92,-66 -80,-41 -394,-287 -612,-480 -132,-117 -439,-422 -574,-571 -232,-256 -488,-584 -702,-902 -65,-95 -129,-182 -144,-193 -44,-33 -64,-56 -136,-155 -120,-164 -160,-223 -199,-295 -21,-38 -51,-88 -65,-110 -36,-52 -163,-308 -230,-460 -29,-66 -56,-124 -60,-130 -5,-5 -44,-100 -88,-210 -351,-879 -546,-1859 -552,-2770 -3,-536 59,-1113 174,-1612 l 23,-103 h -25 c -14,0 -51,-4 -81,-10 -31,-5 -137,-16 -236,-25 -99,-9 -268,-24 -375,-35 -107,-11 -204,-20 -216,-20 -20,0 -21,6 -27,163 -9,256 -57,485 -122,587 -84,131 -204,161 -388,99 -51,-17 -119,-45 -153,-62 -185,-96 -340,-169 -424,-197 -85,-30 -109,-34 -235,-38 -132,-4 -145,-2 -220,23 -380,126 -822,689 -1025,1305 -106,321 -139,570 -147,1105 l -5,370 -53,70 c -100,134 -199,216 -298,247 -180,56 -394,-22 -732,-265 -310,-224 -448,-450 -447,-731 1,-130 20,-238 97,-546 66,-262 82,-340 96,-468 15,-127 0,-244 -42,-333 -118,-250 -517,-384 -1364,-459 -460,-41 -408,-32 -469,-79 -67,-50 -97,-88 -135,-172 -71,-157 -96,-394 -88,-829 8,-394 47,-743 118,-1050 94,-408 204,-648 378,-821 125,-124 270,-198 476,-240 98,-21 136,-23 345,-22 129,1 267,5 305,10 39,5 97,6 130,3 33,-3 101,-2 150,2 180,14 984,68 1155,78 96,5 256,14 355,20 399,22 929,30 1395,19 514,-11 696,-6 845,22 182,34 301,115 367,250 57,118 106,401 124,727 7,117 8,123 30,128 13,3 26,4 31,1 8,-5 100,1 873,53 168,11 319,20 336,20 29,0 32,-4 59,-72 394,-1018 1120,-2081 1936,-2835 648,-599 1371,-1080 2154,-1434 99,-45 150,-73 149,-83 -1,-9 34,-29 105,-58 l 106,-43 6,-45 c 4,-25 10,-76 13,-115 4,-38 9,-77 11,-85 2,-8 9,-82 15,-165 6,-82 13,-172 16,-200 11,-119 23,-710 13,-715 -5,-4 -78,-12 -162,-19 -412,-35 -907,-138 -1367,-286 -1276,-410 -2395,-1151 -2921,-1935 -208,-309 -310,-596 -311,-870 0,-112 4,-140 37,-270 50,-192 85,-292 151,-425 82,-164 147,-251 273,-358 164,-140 281,-219 446,-301 157,-79 269,-119 445,-160 205,-48 332,-61 640,-61 157,0 321,3 365,7 921,79 1786,355 2440,777 493,318 952,772 1455,1441 52,69 132,172 178,229 47,57 116,152 154,210 96,145 224,407 242,496 8,39 24,97 36,129 28,83 29,327 1,448 -73,311 -293,562 -632,722 l -95,46 -13,97 c -6,54 -21,166 -31,248 -68,515 -100,778 -97,781 2,2 39,-3 83,-12 168,-32 313,-51 317,-41 2,7 44,5 123,-6 573,-81 1330,-88 1845,-18 37,5 77,7 91,4 13,-2 85,5 160,16 75,12 144,21 152,21 14,0 16,-11 11,-77 -3,-43 -12,-269 -21,-503 -8,-234 -17,-441 -19,-460 -2,-19 -3,-69 -4,-111 l -1,-75 -47,-23 c -27,-13 -91,-48 -143,-79 -340,-203 -563,-458 -646,-739 -38,-130 -53,-372 -31,-508 9,-55 23,-147 32,-203 23,-143 55,-215 165,-367 277,-385 546,-674 815,-877 570,-428 1309,-660 2455,-770 209,-20 292,-22 750,-22 548,0 703,10 1049,64 677,108 1163,335 1567,735 149,147 447,554 515,702 58,127 86,264 96,478 20,438 -314,885 -937,1258 -605,361 -1450,626 -2350,736 -382,47 -552,56 -1025,55 -383,0 -628,-14 -869,-50 -55,-7 -101,-14 -104,-14 -4,0 0,39 13,150 3,19 12,107 20,195 9,88 17,171 19,185 3,14 19,173 38,354 l 33,329 40,17 c 22,10 84,34 138,55 53,20 97,43 97,50 0,7 62,40 138,74 357,158 818,413 1052,580 181,129 294,213 329,245 79,72 98,92 131,137 20,26 91,89 165,145 574,432 1043,904 1492,1502 391,520 684,1025 928,1597 39,94 78,187 85,208 7,22 16,35 20,30 18,-18 101,-451 123,-639 l 5,-40 -62,-32 c -269,-140 -457,-344 -511,-557 -17,-65 -19,-160 -6,-216 8,-37 7,-38 -76,-120 -46,-46 -104,-113 -128,-149 -23,-36 -67,-99 -96,-140 -207,-295 -346,-592 -400,-855 -31,-150 -34,-184 -34,-380 1,-214 19,-313 86,-475 66,-160 303,-500 348,-500 10,0 50,-11 89,-25 74,-26 150,-32 182,-15 17,9 19,3 25,-78 18,-222 125,-430 256,-497 55,-29 358,-123 429,-134 41,-6 107,-18 145,-26 346,-70 673,-53 883,45 64,30 98,55 155,112 40,40 84,88 98,106 32,44 50,36 81,-37 42,-96 116,-136 248,-134 243,4 588,152 764,328 104,104 159,232 171,400 4,50 13,131 21,180 32,207 26,664 -12,881 -24,141 -61,235 -204,519 -141,281 -190,407 -229,595 -26,124 -61,376 -61,439 0,28 -5,53 -10,56 -6,4 -8,10 -5,14 2,5 9,40 15,80 50,317 -226,617 -686,745 -103,29 -322,66 -388,66 h -44 l -17,78 c -141,647 -394,1295 -692,1770 l -65,104 26,166 c 62,398 77,583 83,1043 10,735 -42,1205 -212,1920 -271,1142 -733,2089 -1473,3024 -672,848 -1571,1574 -2561,2069 -521,261 -1014,441 -1594,581 -596,144 -998,202 -1557,225 -221,9 -318,10 -535,3 z m 630,-523 c 1513,-97 2911,-637 4090,-1581 1406,-1126 2345,-2750 2619,-4529 62,-404 80,-646 80,-1065 1,-271 -4,-410 -18,-560 -10,-110 -22,-206 -26,-214 -11,-20 -30,17 -52,102 -53,206 -189,398 -347,490 -31,19 -70,38 -86,44 l -30,10 -3,156 c -2,128 -5,157 -17,157 -35,0 -717,-40 -777,-46 l -68,-6 v -138 -137 l 128,-7 c 70,-3 171,-9 225,-13 l 99,-6 -49,-30 c -26,-17 -76,-59 -110,-94 -261,-268 -324,-735 -148,-1098 60,-124 127,-211 217,-284 140,-114 344,-157 493,-104 l 40,14 40,-44 c 49,-53 145,-180 170,-223 l 18,-31 -67,-196 c -200,-590 -466,-1142 -799,-1654 -434,-670 -1034,-1313 -1692,-1813 -60,-46 -171,-143 -245,-215 -248,-241 -543,-436 -1045,-690 -883,-448 -1833,-696 -2854,-746 -799,-39 -1826,128 -2659,432 -1067,391 -1986,984 -2782,1795 -707,721 -1235,1533 -1605,2469 -356,901 -533,1874 -504,2768 34,1024 286,2002 755,2939 141,282 272,487 408,638 48,52 138,172 202,265 309,451 556,753 919,1124 315,322 555,522 1006,843 964,684 2156,1126 3379,1253 334,34 784,45 1095,25 z M 18124,22335 c 63,-30 182,-141 233,-219 l 30,-45 6,-343 c 12,-698 81,-1043 292,-1473 225,-460 526,-813 812,-954 110,-55 187,-72 313,-72 161,0 271,30 497,137 95,44 113,50 117,36 19,-67 113,-485 140,-625 127,-645 128,-1130 5,-1622 -26,-104 -121,-399 -176,-548 l -18,-47 -415,5 c -228,3 -444,7 -480,10 -152,11 -1170,-24 -1620,-55 -350,-24 -742,-50 -825,-55 l -90,-6 110,58 c 143,75 234,161 291,278 36,72 39,86 39,160 0,72 -4,87 -36,150 l -36,71 81,18 c 119,27 178,52 230,97 93,82 137,202 139,374 1,121 -16,197 -60,273 -33,56 -27,76 47,158 167,184 189,455 52,636 -52,68 -220,211 -239,203 -21,-7 -15,4 23,43 55,55 94,145 94,213 0,119 -68,262 -166,348 -140,123 -298,163 -658,164 -217,1 -218,1 -170,18 204,70 348,178 414,309 32,65 39,89 50,190 16,140 -10,310 -105,685 -69,273 -89,387 -89,510 1,258 125,458 416,673 205,151 289,199 446,253 114,39 215,38 306,-6 z m -920,-2709 c 167,-37 260,-90 337,-193 87,-114 111,-244 64,-340 -28,-56 -149,-176 -199,-199 -48,-21 -438,-81 -676,-104 -200,-20 -603,-29 -874,-19 -386,13 -791,40 -804,54 -10,10 17,270 37,363 34,149 87,241 174,300 39,26 54,30 187,40 391,32 667,64 860,100 139,26 775,25 894,-2 z m 19946,-26 c 0,-5 -2,-10 -4,-10 -3,0 -8,5 -11,10 -3,6 -1,10 4,10 6,0 11,-4 11,-10 z m -16257,-54 c 39,-16 93,-69 117,-116 84,-164 115,-454 115,-1065 -1,-775 -53,-1344 -140,-1540 -30,-69 -105,-150 -168,-182 -71,-36 -188,-63 -301,-70 -93,-6 -99,-5 -92,12 41,108 161,488 185,585 60,247 73,352 78,646 7,362 -13,583 -87,962 -25,128 -129,588 -146,643 -10,37 245,138 349,139 32,0 72,-6 90,-14 z m -3256,-724 c 153,-128 203,-218 203,-368 0,-165 -73,-293 -252,-440 -34,-28 -40,-29 -333,-59 -428,-42 -616,-48 -1420,-40 -407,3 -741,7 -742,8 -1,1 -6,38 -12,82 -18,138 -31,379 -31,575 v 189 l 33,-4 c 49,-7 279,-24 497,-37 260,-15 856,-15 1050,1 233,19 540,63 870,126 36,7 68,13 72,14 4,0 33,-21 65,-47 z m 44,-961 c 30,-81 40,-167 29,-253 -25,-200 -92,-294 -239,-338 -159,-48 -170,-48 -1123,-39 -491,5 -944,10 -1007,12 l -114,2 -23,85 c -21,74 -52,217 -84,385 -5,28 -12,73 -16,101 l -6,51 873,-1 c 642,-1 913,2 1019,12 204,18 623,62 635,66 15,5 32,-21 56,-83 z m 20669,-636 c 571,-80 933,-379 882,-728 -15,-100 -79,-226 -149,-294 -192,-188 -709,-431 -993,-468 -175,-22 -327,-27 -475,-16 -767,62 -1196,485 -942,931 65,114 236,268 399,358 l 57,32 5,-33 c 14,-83 38,-339 39,-402 0,-38 -3,-95 -7,-125 -9,-74 17,-120 102,-177 265,-178 867,-137 1014,69 29,41 37,87 27,149 -5,30 -18,110 -29,179 -27,179 -48,300 -70,418 -11,57 -20,107 -20,113 0,13 32,11 160,-6 z m -22002,-45 c 601,-6 898,-12 906,-19 7,-6 28,-41 46,-77 48,-94 47,-165 -3,-267 -55,-112 -143,-190 -299,-267 -67,-33 -129,-60 -138,-60 -8,0 -33,-7 -55,-14 -47,-17 -206,-32 -415,-42 -534,-23 -850,129 -1038,501 -35,70 -50,105 -93,213 -5,13 -9,27 -9,32 0,12 -39,12 1098,0 z m 22965,-1375 c 40,-161 83,-265 217,-530 204,-404 225,-494 225,-970 0,-235 -4,-322 -17,-400 -9,-55 -19,-139 -22,-186 -9,-140 -52,-241 -143,-339 -162,-176 -498,-320 -741,-320 -108,0 -156,23 -181,85 -26,64 -40,84 -71,100 -42,22 -75,10 -113,-38 -155,-198 -310,-269 -622,-283 -142,-7 -241,2 -470,41 -185,32 -308,62 -357,86 -20,11 -54,22 -74,25 -59,9 -146,55 -190,100 -105,108 -176,363 -144,519 6,33 25,87 42,121 26,55 46,82 132,185 l 28,33 19,-25 c 10,-13 33,-51 50,-84 18,-33 33,-61 35,-63 2,-3 43,15 52,24 7,5 -59,120 -90,158 -16,20 -64,62 -107,93 -42,30 -88,66 -102,79 l -25,24 -23,-23 -22,-24 75,-59 75,-59 -32,-25 c -83,-63 -130,-133 -161,-240 -9,-30 -25,-70 -36,-87 -18,-29 -25,-33 -65,-33 -27,0 -78,13 -126,31 -76,29 -84,35 -141,107 -121,153 -201,287 -255,432 -102,270 -78,705 58,1047 76,192 190,388 392,673 59,82 173,210 189,210 4,0 16,-17 27,-38 11,-21 57,-74 103,-118 194,-182 330,-261 550,-318 178,-47 226,-51 558,-51 298,0 320,1 410,24 331,82 501,151 693,278 37,25 125,99 195,165 l 127,121 26,-174 c 15,-96 38,-219 52,-274 z M 26865,13402 c -3,-3 -11,0 -18,7 -9,10 -8,11 6,5 10,-3 15,-9 12,-12 z m 125,-42 c 18,-12 2,-12 -25,0 -13,6 -15,9 -5,9 8,0 22,-4 30,-9 z m 455,-160 c 13,-5 14,-9 5,-9 -8,0 -24,4 -35,9 -13,5 -14,9 -5,9 8,0 24,-4 35,-9 z m 52,-16 c -3,-3 -12,-4 -19,-1 -8,3 -5,6 6,6 11,1 17,-2 13,-5 z m 53,-14 c 13,-9 13,-10 0,-10 -8,0 -22,5 -30,10 -13,9 -13,10 0,10 8,0 22,-5 30,-10 z m 183,-57 c -7,-2 -19,-2 -25,0 -7,3 -2,5 12,5 14,0 19,-2 13,-5 z m 4004,1 c -3,-3 -12,-4 -19,-1 -8,3 -5,6 6,6 11,1 17,-2 13,-5 z m -3960,-10 c -3,-3 -12,-4 -19,-1 -8,3 -5,6 6,6 11,1 17,-2 13,-5 z m 40,-10 c -3,-3 -12,-4 -19,-1 -8,3 -5,6 6,6 11,1 17,-2 13,-5 z m 246,-61 c -7,-2 -21,-2 -30,0 -10,3 -4,5 12,5 17,0 24,-2 18,-5 z m 3354,1 c -3,-3 -12,-4 -19,-1 -8,3 -5,6 6,6 11,1 17,-2 13,-5 z m -3300,-10 c -3,-3 -12,-4 -19,-1 -8,3 -5,6 6,6 11,1 17,-2 13,-5 z m 40,-10 c -3,-3 -12,-4 -19,-1 -8,3 -5,6 6,6 11,1 17,-2 13,-5 z m 67,-12 c 3,-5 -8,-6 -25,-4 -16,2 -29,6 -29,8 0,8 49,4 54,-4 z m 63,-18 c -3,-3 -12,-4 -19,-1 -8,3 -5,6 6,6 11,1 17,-2 13,-5 z m 158,-24 c 27,-7 27,-8 5,-8 -14,0 -36,4 -50,8 -20,6 -21,8 -5,8 11,0 34,-4 50,-8 z m 2622,4 c -3,-3 -12,-4 -19,-1 -8,3 -5,6 6,6 11,1 17,-2 13,-5 z m -54,-11 c -7,-2 -19,-2 -25,0 -7,3 -2,5 12,5 14,0 19,-2 13,-5 z m -2465,-10 c -10,-2 -28,-2 -40,0 -13,2 -5,4 17,4 22,1 32,-1 23,-4 z m 2395,0 c -7,-2 -19,-2 -25,0 -7,3 -2,5 12,5 14,0 19,-2 13,-5 z m -70,-10 c -7,-2 -19,-2 -25,0 -7,3 -2,5 12,5 14,0 19,-2 13,-5 z m -116,-19 c -3,-3 -12,-4 -19,-1 -8,3 -5,6 6,6 11,1 17,-2 13,-5 z m 2998,-1059 c 33,-3 141,-12 240,-20 1002,-84 2013,-393 2659,-812 240,-156 484,-384 598,-559 121,-184 162,-310 162,-494 1,-138 -17,-218 -76,-335 -232,-460 -920,-816 -1885,-975 -900,-147 -2051,-90 -2969,150 -1093,285 -1874,751 -2152,1285 -47,91 -69,154 -88,252 -69,365 140,708 604,992 112,68 118,69 114,6 -2,-27 -10,-72 -19,-99 -31,-96 9,-209 104,-296 131,-120 325,-174 568,-159 201,13 336,69 454,189 99,100 111,129 122,299 10,158 37,430 48,481 6,32 10,36 51,42 108,16 480,52 640,62 78,5 753,-3 825,-9 z m -6731,-147 c 3,-13 12,-86 21,-163 9,-77 27,-204 41,-282 13,-78 24,-147 24,-153 0,-19 132,-145 181,-173 104,-61 301,-107 454,-107 170,0 343,39 460,105 87,49 191,150 204,200 15,56 14,162 -4,279 -9,62 -12,103 -6,109 13,13 157,-69 252,-142 155,-119 272,-294 319,-476 52,-204 9,-485 -112,-729 -37,-74 -219,-343 -352,-521 -77,-101 -297,-321 -456,-454 -693,-581 -1629,-1044 -2625,-1300 -241,-61 -484,-107 -725,-136 -74,-9 -151,-18 -170,-20 -113,-14 -428,-26 -565,-20 -787,30 -1314,263 -1515,670 -59,119 -81,217 -80,356 0,63 4,138 9,165 51,268 171,512 389,794 96,123 119,148 296,325 205,204 418,378 681,556 735,498 1647,875 2535,1048 222,43 554,87 677,90 57,1 63,-1 67,-21 z m 3265,-1808 23,-35 -26,30 c -14,17 -26,34 -26,39 0,11 0,11 29,-34 z m 201,-233 c 58,-60 149,-144 202,-187 277,-224 694,-449 1128,-609 182,-67 244,-91 220,-87 -14,3 -95,8 -180,11 -85,3 -193,11 -239,16 -46,6 -115,10 -153,10 -38,0 -91,4 -117,8 -63,10 -77,4 -49,-21 13,-11 -11,3 -52,31 -282,193 -620,554 -894,956 -42,62 -44,65 -10,25 21,-25 86,-94 144,-153 z m 6538,-599 c -74,-91 -229,-247 -318,-322 -133,-111 -369,-271 -330,-222 13,17 12,18 -15,15 -30,-2 -249,7 -395,18 -41,3 -114,6 -162,6 -49,1 -88,2 -88,3 0,2 26,8 58,14 176,37 475,127 662,202 213,84 489,232 585,312 49,41 50,30 3,-26 z m -9186,-225 c -82,-95 -339,-342 -462,-444 -282,-235 -576,-426 -669,-435 -25,-2 -59,-6 -76,-8 -16,-3 -86,-12 -155,-21 -69,-9 -138,-18 -155,-21 -135,-20 -387,-55 -465,-65 -52,-6 -120,-18 -150,-25 -65,-16 -81,-10 -19,6 24,7 107,32 184,57 703,227 1440,595 1962,977 26,20 50,36 51,36 2,0 -18,-26 -46,-57 z m 4255,-69 c -3,-3 -12,-4 -19,-1 -8,3 -5,6 6,6 11,1 17,-2 13,-5 z m -9381,-860 c 204,-137 533,-250 854,-293 41,-6 98,-13 125,-17 28,-3 115,-10 195,-14 107,-5 127,-8 75,-10 -38,-2 -74,-4 -80,-5 -5,-1 -28,-4 -50,-8 -49,-9 -80,-13 -220,-31 -255,-34 -295,-40 -295,-48 0,-18 -176,69 -299,149 -153,99 -414,323 -378,323 2,0 35,-21 73,-46 z"
       id="path2" />
    <path
       d="m 29626,27148 c 5,-72 44,-759 44,-789 0,-18 8,-19 140,-19 95,0 140,4 140,11 0,24 40,709 45,782 l 6,77 h -190 -190 z"
       id="path4" />
    <path
       d="m 29121,27169 c -35,-5 -65,-10 -67,-12 -3,-2 18,-140 46,-307 27,-166 50,-306 50,-311 0,-5 16,-9 36,-9 h 36 l -6,88 c -3,48 -11,193 -17,322 -6,129 -12,235 -13,236 0,0 -30,-3 -65,-7 z"
       id="path6" />
    <path
       d="m 30430,27131 c 0,-48 -15,-362 -25,-513 l -6,-88 h 36 c 19,0 35,2 35,4 0,2 23,142 50,311 28,169 49,309 47,312 -2,2 -34,7 -71,11 l -66,8 z"
       id="path8" />
    <path
       d="m 28420,27058 c -25,-5 -47,-12 -49,-14 -2,-1 34,-141 80,-309 75,-275 85,-305 103,-305 47,1 47,1 -2,325 -54,347 -43,323 -132,303 z"
       id="path10" />
    <path
       d="m 31119,27068 c 0,-2 -22,-142 -48,-313 -51,-323 -51,-325 -5,-325 19,0 28,28 102,299 45,164 82,303 82,309 0,10 -128,40 -131,30 z"
       id="path12" />
    <path
       d="m 27758,26878 -57,-19 23,-62 c 19,-50 184,-477 203,-524 3,-8 12,-9 34,-1 16,5 29,13 29,16 0,6 -98,380 -150,572 -6,22 -14,40 -18,39 -4,0 -33,-10 -64,-21 z"
       id="path14" />
    <path
       d="m 31781,26863 c -5,-21 -42,-158 -81,-305 -38,-147 -70,-270 -70,-272 0,-2 13,-9 29,-14 22,-8 31,-7 34,1 3,7 53,136 112,287 59,151 109,280 112,286 2,7 -18,19 -49,29 -29,10 -58,20 -65,22 -7,3 -16,-11 -22,-34 z"
       id="path16" />
    <path
       d="m 27125,26634 c -27,-13 -54,-25 -59,-27 -7,-2 262,-546 280,-566 2,-2 16,2 32,8 l 29,12 -109,285 c -59,157 -111,291 -115,298 -6,10 -20,8 -58,-10 z"
       id="path18" />
    <path
       d="m 32412,26582 c -192,-504 -196,-514 -177,-529 11,-7 24,-13 29,-13 10,0 286,522 294,554 1,7 -24,24 -57,38 l -60,26 z"
       id="path20" />
    <path
       d="m 26493,26311 -152,-88 225,-344 c 124,-189 229,-351 234,-359 10,-16 28,-8 182,82 l 68,39 -193,379 c -105,209 -196,379 -202,379 -5,0 -78,-39 -162,-88 z"
       id="path22" />
    <path
       d="m 32764,26020 -191,-380 112,-65 c 61,-36 116,-65 121,-65 5,1 114,161 242,357 l 232,356 -152,88 c -84,49 -157,89 -163,89 -5,0 -96,-171 -201,-380 z"
       id="path24" />
    <path
       d="m 29950,26090 c -171,-21 -250,-72 -250,-160 v -30 h 88 88 l 10,43 c 13,62 58,82 184,82 134,-1 200,-37 200,-110 0,-92 -97,-191 -360,-365 -69,-46 -132,-91 -142,-100 -9,-10 -32,-27 -52,-39 -30,-19 -36,-28 -36,-57 v -34 h 395 395 v 30 30 h -305 c -345,0 -348,1 -242,65 134,82 357,238 416,291 171,156 147,284 -63,340 -64,17 -243,25 -326,14 z"
       id="path26" />
    <path
       d="m 29370,26066 c -25,-13 -84,-36 -132,-52 -87,-28 -88,-29 -88,-61 v -32 l 48,14 c 26,8 74,23 106,35 33,11 63,20 68,20 4,0 8,-151 8,-335 v -335 h 90 90 v 385 385 h -72 c -56,-1 -83,-6 -118,-24 z"
       id="path28" />
    <path
       d="m 25922,25941 c -28,-20 -51,-38 -52,-41 0,-8 389,-485 399,-488 4,-1 17,5 29,15 20,18 20,19 -152,284 l -172,266 z"
       id="path30" />
    <path
       d="m 33473,25708 -172,-268 25,-17 c 24,-15 26,-15 43,3 43,46 381,465 381,471 -1,5 -24,24 -53,44 l -52,36 z"
       id="path32" />
    <path
       d="m 25378,25499 -47,-40 227,-224 227,-223 22,20 22,20 -196,244 c -107,134 -198,244 -202,244 -3,0 -27,-18 -53,-41 z"
       id="path34" />
    <path
       d="m 33988,25296 -196,-244 22,-21 21,-20 229,222 229,221 -49,43 c -27,24 -51,43 -54,43 -3,0 -94,-110 -202,-244 z"
       id="path36" />
    <path
       d="m 32385,25413 c -16,-9 -77,-33 -135,-54 -101,-35 -105,-38 -108,-68 -2,-17 -1,-31 2,-31 3,0 53,16 112,35 58,19 110,35 115,35 5,0 9,-151 9,-335 v -335 h 85 85 v 385 385 h -67 c -44,-1 -79,-7 -98,-17 z"
       id="path38" />
    <path
       d="m 26925,25360 c -33,-16 -93,-39 -132,-51 -71,-22 -73,-24 -73,-55 v -33 l 48,14 c 26,8 74,23 106,35 33,11 63,20 68,20 4,0 8,-151 8,-335 v -335 h 90 90 v 385 385 l -72,-1 c -58,-1 -85,-7 -133,-29 z"
       id="path40" />
    <path
       d="m 27605,25360 c -33,-16 -95,-39 -137,-52 -76,-23 -78,-24 -78,-55 0,-18 2,-33 4,-33 3,0 53,16 111,35 59,19 111,32 116,29 5,-3 9,-152 9,-335 v -329 h 85 85 v 385 385 l -67,-1 c -53,-1 -82,-7 -128,-29 z"
       id="path42" />
    <path
       d="m 24891,25011 -42,-50 73,-60 c 40,-32 152,-122 248,-199 l 174,-139 20,24 19,25 -225,225 -225,225 z"
       id="path44" />
    <path
       d="m 34460,24836 -225,-226 22,-21 21,-22 39,29 c 70,52 441,353 446,361 3,5 -13,30 -36,56 l -42,48 z"
       id="path46" />
    <path
       d="m 24462,24484 c -18,-24 -35,-50 -37,-56 -3,-8 97,-78 252,-178 142,-91 262,-166 269,-168 6,-2 18,8 27,21 15,24 14,25 -211,208 -124,101 -235,191 -247,200 -19,16 -21,14 -53,-27 z"
       id="path48" />
    <path
       d="m 34879,24326 c -242,-198 -246,-201 -231,-224 8,-13 20,-22 27,-20 17,4 525,332 525,339 0,3 -17,28 -37,56 l -38,50 z"
       id="path50" />
    <path
       d="m 24156,24028 c -68,-109 -166,-291 -160,-298 13,-11 744,-380 754,-380 4,0 37,52 73,115 l 66,115 -102,69 c -99,65 -580,380 -604,394 -7,5 -18,-2 -27,-15 z"
       id="path52" />
    <path
       d="m 35369,24000 c -41,-27 -201,-132 -356,-234 l -283,-185 68,-116 c 36,-63 70,-115 74,-115 10,0 739,369 751,380 8,7 -155,304 -172,314 -4,3 -41,-17 -82,-44 z"
       id="path54" />
    <path
       d="m 33968,23570 c -132,-23 -205,-73 -215,-149 l -6,-41 h 92 91 v 38 c 0,72 55,102 190,102 94,0 142,-13 183,-50 27,-24 32,-35 31,-73 -1,-55 -35,-115 -101,-179 -60,-58 -237,-185 -383,-274 -109,-67 -110,-67 -110,-106 v -38 h 395 395 v 30 30 h -305 c -286,0 -305,1 -305,18 0,10 15,26 33,36 96,55 381,252 435,301 71,65 122,144 122,191 0,73 -76,132 -205,159 -74,16 -257,18 -337,5 z"
       id="path56" />
    <path
       d="m 25704,23539 c -78,-9 -169,-39 -207,-69 -52,-41 -57,-70 -57,-308 0,-234 4,-259 48,-305 73,-77 250,-116 439,-97 154,16 247,59 284,131 17,35 19,61 19,272 0,227 -1,235 -23,268 -45,68 -107,94 -256,110 -99,10 -148,10 -247,-2 z m 257,-80 c 19,-5 46,-20 60,-35 24,-25 24,-28 27,-252 3,-261 -2,-281 -73,-317 -58,-29 -234,-29 -285,0 -64,38 -70,63 -70,303 0,235 6,268 58,292 59,28 192,32 283,9 z"
       id="path58" />
    <path
       d="m 25125,23509 c -33,-16 -93,-39 -132,-51 -71,-21 -73,-22 -73,-54 v -33 l 48,14 c 26,8 74,23 106,35 33,11 63,20 68,20 4,0 8,-151 8,-335 v -335 h 90 90 v 385 385 l -72,-1 c -60,0 -84,-6 -133,-30 z"
       id="path60" />
    <path
       d="m 23771,23296 c -34,-78 -34,-82 -4,-94 83,-34 557,-212 563,-212 3,0 11,12 16,28 11,30 42,12 -398,240 l -157,81 z"
       id="path62" />
    <path
       d="m 35539,23188 -276,-142 11,-28 c 6,-15 13,-28 17,-28 3,0 113,41 245,91 131,50 263,100 292,111 41,15 52,24 47,36 -24,66 -41,102 -50,102 -5,0 -134,-64 -286,-142 z"
       id="path64" />
    <path
       d="m 23514,22627 -21,-63 306,-81 c 168,-44 309,-78 313,-74 4,4 9,17 10,31 3,23 -12,30 -286,137 -160,62 -293,113 -296,113 -3,0 -15,-28 -26,-63 z"
       id="path66" />
    <path
       d="m 35780,22575 c -269,-106 -285,-114 -282,-136 2,-13 7,-27 10,-31 4,-4 63,8 132,26 69,19 207,55 306,81 l 181,48 -20,63 c -12,35 -26,64 -32,63 -5,-1 -138,-52 -295,-114 z"
       id="path68" />
    <path
       d="m 23344,22001 c -3,-14 -10,-43 -16,-65 -5,-21 -8,-40 -6,-41 8,-8 610,-96 622,-92 13,5 29,57 17,57 -3,0 -142,38 -309,84 l -302,83 z"
       id="path70" />
    <path
       d="m 35944,21938 -292,-81 7,-26 c 4,-14 15,-27 23,-29 16,-3 609,85 615,92 2,2 -2,30 -9,62 -11,47 -18,59 -33,61 -11,1 -151,-35 -311,-79 z"
       id="path72" />
    <path
       d="m 23225,21279 c -4,-33 -4,-63 0,-67 3,-4 148,-14 320,-22 l 313,-15 4,32 c 3,25 0,33 -17,37 -32,8 -581,96 -598,96 -11,0 -17,-17 -22,-61 z"
       id="path74" />
    <path
       d="m 36050,21290 c -157,-27 -286,-49 -287,-49 -2,-1 -3,-17 -3,-37 0,-33 2,-35 28,-30 15,3 159,11 320,17 331,14 299,3 286,103 -6,42 -9,46 -33,45 -14,-1 -154,-23 -311,-49 z"
       id="path76" />
    <path
       d="m 29951,21049 c -173,-148 -320,-269 -327,-269 -12,0 -120,38 -398,139 -76,28 -140,50 -141,49 -7,-10 -126,-380 -123,-383 2,-3 70,-28 150,-57 79,-29 146,-57 147,-61 1,-5 -310,-275 -691,-600 -381,-326 -1035,-885 -1453,-1242 -418,-357 -876,-748 -1017,-869 -142,-121 -258,-223 -258,-226 0,-7 8,-17 190,-230 l 126,-147 305,261 c 923,788 2015,1721 2617,2236 376,322 695,593 708,603 27,21 -41,43 784,-260 113,-42 246,-90 295,-108 50,-19 158,-58 240,-89 83,-30 398,-145 700,-256 303,-111 727,-267 944,-346 216,-80 394,-144 396,-142 6,8 127,380 124,383 -4,3 -385,143 -1214,447 -165,60 -340,125 -390,143 -49,18 -207,75 -350,128 -662,244 -929,342 -1033,379 -62,23 -111,44 -110,48 2,4 96,86 211,184 114,98 207,179 207,182 0,4 -218,262 -247,292 -7,8 -25,29 -39,48 -15,19 -29,34 -33,33 -3,0 -147,-122 -320,-270 z"
       id="path78" />
    <path
       d="m 24615,20965 c -70,-12 -143,-43 -179,-74 -50,-44 -74,-141 -56,-226 20,-96 79,-144 205,-166 89,-15 232,-6 315,20 106,34 104,35 97,-63 -9,-130 -34,-174 -112,-195 -50,-14 -188,-14 -237,-1 -45,13 -88,61 -88,101 v 29 h -91 -92 l 6,-39 c 7,-55 32,-87 90,-116 78,-37 154,-48 317,-43 179,6 245,25 303,89 59,66 72,124 72,324 0,118 -4,182 -14,209 -20,57 -74,112 -129,130 -108,36 -279,45 -407,21 z m 302,-81 c 45,-18 66,-65 67,-144 1,-85 -19,-121 -81,-151 -40,-20 -63,-24 -138,-23 -152,0 -205,43 -205,162 0,116 37,158 150,172 71,8 166,1 207,-16 z"
       id="path80" />
    <path
       d="m 34695,20970 c -94,-15 -153,-39 -196,-79 -31,-31 -39,-45 -39,-74 v -37 h 85 c 78,0 85,2 85,20 0,38 24,70 69,92 39,20 61,23 152,23 87,-1 111,-5 140,-21 41,-24 59,-56 59,-106 0,-53 -15,-85 -51,-107 -32,-20 -54,-25 -161,-36 -55,-6 -58,-8 -58,-34 0,-28 1,-28 75,-34 92,-7 159,-36 181,-80 25,-47 16,-158 -16,-192 -33,-35 -108,-55 -204,-55 -142,0 -206,35 -206,111 v 39 h -91 -92 l 6,-37 c 8,-45 32,-80 77,-111 60,-40 126,-55 280,-59 169,-5 263,10 343,55 65,37 87,77 87,160 0,115 -48,164 -182,187 -54,9 -48,31 9,39 66,9 131,43 154,80 12,20 19,50 19,83 0,83 -58,136 -180,163 -73,15 -270,21 -345,10 z"
       id="path82" />
    <path
       d="m 23190,20582 v -187 l 378,22 c 207,12 401,22 430,22 l 52,1 v 139 139 l -62,6 c -56,6 -748,46 -784,46 -12,0 -14,-31 -14,-188 z"
       id="path84" />
    <path
       d="m 23480,19975 c -118,-7 -226,-13 -239,-14 -23,-1 -23,-2 -16,-68 4,-38 8,-69 8,-69 1,-1 144,22 317,50 l 315,51 -3,33 -3,32 -82,-1 c -45,-1 -179,-8 -297,-14 z"
       id="path86" />
    <path
       d="m 23612,19322 -293,-47 7,-30 c 15,-77 26,-106 37,-102 7,2 144,40 305,83 l 293,79 -3,30 c -2,24 -8,30 -28,32 -14,1 -157,-20 -318,-45 z"
       id="path88" />
    <path
       d="m 23790,18683 c -157,-42 -287,-78 -289,-79 -2,-2 5,-32 15,-67 l 19,-64 295,115 c 162,63 296,116 298,117 10,8 -21,55 -35,54 -10,0 -146,-35 -303,-76 z"
       id="path90" />
    <path
       d="m 35499,18734 c -5,-15 -8,-28 -6,-30 1,-2 135,-55 297,-118 l 295,-114 19,59 c 13,37 16,63 10,68 -8,9 -571,161 -594,161 -6,0 -15,-12 -21,-26 z"
       id="path92" />
    <path
       d="m 33870,18225 c -184,-199 -236,-261 -238,-285 l -3,-30 h 280 281 v -100 -100 h 90 90 v 100 100 h 85 85 v 30 30 h -85 -85 v 255 255 h -132 -133 z m 310,-35 v -210 h -191 c -105,0 -189,4 -187,9 3,9 370,411 375,411 2,0 3,-94 3,-210 z"
       id="path94" />
    <path
       d="m 25366,18375 c -158,-40 -240,-140 -191,-235 22,-43 72,-76 143,-96 34,-9 62,-23 62,-30 0,-6 -21,-15 -47,-19 -144,-21 -219,-112 -190,-227 26,-103 135,-156 342,-165 255,-11 420,64 433,196 10,105 -35,162 -146,189 -40,9 -72,22 -72,28 0,6 27,18 60,27 195,55 192,257 -5,321 -80,26 -303,32 -389,11 z m 266,-65 c 20,-6 49,-25 63,-42 24,-28 27,-39 23,-85 -8,-95 -66,-128 -209,-121 -90,4 -123,22 -153,82 -16,32 -17,44 -7,75 12,43 43,74 86,89 39,14 150,15 197,2 z m 38,-358 c 65,-31 90,-130 52,-202 -30,-55 -80,-75 -193,-75 -115,0 -169,20 -193,70 -34,72 -12,171 46,201 64,33 223,36 288,6 z"
       id="path96" />
    <path
       d="m 24035,18068 c -159,-61 -292,-112 -294,-114 -8,-7 48,-119 59,-116 6,1 135,66 285,143 l 274,141 -15,29 c -8,16 -16,29 -17,28 -1,0 -132,-50 -292,-111 z"
       id="path98" />
    <path
       d="m 35280,18160 c -6,-10 -10,-25 -10,-32 0,-7 126,-77 280,-156 l 280,-143 25,57 c 14,31 25,59 25,63 0,3 -133,56 -295,117 -273,104 -296,111 -305,94 z"
       id="path100" />
    <path
       d="m 24370,17629 c -206,-105 -377,-193 -379,-195 -5,-5 173,-314 181,-314 6,0 624,401 700,454 15,11 11,23 -50,129 -37,64 -69,117 -72,117 -3,0 -174,-86 -380,-191 z"
       id="path102" />
    <path
       d="m 34798,17703 c -37,-65 -66,-118 -65,-119 14,-13 710,-464 715,-464 9,0 187,309 181,314 -6,6 -755,386 -760,386 -2,0 -34,-53 -71,-117 z"
       id="path104" />
    <path
       d="m 24692,16926 c -139,-89 -257,-167 -263,-173 -8,-8 0,-25 27,-61 32,-43 40,-49 54,-39 9,7 121,97 248,201 l 231,189 -17,23 c -9,13 -19,23 -22,23 -3,0 -119,-73 -258,-163 z"
       id="path106" />
    <path
       d="m 34650,17065 c -17,-31 -44,-5 244,-239 126,-103 232,-184 236,-179 58,69 72,95 59,107 -14,13 -516,336 -522,336 -2,0 -10,-11 -17,-25 z"
       id="path108" />
    <path
       d="m 26950,16650 v -30 h 295 c 245,0 295,-2 295,-14 0,-8 -110,-165 -245,-350 -135,-184 -245,-338 -245,-341 0,-3 43,-4 96,-3 l 97,3 228,353 c 167,257 229,361 229,383 v 29 h -375 -375 z"
       id="path110" />
    <path
       d="m 31977,16543 c -4,-71 -7,-170 -7,-220 v -93 h 89 89 l 6,30 c 9,48 76,74 191,75 169,0 200,-28 199,-185 0,-147 -28,-180 -162,-194 -134,-15 -227,17 -246,82 l -9,32 h -85 -84 l 7,-27 c 27,-110 127,-152 363,-153 304,0 406,77 389,296 -10,132 -58,182 -198,205 -94,16 -208,4 -298,-31 -42,-17 -79,-30 -83,-30 -10,0 -10,87 -1,198 l 6,82 h 268 269 v 30 30 h -348 -349 z"
       id="path112" />
    <path
       d="m 25101,16410 c -129,-104 -239,-194 -244,-199 -8,-8 2,-24 33,-56 24,-25 47,-45 50,-45 3,0 104,101 224,225 213,220 218,226 201,245 -10,11 -21,20 -24,20 -3,-1 -111,-86 -240,-190 z"
       id="path114" />
    <path
       d="m 34255,16580 c -17,-19 -14,-24 153,-197 94,-98 193,-200 221,-228 l 51,-49 47,47 c 41,41 46,49 33,60 -27,25 -479,387 -483,387 -2,0 -12,-9 -22,-20 z"
       id="path116" />
    <path
       d="m 25560,15935 -224,-225 39,-40 c 21,-22 45,-40 52,-40 7,0 94,102 194,228 100,125 188,234 195,243 12,13 11,19 -9,37 l -23,21 z"
       id="path118" />
    <path
       d="m 33813,16138 -21,-23 180,-225 c 99,-124 189,-236 200,-249 l 19,-25 47,47 47,47 -225,225 -226,226 z"
       id="path120" />
    <path
       d="m 29684,16051 c -135,-22 -198,-65 -234,-159 -26,-69 -43,-219 -38,-346 3,-94 6,-108 33,-152 55,-87 164,-124 371,-124 294,1 427,109 384,314 -14,68 -52,117 -109,140 -97,38 -283,39 -418,1 -88,-25 -87,-27 -80,65 6,88 27,143 68,173 39,28 156,43 231,29 77,-14 109,-37 128,-90 l 14,-42 h 83 c 77,0 83,2 83,20 0,69 -61,130 -155,155 -69,18 -286,28 -361,16 z m 231,-382 c 24,-6 55,-24 71,-41 26,-26 29,-37 32,-106 5,-127 -38,-170 -177,-179 -98,-7 -181,10 -212,43 -20,21 -24,38 -27,100 -6,109 16,152 95,180 46,16 159,18 218,3 z"
       id="path122" />
    <path
       d="m 26070,15520 c -107,-132 -195,-244 -195,-250 0,-9 96,-83 101,-77 1,1 79,121 172,266 l 170,265 -23,18 c -13,10 -25,18 -27,18 -1,0 -91,-108 -198,-240 z"
       id="path124" />
    <path
       d="m 33323,15741 -21,-18 170,-264 c 93,-145 171,-266 173,-267 6,-6 100,69 100,79 0,9 -387,488 -395,488 -3,0 -15,-8 -27,-18 z"
       id="path126" />
    <path
       d="m 26757,15578 c -30,-46 -132,-202 -228,-348 -96,-146 -178,-270 -182,-276 -4,-8 52,-45 154,-103 89,-51 162,-91 164,-89 2,2 88,174 193,383 l 190,381 -77,44 c -42,24 -95,54 -118,68 l -43,23 z"
       id="path128" />
    <path
       d="m 32688,15592 -117,-67 191,-375 c 105,-206 193,-378 197,-382 7,-8 317,169 314,181 -3,11 -442,683 -457,698 -9,10 -37,-2 -128,-55 z"
       id="path130" />
    <path
       d="m 27202,14849 c -79,-154 -142,-282 -140,-284 13,-13 114,-53 119,-47 8,9 219,569 219,580 0,7 -44,33 -53,32 -1,0 -67,-127 -145,-281 z"
       id="path132" />
    <path
       d="m 32239,15118 -26,-11 110,-291 c 60,-160 113,-294 117,-299 9,-10 122,42 118,54 -9,26 -284,558 -288,558 -3,-1 -17,-6 -31,-11 z"
       id="path134" />
    <path
       d="m 27921,14879 c -5,-13 -54,-140 -110,-281 -55,-142 -101,-265 -103,-274 -4,-22 110,-63 122,-45 9,16 163,602 158,606 -2,2 -15,6 -30,10 -23,6 -29,3 -37,-16 z"
       id="path136" />
    <path
       d="m 31648,14893 c -10,-2 -18,-8 -18,-13 0,-16 157,-600 163,-606 6,-6 107,23 118,35 11,10 -217,586 -232,587 -8,1 -22,0 -31,-3 z"
       id="path138" />
    <path
       d="m 29670,14809 c 0,-31 -38,-712 -44,-786 l -5,-63 h 190 190 l -6,78 c -5,73 -45,753 -45,780 0,9 -35,12 -140,12 -137,0 -140,-1 -140,-21 z"
       id="path140" />
    <path
       d="m 28451,14433 c -45,-167 -81,-306 -79,-309 4,-3 128,-33 129,-31 2,8 97,632 96,633 -1,1 -16,4 -32,7 l -31,6 z"
       id="path142" />
    <path
       d="m 31047,14733 c -25,-4 -28,-8 -23,-31 3,-15 24,-148 46,-297 22,-148 43,-280 45,-292 5,-21 6,-21 67,-7 34,8 64,16 66,18 5,6 -162,616 -168,615 -3,-1 -18,-4 -33,-6 z"
       id="path144" />
    <path
       d="m 29150,14634 c 0,-5 -23,-147 -51,-317 -28,-170 -49,-310 -47,-311 2,-2 33,-6 71,-9 l 67,-6 v 37 c 0,20 7,163 15,317 8,153 13,280 12,281 -8,7 -67,14 -67,8 z"
       id="path146" />
    <path
       d="m 30422,14633 c -23,-4 -23,-6 -17,-96 8,-128 25,-475 25,-514 v -32 l 68,6 c 37,3 68,7 70,8 2,2 -20,145 -49,319 -33,199 -56,315 -63,315 -6,-1 -21,-4 -34,-6 z"
       id="path148" />
    <path
       d="m 36564,16128 -19,-23 23,19 c 21,18 27,26 19,26 -2,0 -12,-10 -23,-22 z"
       id="path150" />
  </g>
  <path
     style="fill-rule:evenodd;stroke:#000000;stroke-width:0.144458"
     d="m 201.09701,21.112679 c -19.95307,0 -38.01711,6.584514 -51.09433,17.230022 -13.07714,10.645509 -21.16308,25.352341 -21.16308,41.596968 0,16.244619 -56.69457,33.194001 -43.61739,43.837571 13.07719,10.64351 31.13982,17.22999 51.09424,17.22999 19.95456,0 38.0171,-6.5845 51.09429,-17.22999 13.07718,-10.64554 85.94357,-27.59361 85.94357,-43.837571 0,-16.24397 -8.08738,-30.951459 -21.16307,-41.596968 C 239.11555,27.697193 221.05142,21.112679 201.09701,21.112679 Z"
     id="path2-2" />
</svg>
