<?xml version="1.0" encoding="UTF-8" standalone="no"?>
<svg
   xmlns:dc="http://purl.org/dc/elements/1.1/"
   xmlns:cc="http://creativecommons.org/ns#"
   xmlns:rdf="http://www.w3.org/1999/02/22-rdf-syntax-ns#"
   xmlns:svg="http://www.w3.org/2000/svg"
   xmlns="http://www.w3.org/2000/svg"
   xmlns:sodipodi="http://sodipodi.sourceforge.net/DTD/sodipodi-0.dtd"
   xmlns:inkscape="http://www.inkscape.org/namespaces/inkscape"
   width="115mm"
   height="110.569mm"
   viewBox="0 0 115 110.569"
   version="1.1"
   id="svg1975"
   inkscape:version="1.0.2-2 (e86c870879, 2021-01-15)"
   sodipodi:docname="telekonferenz.svg">
  <defs
     id="defs1969">
    <clipPath
       clipPathUnits="userSpaceOnUse"
       id="clipPath4245">
      <path
         id="path4247"
         d="m -566.26133,109.86919 c 0,0 0.0301,8.2877 0.0301,8.2877 0,0 18.46369,0.46651 18.46369,0.46651 0,0 -0.0983,-6.88438 -0.0983,-6.88438 -0.003,-0.2557 -0.25982,-0.48079 -0.57577,-0.50499 0,0 -17.81961,-1.36484 -17.81961,-1.36484"
         style="opacity:1;fill:#91cbe1;fill-opacity:1;stroke:none;stroke-width:0.42277;stroke-linecap:round;stroke-linejoin:round;stroke-miterlimit:4;stroke-dasharray:none;stroke-dashoffset:17.0816;stroke-opacity:1;paint-order:markers fill stroke"
         inkscape:connector-curvature="0" />
    </clipPath>
    <clipPath
       clipPathUnits="userSpaceOnUse"
       id="clipPath4237">
      <path
         id="path4239"
         d="m -777.80113,145.22953 c 0,0 -27.84413,-0.70352 -27.84413,-0.70352 0,0 -0.11994,11.30113 -0.11994,11.30113 -0.004,0.38342 0.48114,0.677 1.08423,0.65786 0,0 26.91753,-0.85455 26.91753,-0.85455 0,0 -0.0377,-10.40092 -0.0377,-10.40092"
         style="opacity:1;fill:#a0caa1;fill-opacity:1;stroke:none;stroke-width:0.477833;stroke-linecap:round;stroke-linejoin:round;stroke-miterlimit:4;stroke-dasharray:none;stroke-dashoffset:17.0816;stroke-opacity:1;paint-order:markers fill stroke"
         inkscape:connector-curvature="0" />
    </clipPath>
    <clipPath
       clipPathUnits="userSpaceOnUse"
       id="clipPath4241">
      <path
         id="path4243"
         d="m -820.72856,150.39304 c -0.64525,-0.0495 -1.17135,0.23737 -1.17566,0.64371 0,0 -0.11632,10.95358 -0.11632,10.95358 0,0 30.17253,0.76234 30.17253,0.76234 0,0 -0.0368,-10.15041 -0.0368,-10.15041 0,0 -28.84386,-2.20922 -28.84386,-2.20922"
         style="opacity:1;fill:#efe07a;fill-opacity:1;stroke:none;stroke-width:0.51779;stroke-linecap:round;stroke-linejoin:round;stroke-miterlimit:4;stroke-dasharray:none;stroke-dashoffset:17.0816;stroke-opacity:1;paint-order:markers fill stroke"
         inkscape:connector-curvature="0" />
    </clipPath>
    <clipPath
       clipPathUnits="userSpaceOnUse"
       id="clipPath4249">
      <path
         id="path4251"
         d="m -504.08572,102.70697 c 0,0 -16.92996,-0.42776 -16.92996,-0.42776 0,0 0.0305,8.43795 0.0305,8.43795 0,0 16.48032,-0.52319 16.48032,-0.52319 0.29187,-0.009 0.52305,-0.20894 0.51964,-0.44745 0,0 -0.10049,-7.03955 -0.10049,-7.03955"
         style="opacity:1;fill:#dd8484;fill-opacity:1;stroke:none;stroke-width:0.387651;stroke-linecap:round;stroke-linejoin:round;stroke-miterlimit:4;stroke-dasharray:none;stroke-dashoffset:17.0816;stroke-opacity:1;paint-order:markers fill stroke"
         inkscape:connector-curvature="0" />
    </clipPath>
    <clipPath
       clipPathUnits="userSpaceOnUse"
       id="clipPath4299">
      <path
         style="fill:#e6e6e6;stroke:none;stroke-width:0.264583px;stroke-linecap:butt;stroke-linejoin:miter;stroke-opacity:1"
         d="m 104.36875,144.12183 c 0,0 3.20723,9.35443 -4.409947,11.62622 -7.617185,2.27179 -24.722431,-0.66817 -24.722431,-0.66817 L 70.15825,144.79 c 0,0 7.61718,-2.13815 10.824417,-0.66817 3.207234,1.46998 17.105246,5.61266 23.386083,0 z"
         id="path4301"
         inkscape:connector-curvature="0" />
    </clipPath>
    <clipPath
       clipPathUnits="userSpaceOnUse"
       id="clipPath4245-1">
      <path
         id="path4247-0"
         d="m -566.26133,109.86919 c 0,0 0.0301,8.2877 0.0301,8.2877 0,0 18.46369,0.46651 18.46369,0.46651 0,0 -0.0983,-6.88438 -0.0983,-6.88438 -0.003,-0.2557 -0.25982,-0.48079 -0.57577,-0.50499 0,0 -17.81961,-1.36484 -17.81961,-1.36484"
         style="opacity:1;fill:#91cbe1;fill-opacity:1;stroke:none;stroke-width:0.42277;stroke-linecap:round;stroke-linejoin:round;stroke-miterlimit:4;stroke-dasharray:none;stroke-dashoffset:17.0816;stroke-opacity:1;paint-order:markers fill stroke"
         inkscape:connector-curvature="0" />
    </clipPath>
    <clipPath
       clipPathUnits="userSpaceOnUse"
       id="clipPath4237-1">
      <path
         id="path4239-4"
         d="m -777.80113,145.22953 c 0,0 -27.84413,-0.70352 -27.84413,-0.70352 0,0 -0.11994,11.30113 -0.11994,11.30113 -0.004,0.38342 0.48114,0.677 1.08423,0.65786 0,0 26.91753,-0.85455 26.91753,-0.85455 0,0 -0.0377,-10.40092 -0.0377,-10.40092"
         style="opacity:1;fill:#a0caa1;fill-opacity:1;stroke:none;stroke-width:0.477833;stroke-linecap:round;stroke-linejoin:round;stroke-miterlimit:4;stroke-dasharray:none;stroke-dashoffset:17.0816;stroke-opacity:1;paint-order:markers fill stroke"
         inkscape:connector-curvature="0" />
    </clipPath>
    <clipPath
       clipPathUnits="userSpaceOnUse"
       id="clipPath4241-8">
      <path
         id="path4243-8"
         d="m -820.72856,150.39304 c -0.64525,-0.0495 -1.17135,0.23737 -1.17566,0.64371 0,0 -0.11632,10.95358 -0.11632,10.95358 0,0 30.17253,0.76234 30.17253,0.76234 0,0 -0.0368,-10.15041 -0.0368,-10.15041 0,0 -28.84386,-2.20922 -28.84386,-2.20922"
         style="opacity:1;fill:#efe07a;fill-opacity:1;stroke:none;stroke-width:0.51779;stroke-linecap:round;stroke-linejoin:round;stroke-miterlimit:4;stroke-dasharray:none;stroke-dashoffset:17.0816;stroke-opacity:1;paint-order:markers fill stroke"
         inkscape:connector-curvature="0" />
    </clipPath>
    <clipPath
       clipPathUnits="userSpaceOnUse"
       id="clipPath4249-8">
      <path
         id="path4251-9"
         d="m -504.08572,102.70697 c 0,0 -16.92996,-0.42776 -16.92996,-0.42776 0,0 0.0305,8.43795 0.0305,8.43795 0,0 16.48032,-0.52319 16.48032,-0.52319 0.29187,-0.009 0.52305,-0.20894 0.51964,-0.44745 0,0 -0.10049,-7.03955 -0.10049,-7.03955"
         style="opacity:1;fill:#dd8484;fill-opacity:1;stroke:none;stroke-width:0.387651;stroke-linecap:round;stroke-linejoin:round;stroke-miterlimit:4;stroke-dasharray:none;stroke-dashoffset:17.0816;stroke-opacity:1;paint-order:markers fill stroke"
         inkscape:connector-curvature="0" />
    </clipPath>
    <clipPath
       clipPathUnits="userSpaceOnUse"
       id="clipPath4299-2">
      <path
         style="fill:#e6e6e6;stroke:none;stroke-width:0.264583px;stroke-linecap:butt;stroke-linejoin:miter;stroke-opacity:1"
         d="m 104.36875,144.12183 c 0,0 3.20723,9.35443 -4.409947,11.62622 -7.617185,2.27179 -24.722431,-0.66817 -24.722431,-0.66817 L 70.15825,144.79 c 0,0 7.61718,-2.13815 10.824417,-0.66817 3.207234,1.46998 17.105246,5.61266 23.386083,0 z"
         id="path4301-1"
         inkscape:connector-curvature="0" />
    </clipPath>
  </defs>
  <sodipodi:namedview
     id="base"
     pagecolor="#ffffff"
     bordercolor="#666666"
     borderopacity="1.0"
     inkscape:pageopacity="0.0"
     inkscape:pageshadow="2"
     inkscape:zoom="1.4"
     inkscape:cx="265.83935"
     inkscape:cy="164.92685"
     inkscape:document-units="mm"
     inkscape:current-layer="layer1"
     inkscape:document-rotation="0"
     showgrid="false"
     inkscape:window-width="1920"
     inkscape:window-height="1017"
     inkscape:window-x="1912"
     inkscape:window-y="-8"
     inkscape:window-maximized="1" />
  <metadata
     id="metadata1972">
    <rdf:RDF>
      <cc:Work
         rdf:about="">
        <dc:format>image/svg+xml</dc:format>
        <dc:type
           rdf:resource="http://purl.org/dc/dcmitype/StillImage" />
        <dc:title></dc:title>
      </cc:Work>
    </rdf:RDF>
  </metadata>
  <g
     inkscape:label="Ebene 1"
     inkscape:groupmode="layer"
     id="layer1">
    <g
       id="g4478"
       transform="matrix(0.98683828,0,0,0.98683828,-57.157968,90.250878)"
       style="stroke-width:1.01334">
      <path
         sodipodi:nodetypes="sssss"
         inkscape:connector-curvature="0"
         id="path4419"
         d="m 63.076165,-73.727125 c 10.50175,-17.886881 33.64537,-26.139856 62.162875,-5.907407 28.51751,20.232452 38.12253,55.680574 21.45341,79.17559929 C 130.02332,23.036095 94.558445,1.9527363 76.592065,-13.450337 58.625695,-28.853402 52.574415,-55.840243 63.076165,-73.727125 Z"
         style="opacity:1;fill:#ffeeaa;fill-opacity:1;stroke:none;stroke-width:0.405335;stroke-linecap:round;stroke-linejoin:round;stroke-miterlimit:4;stroke-dasharray:none;stroke-dashoffset:17.0816;stroke-opacity:1;paint-order:markers fill stroke" />
      <ellipse
         transform="matrix(0.9884446,-0.15158257,0,1,0,0)"
         ry="9.822156"
         rx="42.316666"
         cy="-9.9426517"
         cx="104.12217"
         id="ellipse4309"
         style="opacity:1;fill:#d89970;fill-opacity:1;stroke:none;stroke-width:0.203849;stroke-linecap:round;stroke-linejoin:round;stroke-miterlimit:4;stroke-dasharray:none;stroke-dashoffset:17.0816;stroke-opacity:1;paint-order:markers fill stroke" />
      <ellipse
         transform="matrix(1,0,-0.11400592,0.99348007,0,0)"
         ry="16.410435"
         rx="13.563929"
         cy="-58.513695"
         cx="151.23878"
         id="ellipse4311"
         style="opacity:1;fill:#ffccaa;fill-opacity:1;stroke:none;stroke-width:0.203331;stroke-linecap:round;stroke-linejoin:round;stroke-miterlimit:4;stroke-dasharray:none;stroke-dashoffset:17.0816;stroke-opacity:1;paint-order:markers fill stroke" />
      <path
         inkscape:connector-curvature="0"
         id="path4313"
         d="m 158.24379,-41.160574 c 0,0 -8.68626,-1.20271 -14.83346,12.16076 -6.1472,13.36348 -11.75986,16.70435 -11.75986,16.70435 0,0 10.82442,10.6907796 25.52424,3.4744996 0,0 11.35896,-35.5468496 1.06908,-32.3396096 z"
         style="fill:#666666;stroke:none;stroke-width:0.268112px;stroke-linecap:butt;stroke-linejoin:miter;stroke-opacity:1" />
      <path
         inkscape:transform-center-y="10.566374"
         inkscape:transform-center-x="6.8788624"
         inkscape:connector-curvature="0"
         id="path4315"
         d="m 127.30128,-9.5845122 c 0,0 -1.92777,-1.3390158 -3.31933,0.02424 -1.39156,1.363242 -14.38446,22.3597132 -14.48619,22.7962452 -0.10171,0.436531 1.0253,3.368512 1.0253,3.368512 0,0 13.00726,-18.2930884 15.52786,-19.7614226 2.52061,-1.4683419 2.7764,-5.8576556 1.25236,-6.4275746 z"
         style="fill:#ffccaa;fill-opacity:1;stroke:none;stroke-width:0.268112px;stroke-linecap:butt;stroke-linejoin:miter;stroke-opacity:1" />
      <path
         inkscape:connector-curvature="0"
         id="path4317"
         d="m 156.90744,-11.226384 c 0,0 3.20723,9.3544296 -4.40995,11.62621963 -7.61718,2.27178997 -24.72243,-0.66817 -24.72243,-0.66817 L 122.69694,-10.558214 c 0,0 7.61718,-2.13815 10.82442,-0.66817 3.20723,1.4699796 17.10524,5.6126596 23.38608,0 z"
         style="fill:#e6e6e6;stroke:none;stroke-width:0.268112px;stroke-linecap:butt;stroke-linejoin:miter;stroke-opacity:1" />
      <path
         inkscape:connector-curvature="0"
         id="path4319"
         d="m 110.65649,11.941655 c 0,0 -0.90269,-2.051286 -1.48473,-2.186919 -0.58204,-0.135632 -2.70003,1.579941 -2.70003,1.579941 0,0 -8.814989,-5.490563 -10.819134,-2.551862 0,0 4.809664,4.771984 7.362154,6.195192 2.55248,1.423217 3.13788,3.124424 4.48362,4.327807 1.34574,1.203368 3.67816,-0.247437 3.67908,-3.806369 9.2e-4,-3.558925 -1.7068,-2.023904 -0.52094,-3.557813 z"
         style="fill:#d2c9c3;fill-opacity:1;stroke:none;stroke-width:0.268112px;stroke-linecap:butt;stroke-linejoin:miter;stroke-opacity:1" />
      <path
         inkscape:connector-curvature="0"
         id="path4321"
         d="m 154.10111,-36.750624 c -0.80181,0.13363 -5.21176,3.34087 -6.5481,9.08716 -1.33635,5.7463 -2.2718,7.34991 -5.87993,7.08265 -3.60814,-0.26727 -14.83346,-4.81086 -14.83346,-4.81086 l -3.20724,8.95353 c 0,0 21.64883,10.4235096 28.0633,4.27631 0,0 8.15173,-16.97161 6.1472,-23.51971 -0.95164,-1.53884 -2.25693,-1.66307 -3.74177,-1.06908 z"
         style="fill:#898989;fill-opacity:1;stroke:none;stroke-width:0.268112px;stroke-linecap:butt;stroke-linejoin:miter;stroke-opacity:1"
         sodipodi:nodetypes="cscccccc" />
      <path
         inkscape:connector-curvature="0"
         id="path4323"
         d="m 112.15831,-29.244286 c -0.0157,0.0692 -0.0517,0.135808 -0.0517,0.206706 v 9.29659 c 0,1.256144 2.52553,2.267046 5.6627,2.267046 3.13718,0 5.66271,-1.010902 5.66271,-2.267046 v -9.29659 c 0,-0.03652 -0.0226,-0.07036 -0.0269,-0.106452 a 5.9133382,2.5891733 0 0 1 -0.13953,0.166915 5.9133382,2.5891733 0 0 1 -0.25683,0.233061 5.9133382,2.5891733 0 0 1 -0.30903,0.220657 5.9133382,2.5891733 0 0 1 -0.3576,0.20619 5.9133382,2.5891733 0 0 1 -0.40308,0.189134 5.9133382,2.5891733 0 0 1 -0.4439,0.171051 5.9133382,2.5891733 0 0 1 -0.4811,0.150378 5.9133382,2.5891733 0 0 1 -0.51263,0.128673 5.9133382,2.5891733 0 0 1 -0.53951,0.105936 5.9133382,2.5891733 0 0 1 -0.56069,0.08165 5.9133382,2.5891733 0 0 1 -0.5767,0.05633 5.9133382,2.5891733 0 0 1 -0.58705,0.03152 5.9133382,2.5891733 0 0 1 -0.41806,0.0062 5.9133382,2.5891733 0 0 1 -0.59066,-0.01292 5.9133382,2.5891733 0 0 1 -0.58446,-0.03876 5.9133382,2.5891733 0 0 1 -0.57258,-0.06408 5.9133382,2.5891733 0 0 1 -0.555,-0.08837 5.9133382,2.5891733 0 0 1 -0.53227,-0.112655 5.9133382,2.5891733 0 0 1 -0.50436,-0.135392 5.9133382,2.5891733 0 0 1 -0.47026,-0.156578 5.9133382,2.5891733 0 0 1 -0.43253,-0.176218 5.9133382,2.5891733 0 0 1 -0.39015,-0.194821 5.9133382,2.5891733 0 0 1 -0.34365,-0.210322 5.9133382,2.5891733 0 0 1 -0.29404,-0.224277 5.9133382,2.5891733 0 0 1 -0.24185,-0.236678 5.9133382,2.5891733 0 0 1 -0.14934,-0.196887 z"
         style="opacity:1;fill:#ececec;fill-opacity:1;stroke:none;stroke-width:0.218799;stroke-linecap:round;stroke-linejoin:round;stroke-miterlimit:4;stroke-dasharray:none;stroke-dashoffset:17.0816;stroke-opacity:1;paint-order:markers fill stroke" />
      <path
         inkscape:connector-curvature="0"
         id="path4325"
         d="m 112.15831,-29.244286 a 5.9133382,2.5891733 0 0 0 0.14934,0.196887 5.9133382,2.5891733 0 0 0 0.24185,0.236678 5.9133382,2.5891733 0 0 0 0.29404,0.224277 5.9133382,2.5891733 0 0 0 0.34365,0.210322 5.9133382,2.5891733 0 0 0 0.39015,0.194821 5.9133382,2.5891733 0 0 0 0.43253,0.176218 5.9133382,2.5891733 0 0 0 0.47026,0.156578 5.9133382,2.5891733 0 0 0 0.50436,0.135392 5.9133382,2.5891733 0 0 0 0.53227,0.112655 5.9133382,2.5891733 0 0 0 0.555,0.08837 5.9133382,2.5891733 0 0 0 0.57258,0.06408 5.9133382,2.5891733 0 0 0 0.58446,0.03876 5.9133382,2.5891733 0 0 0 0.59066,0.01292 5.9133382,2.5891733 0 0 0 0.41806,-0.0062 5.9133382,2.5891733 0 0 0 0.58705,-0.03152 5.9133382,2.5891733 0 0 0 0.5767,-0.05633 5.9133382,2.5891733 0 0 0 0.56069,-0.08165 5.9133382,2.5891733 0 0 0 0.53951,-0.105936 5.9133382,2.5891733 0 0 0 0.51263,-0.128673 5.9133382,2.5891733 0 0 0 0.4811,-0.150378 5.9133382,2.5891733 0 0 0 0.4439,-0.171051 5.9133382,2.5891733 0 0 0 0.40308,-0.189134 5.9133382,2.5891733 0 0 0 0.3576,-0.20619 5.9133382,2.5891733 0 0 0 0.30903,-0.220657 5.9133382,2.5891733 0 0 0 0.25683,-0.233061 5.9133382,2.5891733 0 0 0 0.13953,-0.166915 c -0.14103,-1.205167 -2.58988,-2.161109 -5.63584,-2.161109 -2.96011,0 -5.34777,0.903997 -5.61102,2.060855 z"
         style="opacity:1;fill:#808080;fill-opacity:1;stroke:none;stroke-width:0.218799;stroke-linecap:round;stroke-linejoin:round;stroke-miterlimit:4;stroke-dasharray:none;stroke-dashoffset:17.0816;stroke-opacity:1;paint-order:markers fill stroke" />
      <path
         inkscape:connector-curvature="0"
         style="opacity:1;fill:#ad4500;fill-opacity:0.229032;stroke:none;stroke-width:0.169719;stroke-linecap:round;stroke-linejoin:round;stroke-miterlimit:4;stroke-dasharray:none;stroke-dashoffset:17.0816;stroke-opacity:1;paint-order:markers fill stroke"
         d="m 112.89063,-28.674694 a 5.1432551,1.7911211 0 0 0 0.1299,0.1362 5.1432551,1.7911211 0 0 0 0.21035,0.16373 5.1432551,1.7911211 0 0 0 0.25575,0.15514 5.1432551,1.7911211 0 0 0 0.29889,0.1455 5.1432551,1.7911211 0 0 0 0.33935,0.13477 5.1432551,1.7911211 0 0 0 0.37621,0.1219 5.1432551,1.7911211 0 0 0 0.40901,0.10832 5.1432551,1.7911211 0 0 0 0.43868,0.0937 5.1432551,1.7911211 0 0 0 0.46295,0.0779 5.1432551,1.7911211 0 0 0 0.48273,0.0611 5.1432551,1.7911211 0 0 0 0.49801,0.0443 5.1432551,1.7911211 0 0 0 0.50835,0.0268 5.1432551,1.7911211 0 0 0 0.51374,0.009 5.1432551,1.7911211 0 0 0 0.36362,-0.004 5.1432551,1.7911211 0 0 0 0.51059,-0.0218 5.1432551,1.7911211 0 0 0 0.5016,-0.039 5.1432551,1.7911211 0 0 0 0.48768,-0.0565 5.1432551,1.7911211 0 0 0 0.46924,-0.0733 5.1432551,1.7911211 0 0 0 0.44587,-0.089 5.1432551,1.7911211 0 0 0 0.41846,-0.10403 5.1432551,1.7911211 0 0 0 0.38609,-0.11833 5.1432551,1.7911211 0 0 0 0.35058,-0.13084 5.1432551,1.7911211 0 0 0 0.31103,-0.14263 5.1432551,1.7911211 0 0 0 0.26879,-0.15265 5.1432551,1.7911211 0 0 0 0.22338,-0.16122 5.1432551,1.7911211 0 0 0 0.12136,-0.11547 c -0.12267,-0.8337 -2.2526,-1.495 -4.90189,-1.495 -2.57462,0 -4.65135,0.62536 -4.88032,1.42565 z"
         id="path4327" />
      <g
         transform="matrix(1.3346636,-0.10817905,0,2.0135424,1149.4994,-566.94151)"
         id="g4397"
         style="stroke-width:1.01334">
        <g
           transform="translate(-48.758929,23.434524)"
           id="g4333"
           style="stroke-width:1.01334">
          <path
             id="path4329"
             d="m -736.35823,196.57739 c 0,0 3.35177,-0.0726 3.35177,-0.0726 0.3833,-0.008 0.69151,0.21141 0.69294,0.4927 0,0 0.0245,4.84964 0.0245,4.84964 0.001,0.28316 -0.30558,0.53068 -0.69026,0.55501 0,0 -3.36422,0.21277 -3.36422,0.21277 -0.40536,0.0256 -0.73382,-0.18943 -0.73439,-0.48225 0,0 -0.01,-5.01454 -0.01,-5.01454 -5.7e-4,-0.29082 0.3257,-0.53194 0.72952,-0.54069 0,0 0,0 0,0"
             style="opacity:1;fill:#636363;fill-opacity:1;stroke:none;stroke-width:0.405335;stroke-linecap:round;stroke-linejoin:round;stroke-miterlimit:4;stroke-dasharray:none;stroke-dashoffset:17.0816;stroke-opacity:1;paint-order:markers fill stroke"
             inkscape:connector-curvature="0" />
          <path
             id="path4331"
             d="m -740.94206,201.34379 c 0,0 12.08262,-0.63821 12.08262,-0.63821 0.0908,-0.005 0.16414,0.0468 0.16465,0.11569 0,0 0.009,1.1847 0.009,1.1847 5.1e-4,0.069 -0.0721,0.12917 -0.16296,0.13491 0,0 -12.09388,0.76488 -12.09388,0.76488 -0.10764,0.007 -0.19436,-0.0483 -0.19431,-0.12359 0,0 8.3e-4,-1.29249 8.3e-4,-1.29249 5e-5,-0.0751 0.0867,-0.14021 0.1943,-0.14589 0,0 0,0 0,0"
             style="opacity:1;fill:#636363;fill-opacity:1;stroke:none;stroke-width:0.326492;stroke-linecap:round;stroke-linejoin:round;stroke-miterlimit:4;stroke-dasharray:none;stroke-dashoffset:17.0816;stroke-opacity:1;paint-order:markers fill stroke"
             inkscape:connector-curvature="0" />
        </g>
        <path
           id="path4335"
           d="m -805.0643,203.3729 c 0,0 38.01277,3.10444 38.01277,3.10444 0.30495,0.0249 0.5523,0.2441 0.55592,0.49167 0,0 0.20625,14.10878 0.20625,14.10878 0.004,0.25222 -0.23975,0.46444 -0.54717,0.47579 0,0 -38.43513,1.41958 -38.43513,1.41958 -0.52464,0.0194 -0.94644,-0.23246 -0.94272,-0.56464 0,0 0.20737,-18.52709 0.20737,-18.52709 0.004,-0.32415 0.42539,-0.55078 0.94271,-0.50853 0,0 0,0 0,0"
           style="opacity:1;fill:#636363;fill-opacity:1;stroke:none;stroke-width:0.405335;stroke-linecap:round;stroke-linejoin:round;stroke-miterlimit:4;stroke-dasharray:none;stroke-dashoffset:17.0816;stroke-opacity:1;paint-order:markers fill stroke"
           inkscape:connector-curvature="0" />
        <path
           inkscape:connector-curvature="0"
           id="path4337"
           d="m -766.91682,213.65408 c 0,0 -16.40819,-0.41458 -16.40819,-0.41458 0,0 0.0296,8.1779 0.0296,8.1779 0,0 15.97241,-0.50707 15.97241,-0.50707 0.28287,-0.009 0.50693,-0.2025 0.50363,-0.43366 0,0 -0.0974,-6.82259 -0.0974,-6.82259"
           style="opacity:1;fill:#8584dd;fill-opacity:1;stroke:none;stroke-width:0.380715;stroke-linecap:round;stroke-linejoin:round;stroke-miterlimit:4;stroke-dasharray:none;stroke-dashoffset:17.0816;stroke-opacity:1;paint-order:markers fill stroke" />
        <path
           inkscape:connector-curvature="0"
           id="path4339"
           d="m -783.35167,205.87445 c 0,0 0.0267,7.36505 0.0267,7.36505 0,0 16.40819,0.41458 16.40819,0.41458 0,0 -0.0874,-6.11796 -0.0874,-6.11796 -0.003,-0.22724 -0.2309,-0.42727 -0.51167,-0.44877 0,0 -15.83581,-1.2129 -15.83581,-1.2129"
           style="opacity:1;fill:#c5918e;fill-opacity:1;stroke:none;stroke-width:0.380715;stroke-linecap:round;stroke-linejoin:round;stroke-miterlimit:4;stroke-dasharray:none;stroke-dashoffset:17.0816;stroke-opacity:1;paint-order:markers fill stroke" />
        <path
           inkscape:connector-curvature="0"
           id="path4341"
           d="m -783.32501,213.2395 c 0,0 -21.89291,-0.55315 -21.89291,-0.55315 0,0 -0.0943,8.88569 -0.0943,8.88569 -0.003,0.30148 0.3783,0.53231 0.85249,0.51726 0,0 21.16434,-0.6719 21.16434,-0.6719 0,0 -0.0296,-8.1779 -0.0296,-8.1779"
           style="opacity:1;fill:#a0caa1;fill-opacity:1;stroke:none;stroke-width:0.380715;stroke-linecap:round;stroke-linejoin:round;stroke-miterlimit:4;stroke-dasharray:none;stroke-dashoffset:17.0816;stroke-opacity:1;paint-order:markers fill stroke" />
        <path
           inkscape:connector-curvature="0"
           id="path4343"
           d="m -804.2805,204.27146 c -0.46819,-0.0359 -0.84992,0.17224 -0.85305,0.46708 0,0 -0.0844,7.94781 -0.0844,7.94781 0,0 21.89291,0.55315 21.89291,0.55315 0,0 -0.0267,-7.36505 -0.0267,-7.36505 0,0 -20.92883,-1.60299 -20.92883,-1.60299"
           style="opacity:1;fill:#efe07a;fill-opacity:1;stroke:none;stroke-width:0.380715;stroke-linecap:round;stroke-linejoin:round;stroke-miterlimit:4;stroke-dasharray:none;stroke-dashoffset:17.0816;stroke-opacity:1;paint-order:markers fill stroke" />
        <g
           clip-path="url(#clipPath4245-1)"
           id="g4353"
           style="stroke:none;stroke-width:1.01334"
           transform="matrix(0.88867271,0,0,0.88867271,-280.13068,108.2367)">
          <path
             id="path4345"
             d="m -558.75539,110.18052 c 0,0 3.54128,0.27729 3.54128,0.27729 0.78569,0.0615 1.41755,0.59799 1.42412,1.2038 0,0 0.009,0.84685 0.009,0.84685 0.007,0.60683 -0.61566,1.05932 -1.40258,1.01372 0,0 -3.547,-0.20552 -3.547,-0.20552 -0.8333,-0.0483 -1.51435,-0.5975 -1.51884,-1.23054 0,0 -0.006,-0.88338 -0.006,-0.88338 -0.004,-0.63192 0.6682,-1.08737 1.50011,-1.02222 0,0 0,0 0,0"
             style="opacity:1;fill:#ffe376;fill-opacity:1;stroke:none;stroke-width:0.19233;stroke-linecap:round;stroke-linejoin:round;stroke-miterlimit:4;stroke-dasharray:none;stroke-dashoffset:17.0816;stroke-opacity:0;paint-order:markers fill stroke"
             inkscape:connector-curvature="0" />
          <path
             style="opacity:1;fill:#6ac459;fill-opacity:1;stroke:none;stroke-width:0.182404;stroke-linecap:round;stroke-linejoin:round;stroke-miterlimit:4;stroke-dasharray:none;stroke-dashoffset:17.0816;stroke-opacity:0;paint-order:markers fill stroke"
             d="m -556.87373,113.76126 c -2.15455,-0.12007 -3.92264,1.44253 -3.90864,3.51119 0,0 0.0245,3.61571 0.0245,3.61571 0,0 7.70283,0.0666 7.70283,0.0666 0,0 -0.0385,-3.4376 -0.0385,-3.4376 -0.0221,-1.96709 -1.68496,-3.6391 -3.78012,-3.75585 0,0 0,0 0,0"
             id="path4347"
             inkscape:connector-curvature="0"
             sodipodi:nodetypes="ssccss" />
          <path
             id="path4349"
             d="m -557.32872,111.09282 c 0,0 0.64836,0.0474 0.64836,0.0474 1.12955,0.0825 2.03394,0.84117 2.04286,1.70288 0,0 0.0125,1.20499 0.0125,1.20499 0.009,0.86378 -0.88307,1.52001 -2.01517,1.46993 0,0 -0.64984,-0.0288 -0.64984,-0.0288 -1.15913,-0.0513 -2.11062,-0.8113 -2.11738,-1.70253 0,0 -0.009,-1.24324 -0.009,-1.24324 -0.007,-0.88903 0.93167,-1.53513 2.08812,-1.45065 0,0 0,0 0,0"
             style="opacity:1;fill:#ffccaa;fill-opacity:1;stroke:none;stroke-width:0.196421;stroke-linecap:round;stroke-linejoin:round;stroke-miterlimit:4;stroke-dasharray:none;stroke-dashoffset:17.0816;stroke-opacity:0;paint-order:markers fill stroke"
             inkscape:connector-curvature="0" />
          <path
             id="path4351"
             d="m -557.08068,113.71945 c 0,0 0.0822,0.005 0.0822,0.005 0.80613,0.0451 1.45379,0.57615 1.45983,1.19157 0,0 0.008,0.86027 0.008,0.86027 0.006,0.61647 -0.63291,1.09024 -1.44033,1.0616 0,0 -0.0824,-0.003 -0.0824,-0.003 -0.81697,-0.029 -1.48517,-0.55904 -1.49024,-1.18779 0,0 -0.007,-0.8774 -0.007,-0.8774 -0.005,-0.62766 0.65388,-1.09554 1.46952,-1.04992 0,0 0,0 0,0"
             style="opacity:1;fill:#ffe376;fill-opacity:1;stroke:none;stroke-width:0.131078;stroke-linecap:round;stroke-linejoin:round;stroke-miterlimit:4;stroke-dasharray:none;stroke-dashoffset:17.0816;stroke-opacity:0;paint-order:markers fill stroke"
             inkscape:connector-curvature="0" />
        </g>
        <g
           clip-path="url(#clipPath4237-1)"
           transform="matrix(0.7862665,0,0,0.7862665,-171.76605,99.050387)"
           id="g4365"
           style="stroke-width:1.01334">
          <path
             id="path4355"
             d="m -790.91552,145.40955 c 2.36893,0.0537 4.23346,1.51799 4.23183,3.28729 -0.002,1.7725 -1.87498,3.22194 -4.25198,3.24752 -2.43621,0.0262 -4.43406,-1.44643 -4.42415,-3.29934 0.01,-1.8494 2.01655,-3.29046 4.4443,-3.23547 0,0 0,0 0,0"
             style="opacity:1;fill:#323232;fill-opacity:1;stroke:none;stroke-width:0.264352;stroke-linecap:round;stroke-linejoin:round;stroke-miterlimit:4;stroke-dasharray:none;stroke-dashoffset:17.0816;stroke-opacity:0;paint-order:markers fill stroke"
             inkscape:connector-curvature="0" />
          <path
             sodipodi:nodetypes="ssccss"
             inkscape:connector-curvature="0"
             id="path4357"
             d="m -790.8523,149.97397 c -2.73676,0.002 -5.0069,1.91314 -5.02019,4.29051 0,0 -0.0232,4.15546 -0.0232,4.15546 0,0 9.79169,-0.41894 9.79169,-0.41894 0,0 0.002,-3.95214 0.002,-3.95214 10e-4,-2.26142 -2.08852,-4.07672 -4.75071,-4.07489 0,0 0,0 0,0"
             style="opacity:1;fill:#c194c7;fill-opacity:1;stroke:none;stroke-width:0.180253;stroke-linecap:round;stroke-linejoin:round;stroke-miterlimit:4;stroke-dasharray:none;stroke-dashoffset:17.0816;stroke-opacity:0;paint-order:markers fill stroke" />
          <path
             style="opacity:1;fill:#9e6f4f;fill-opacity:1;stroke:none;stroke-width:0.218415;stroke-linecap:round;stroke-linejoin:round;stroke-miterlimit:4;stroke-dasharray:none;stroke-dashoffset:17.0816;stroke-opacity:0;paint-order:markers fill stroke"
             d="m -790.97972,146.44117 c 1.75768,0.0305 3.14848,1.00863 3.14669,2.19484 -0.7575,1.5108 -0.78014,2.51667 -2.9836,2.63523 -2.60118,-0.39455 -2.2377,-0.49873 -3.42838,-2.67532 0.006,-1.22567 1.47545,-2.18584 3.26529,-2.15475 0,0 0,0 0,0"
             id="path4359"
             inkscape:connector-curvature="0"
             sodipodi:nodetypes="scccs" />
          <path
             id="path4361"
             d="m -811.31882,344.68077 c -9.4e-4,0.81705 -1.07425,1.55749 -2.41318,1.65435 -1.3568,0.0982 -2.46758,-0.50037 -2.46454,-1.33739 0.003,-0.83631 1.117,-1.5778 2.47166,-1.65586 1.33686,-0.077 2.407,0.52254 2.40606,1.3389 0,0 0,0 0,0"
             style="opacity:1;fill:#323232;fill-opacity:1;stroke:none;stroke-width:0.193022;stroke-linecap:round;stroke-linejoin:round;stroke-miterlimit:4;stroke-dasharray:none;stroke-dashoffset:17.0816;stroke-opacity:0;paint-order:markers fill stroke"
             transform="matrix(0.97011454,0.24264744,0,1,0,0)"
             inkscape:connector-curvature="0" />
          <ellipse
             transform="matrix(0.75813408,-0.6520987,-0.77346248,-0.63384208,0,0)"
             ry="1.2760673"
             rx="2.0875895"
             cy="411.33044"
             cx="-625.97577"
             id="ellipse4363"
             style="opacity:1;fill:#323232;fill-opacity:1;stroke:none;stroke-width:0.130323;stroke-linecap:round;stroke-linejoin:round;stroke-miterlimit:4;stroke-dasharray:none;stroke-dashoffset:17.0816;stroke-opacity:0;paint-order:markers fill stroke" />
        </g>
        <g
           clip-path="url(#clipPath4241-8)"
           transform="matrix(0.72559098,0,0,0.72559098,-208.76728,95.14763)"
           id="g4377"
           style="stroke-width:1.01334">
          <path
             id="path4367"
             d="m -804.7195,154.11368 c 0.10339,0.54665 -0.0859,1.0837 -0.52778,1.49469 -0.44394,0.41289 -1.10817,0.66639 -1.84902,0.70346 -0.74608,0.0373 -1.50885,-0.14785 -2.11892,-0.51652 -0.61336,-0.37066 -1.01983,-0.89498 -1.12743,-1.45628 -0.22429,-1.16972 0.88235,-2.15771 2.45072,-2.20498 1.54553,-0.0466 2.95688,0.84046 3.17243,1.97963 0,0 0,0 0,0"
             style="opacity:1;fill:#745d4e;fill-opacity:1;stroke:none;stroke-width:0.241491;stroke-linecap:round;stroke-linejoin:round;stroke-miterlimit:4;stroke-dasharray:none;stroke-dashoffset:17.0816;stroke-opacity:0;paint-order:markers fill stroke"
             inkscape:connector-curvature="0" />
          <path
             id="path4369"
             d="m -801.33842,153.77358 c 0.13926,0.54045 -0.11171,1.06373 -0.70025,1.45691 -0.59213,0.39558 -1.48066,0.62926 -2.47464,0.64791 -1.00352,0.0188 -2.03268,-0.18299 -2.85831,-0.56338 -0.83181,-0.38323 -1.38472,-0.91433 -1.53235,-1.47459 -0.3078,-1.16825 1.19109,-2.115 3.30948,-2.11274 2.07657,0.002 3.9658,0.91897 4.25607,2.04589 0,0 0,0 0,0"
             style="opacity:1;fill:#745d4e;fill-opacity:1;stroke:none;stroke-width:0.283392;stroke-linecap:round;stroke-linejoin:round;stroke-miterlimit:4;stroke-dasharray:none;stroke-dashoffset:17.0816;stroke-opacity:0;paint-order:markers fill stroke"
             inkscape:connector-curvature="0" />
          <path
             sodipodi:nodetypes="ssccss"
             inkscape:connector-curvature="0"
             id="path4371"
             d="m -805.93485,156.36847 c -3.46424,-0.19956 -6.34823,1.53473 -6.36311,3.89931 0,0 -0.026,4.13204 -0.026,4.13204 0,0 12.36483,0.23748 12.36483,0.23748 0,0 0.002,-3.89932 0.002,-3.89932 10e-4,-2.2318 -2.62276,-4.17625 -5.97752,-4.36951 0,0 0,0 0,0"
             style="opacity:1;fill:#7abacf;fill-opacity:1;stroke:none;stroke-width:0.202667;stroke-linecap:round;stroke-linejoin:round;stroke-miterlimit:4;stroke-dasharray:none;stroke-dashoffset:17.0816;stroke-opacity:0;paint-order:markers fill stroke" />
          <path
             id="path4373"
             d="m -806.56743,152.822 c 0,0 1.00976,0.0748 1.00976,0.0748 1.75682,0.13016 3.14859,1.17783 3.14667,2.35217 0,0 -0.003,1.64236 -0.003,1.64236 -0.002,1.17747 -1.40076,2.06223 -3.16266,1.98138 0,0 -1.01273,-0.0465 -1.01273,-0.0465 -1.80893,-0.083 -3.28262,-1.13347 -3.27633,-2.35274 0,0 0.009,-1.70059 0.009,-1.70059 0.006,-1.21591 1.48562,-2.08453 3.28919,-1.95091 0,0 0,0 0,0"
             style="opacity:1;fill:#ffccaa;fill-opacity:1;stroke:none;stroke-width:0.235478;stroke-linecap:round;stroke-linejoin:round;stroke-miterlimit:4;stroke-dasharray:none;stroke-dashoffset:17.0816;stroke-opacity:0;paint-order:markers fill stroke"
             inkscape:connector-curvature="0" />
          <path
             id="path4375"
             d="m -804.21827,158.81081 c 0.14224,0.39501 -0.5478,0.7264 -1.54979,0.74069 -1.01161,0.0144 -1.95756,-0.29927 -2.10417,-0.70114 -0.14681,-0.40227 0.56494,-0.73482 1.5809,-0.74234 1.00629,-0.007 1.93063,0.3074 2.07306,0.70279 0,0 0,0 0,0"
             style="opacity:1;fill:#745d4e;fill-opacity:1;stroke:none;stroke-width:0.115048;stroke-linecap:round;stroke-linejoin:round;stroke-miterlimit:4;stroke-dasharray:none;stroke-dashoffset:17.0816;stroke-opacity:0;paint-order:markers fill stroke"
             inkscape:connector-curvature="0" />
        </g>
        <g
           clip-path="url(#clipPath4249-8)"
           id="g4395"
           style="stroke:none;stroke-width:1.01334"
           transform="matrix(0.96918037,0,0,0.96918037,-278.36685,114.1125)">
          <path
             id="path4379"
             d="m -512.82915,102.42403 c 0,0 0.12386,0.003 0.12386,0.003 0.74275,0.0191 1.33941,0.4912 1.34492,1.05909 0.006,0.56828 -0.58297,1.01963 -1.32659,1.01153 0,0 -0.12401,-10e-4 -0.12401,-10e-4 -0.75295,-0.008 -1.36874,-0.482 -1.37333,-1.06188 -0.005,-0.57945 0.60308,-1.02991 1.35515,-1.01057 0,0 0,0 0,0"
             style="opacity:1;fill:#745d4e;fill-opacity:1;stroke:none;stroke-width:0.102907;stroke-linecap:round;stroke-linejoin:round;stroke-miterlimit:4;stroke-dasharray:none;stroke-dashoffset:17.0816;stroke-opacity:0;paint-order:markers fill stroke"
             inkscape:connector-curvature="0" />
          <path
             style="opacity:1;fill:#55a7c1;fill-opacity:1;stroke:none;stroke-width:0.126468;stroke-linecap:round;stroke-linejoin:round;stroke-miterlimit:4;stroke-dasharray:none;stroke-dashoffset:17.0816;stroke-opacity:0;paint-order:markers fill stroke"
             d="m -512.69084,106.7483 c -1.28845,0.007 -2.33317,1.35994 -2.32081,3.03723 0,0 0.0216,2.93048 0.0216,2.93048 0,0 4.6254,-0.21815 4.6254,-0.21815 0,0 -0.0291,-2.83481 -0.0291,-2.83481 -0.0167,-1.62267 -1.03196,-2.92136 -2.29708,-2.91475 0,0 0,0 0,0"
             id="path4381"
             inkscape:connector-curvature="0"
             sodipodi:nodetypes="ssccss" />
          <g
             id="g4387"
             transform="matrix(0.80761766,0,0,0.80761766,117.66582,-13.724431)"
             style="stroke-width:1.01334">
            <path
               id="path4383"
               d="m -607.76118,514.60933 c 0,0 4.47626,-0.51582 4.47626,-0.51582 0.32001,-0.0369 0.55457,0.16229 0.52681,0.44701 0,0 -0.0261,0.26782 -0.0261,0.26782 -0.0279,0.28593 -0.30867,0.54808 -0.63051,0.58732 0,0 -4.50227,0.54898 -4.50227,0.54898 -0.33824,0.0412 -0.58306,-0.16358 -0.54794,-0.45878 0,0 0.0329,-0.27646 0.0329,-0.27646 0.035,-0.29391 0.3346,-0.56133 0.67085,-0.60007 0,0 0,0 0,0"
               style="opacity:1;fill:#c16a55;fill-opacity:1;stroke:none;stroke-width:0.405335;stroke-linecap:round;stroke-linejoin:round;stroke-miterlimit:4;stroke-dasharray:none;stroke-dashoffset:17.0816;stroke-opacity:1;paint-order:markers fill stroke"
               transform="rotate(29.438076)"
               inkscape:connector-curvature="0" />
            <path
               id="path4385"
               d="m 751.73051,-252.6421 c 0,0 4.53452,-0.42425 4.53452,-0.42425 0.34133,-0.0319 0.58419,0.1783 0.54344,0.47101 0,0 -0.0382,0.27427 -0.0382,0.27427 -0.0406,0.2917 -0.34758,0.54988 -0.6872,0.57923 0,0 -4.51227,0.39002 -4.51227,0.39002 -0.32195,0.0278 -0.55263,-0.17669 -0.51819,-0.45891 0,0 0.0324,-0.26534 0.0324,-0.26534 0.0345,-0.28316 0.322,-0.53577 0.64551,-0.56603 0,0 0,0 0,0"
               style="opacity:1;fill:#c16a55;fill-opacity:1;stroke:none;stroke-width:0.405335;stroke-linecap:round;stroke-linejoin:round;stroke-miterlimit:4;stroke-dasharray:none;stroke-dashoffset:17.0816;stroke-opacity:1;paint-order:markers fill stroke"
               transform="matrix(-0.87088739,0.49148261,0.49148261,0.87088739,0,0)"
               inkscape:connector-curvature="0" />
          </g>
          <path
             id="path4389"
             d="m -512.90346,104.40598 c 0,0 0.19209,0.002 0.19209,0.002 1.14799,0.0132 2.06571,0.7292 2.0746,1.60638 0.009,0.87814 -0.89612,1.59627 -2.04618,1.60948 0,0 -0.19244,0.002 -0.19244,0.002 -1.17254,0.0135 -2.13628,-0.70573 -2.14297,-1.61185 -0.007,-0.90508 0.94451,-1.62194 2.1149,-1.60845 0,0 0,0 0,0"
             style="opacity:1;fill:#ffccaa;fill-opacity:1;stroke:none;stroke-width:0.159285;stroke-linecap:round;stroke-linejoin:round;stroke-miterlimit:4;stroke-dasharray:none;stroke-dashoffset:17.0816;stroke-opacity:0;paint-order:markers fill stroke"
             inkscape:connector-curvature="0" />
          <path
             id="path4391"
             d="m -391.5162,412.90974 c -0.0449,0.41267 -0.70575,0.82578 -1.48194,0.92196 -0.78301,0.097 -1.38105,-0.16537 -1.32971,-0.5853 0.0246,-0.20105 0.19813,-0.41114 0.48153,-0.58377 0.28218,-0.17188 0.64988,-0.29235 1.02194,-0.33536 0.37052,-0.0428 0.71565,-0.005 0.96035,0.10383 0.24431,0.10903 0.36934,0.28105 0.34783,0.47864 0,0 0,0 0,0"
             style="opacity:1;fill:#745d4e;fill-opacity:1;stroke:none;stroke-width:0.124435;stroke-linecap:round;stroke-linejoin:round;stroke-miterlimit:4;stroke-dasharray:none;stroke-dashoffset:17.0816;stroke-opacity:0;paint-order:markers fill stroke"
             transform="matrix(0.76941663,0.63874725,-0.5073495,0.86174038,0,0)"
             inkscape:connector-curvature="0" />
          <path
             id="path4393"
             d="m 503.92731,-250.81073 c -0.0277,0.20837 -0.20591,0.42741 -0.49451,0.60855 -0.28731,0.18034 -0.66004,0.30805 -1.03581,0.35551 -0.37399,0.0472 -0.72088,0.0111 -0.96531,-0.1 -0.24387,-0.11086 -0.36661,-0.28772 -0.34161,-0.49211 0.0522,-0.42663 0.72319,-0.85894 1.50553,-0.96529 0.79013,-0.10741 1.38948,0.15837 1.33171,0.59332 0,0 0,0 0,0"
             style="opacity:1;fill:#745d4e;fill-opacity:1;stroke:none;stroke-width:0.124435;stroke-linecap:round;stroke-linejoin:round;stroke-miterlimit:4;stroke-dasharray:none;stroke-dashoffset:17.0816;stroke-opacity:0;paint-order:markers fill stroke"
             transform="matrix(-0.76941663,0.63874725,0.5073495,0.86174038,0,0)"
             inkscape:connector-curvature="0" />
        </g>
      </g>
      <path
         inkscape:connector-curvature="0"
         id="path4399"
         d="m 126.83962,-24.589864 c 0,0 -1.60362,-4.07586 -2.80633,-4.27631 -1.20271,-0.20045 -2.53906,1.26953 -1.87089,1.87089 0.66818,0.60135 1.20271,1.33634 -0.0668,2.00452 -1.26953,0.66817 -4.14267,1.60362 -4.07586,3.67495 0.0668,2.07134 2.80633,3.14042 6.68174,3.14042 3.87541,0 2.13816,-6.41447 2.13816,-6.41447 z"
         style="fill:#ffccaa;fill-opacity:1;stroke:none;stroke-width:0.268112px;stroke-linecap:butt;stroke-linejoin:miter;stroke-opacity:1" />
      <g
         transform="translate(52.538691,-155.34821)"
         id="g4415"
         clip-path="url(#clipPath4299-2)"
         style="stroke-width:1.01334">
        <path
           style="fill:#ff759a;fill-opacity:1;stroke:none;stroke-width:0.260321px;stroke-linecap:butt;stroke-linejoin:miter;stroke-opacity:1"
           d="m 74.734087,147.05528 c 0,0 -0.738579,-3.43315 0.947256,-3.15036 1.685837,0.28278 0.807423,1.66461 0.807423,1.66461 0,0 1.508557,-1.03988 2.003335,0.47929 0.494777,1.51917 -3.758014,1.00646 -3.758014,1.00646 z"
           id="use4401"
           inkscape:connector-curvature="0" />
        <path
           style="fill:#ff759a;fill-opacity:1;stroke:none;stroke-width:0.259027px;stroke-linecap:butt;stroke-linejoin:miter;stroke-opacity:1"
           d="m 78.223484,152.44065 c 0,0 -3.428855,-0.67283 -2.508334,-2.1031 0.920514,-1.43028 1.838959,-0.0846 1.838959,-0.0846 0,0 -0.358372,-1.78756 1.22485,-1.64339 1.583221,0.14417 -0.555475,3.83106 -0.555475,3.83106 z"
           id="use4403"
           inkscape:connector-curvature="0" />
        <path
           style="fill:#ff759a;fill-opacity:1;stroke:none;stroke-width:0.253689px;stroke-linecap:butt;stroke-linejoin:miter;stroke-opacity:1"
           d="m 83.838301,147.48772 c 0,0 3.317872,-0.83868 3.101082,0.81299 -0.216781,1.65168 -1.593093,0.84424 -1.593093,0.84424 0,0 1.065198,1.43303 -0.397123,1.96772 -1.46232,0.53469 -1.110866,-3.62495 -1.110866,-3.62495 z"
           id="use4405"
           inkscape:connector-curvature="0" />
        <path
           style="fill:#ff759a;fill-opacity:1;stroke:none;stroke-width:0.259222px;stroke-linecap:butt;stroke-linejoin:miter;stroke-opacity:1"
           d="m 90.116657,149.22538 c 0,0 -2.239984,-2.68525 -0.622698,-3.21607 1.617284,-0.53084 1.482251,1.09405 1.482251,1.09405 0,0 0.848883,-1.615 1.988166,-0.5045 1.139282,1.1105 -2.847719,2.62652 -2.847719,2.62652 z"
           id="use4407"
           inkscape:connector-curvature="0" />
        <path
           style="fill:#ff759a;fill-opacity:1;stroke:none;stroke-width:0.277412px;stroke-linecap:butt;stroke-linejoin:miter;stroke-opacity:1"
           d="m 82.70231,146.40486 c 0,0 -3.504433,1.31279 -3.468602,-0.50848 0.03582,-1.82126 1.629266,-1.1102 1.629266,-1.1102 0,0 -1.330993,-1.42859 0.19359,-2.18656 1.524582,-0.75798 1.645746,3.80524 1.645746,3.80524 z"
           id="use4409"
           inkscape:connector-curvature="0" />
        <path
           style="fill:#ff759a;fill-opacity:1;stroke:none;stroke-width:0.260059px;stroke-linecap:butt;stroke-linejoin:miter;stroke-opacity:1"
           d="m 69.100521,143.15278 c 0,0 3.328962,-1.10688 3.23151,0.59801 -0.09744,1.70488 -1.56522,0.98287 -1.56522,0.98287 0,0 1.196746,1.38497 -0.258053,2.04156 -1.454798,0.65658 -1.408237,-3.62244 -1.408237,-3.62244 z"
           id="use4411"
           inkscape:connector-curvature="0" />
        <path
           style="fill:#ff759a;fill-opacity:1;stroke:none;stroke-width:0.295843px;stroke-linecap:butt;stroke-linejoin:miter;stroke-opacity:1"
           d="m 78.545828,156.56944 c 0,0 -1.475794,-3.70799 0.466847,-3.70932 1.942642,-0.001 1.219089,1.71305 1.219089,1.71305 0,0 1.494285,-1.45014 2.335547,0.15894 0.841261,1.60908 -4.021483,1.83733 -4.021483,1.83733 z"
           id="use4413"
           inkscape:connector-curvature="0" />
      </g>
      <path
         inkscape:connector-curvature="0"
         id="path4417"
         d="m 131.7841,-0.66924437 c -0.66817,0.66818 -4.67721,-1.46998003 -2.40542,9.62170997 2.27179,11.0916804 -6.28084,10.8244104 -6.81537,11.3589504 -0.53454,0.53454 25.25697,0.13364 25.25697,0.13364 L 137.66404,4.6761556 c 0,0 15.63526,9.4880604 25.12333,-1.60362 9.48807,-11.09169 14.96709,-44.6340096 9.48807,-43.4312996 -5.47903,1.20271 -16.03617,5.07812 -17.10525,7.21628 -1.06908,2.13815 9.6217,26.5933196 -23.38609,32.47323963 z"
         style="fill:#5a5a5a;fill-opacity:1;stroke:none;stroke-width:0.268112px;stroke-linecap:butt;stroke-linejoin:miter;stroke-opacity:1" />
    </g>
  </g>
</svg>
