<?xml version="1.0" encoding="UTF-8" standalone="no"?>
<svg
   width="334.7"
   height="334.7"
   fill-rule="evenodd"
   image-rendering="optimizeQuality"
   shape-rendering="geometricPrecision"
   text-rendering="geometricPrecision"
   viewBox="0 0 58.282 58.282"
   version="1.1"
   id="svg10"
   sodipodi:docname="phone-31172.svg"
   inkscape:version="1.1.2 (0a00cf5339, 2022-02-04)"
   xmlns:inkscape="http://www.inkscape.org/namespaces/inkscape"
   xmlns:sodipodi="http://sodipodi.sourceforge.net/DTD/sodipodi-0.dtd"
   xmlns="http://www.w3.org/2000/svg"
   xmlns:svg="http://www.w3.org/2000/svg">
  <defs
     id="defs14" />
  <sodipodi:namedview
     id="namedview12"
     pagecolor="#ffffff"
     bordercolor="#666666"
     borderopacity="1.0"
     inkscape:pageshadow="2"
     inkscape:pageopacity="0.0"
     inkscape:pagecheckerboard="0"
     showgrid="false"
     inkscape:zoom="1.5805198"
     inkscape:cx="167.35001"
     inkscape:cy="167.35001"
     inkscape:window-width="1366"
     inkscape:window-height="703"
     inkscape:window-x="0"
     inkscape:window-y="0"
     inkscape:window-maximized="1"
     inkscape:current-layer="svg10" />
  <path
     d="m24.186 22.5c-5.4466 3.1445 2.8637 18.724 8.8237 15.283l5.526 9.5712c-2.5146 1.4519-4.6432 2.3671-7.5585 0.70054-8.0946-4.6273-17.005-20.054-16.751-29.256 0.08805-3.196 1.971-4.4482 4.434-5.8702l5.526 9.5712z"
     fill="#1b1c1f"
     id="path2"
     style="fill:#f2f2f2;fill-opacity:1" />
  <path
     d="m26.4704,22.2399c-.58849.33978-1.3458.13697-1.68564-.45158l-5.2095-9.02316c-.33984-.58862-.13703-1.34586.45152-1.6857l2.73799-1.58075c.58855-.33984 1.34598-.13685 1.68576.4517l5.2095,9.0231c.33978.58849.13691,1.3458-.45158,1.68558l-2.73805,1.58081z"
     fill="#1b1c1f"
     id="path4"
     style="fill:#f2f2f2;fill-opacity:1" />
  <path
     d="m40.7023,46.8904c-.58849.33978-1.3458.13697-1.68564-.45164l-5.2095-9.02316c-.33984-.58855-.13703-1.34586.45152-1.68564l2.73799-1.58081c.58855-.33978 1.34598-.13679 1.68576.4517l5.2095,9.0231c.33978.58855.13691,1.34586-.45158,1.68564l-2.73805,1.58081z"
     fill="#1b1c1f"
     id="path6"
     style="fill:#f2f2f2;fill-opacity:1" />
  <path
     d="m29.141-2.845e-15h4.3e-4v0.00679c8.05 1.2e-4 15.335 3.26 20.604 8.5296s8.5291 12.554 8.5293 20.604h0.00679v0.00136h-0.00679c-1.2e-4 8.05-3.26 15.335-8.5296 20.604s-12.554 8.5291-20.604 8.5293v0.00679h-0.00136v-0.00679c-8.05-1.2e-4 -15.335-3.26-20.604-8.5296s-8.5291-12.554-8.5293-20.604h-0.00679v-0.00136h0.00679c1.2e-4 -8.05 3.26-15.335 8.5296-20.604s12.554-8.5291 20.604-8.5293v-0.00679h9.3e-4zm4.3e-4 3.4758v0.00679h-0.00136v-0.00679c-7.0792 1.9e-4 -13.494 2.8753-18.141 7.5226s-7.5229 11.063-7.5229 18.142h0.00679v0.00136h-0.00679c1.9e-4 7.0792 2.8753 13.494 7.5226 18.141s11.063 7.5229 18.142 7.5229v-0.00679h0.00136v0.00679c7.0792-1.9e-4 13.494-2.8753 18.141-7.5226s7.5229-11.063 7.5229-18.142h-0.00679v-0.00136h0.00679c-1.9e-4 -7.0792-2.8753-13.494-7.5226-18.141s-11.063-7.5229-18.142-7.5229z"
     fill="#1b1c1f"
     fill-rule="nonzero"
     id="path8"
     style="fill:#f2f2f2" />
</svg>
