<?xml version="1.0" encoding="UTF-8" standalone="no"?>
<svg
   width="500"
   height="400"
   viewBox="0 0 500 400"
   version="1.1"
   id="svg287"
   sodipodi:docname="student-3176407.svg"
   inkscape:version="1.1.2 (0a00cf5339, 2022-02-04)"
   xmlns:inkscape="http://www.inkscape.org/namespaces/inkscape"
   xmlns:sodipodi="http://sodipodi.sourceforge.net/DTD/sodipodi-0.dtd"
   xmlns="http://www.w3.org/2000/svg"
   xmlns:svg="http://www.w3.org/2000/svg"
   xmlns:rdf="http://www.w3.org/1999/02/22-rdf-syntax-ns#"
   xmlns:cc="http://creativecommons.org/ns#"
   xmlns:dc="http://purl.org/dc/elements/1.1/">
  <defs
     id="defs291" />
  <sodipodi:namedview
     id="namedview289"
     pagecolor="#ffffff"
     bordercolor="#666666"
     borderopacity="1.0"
     inkscape:pageshadow="2"
     inkscape:pageopacity="0.0"
     inkscape:pagecheckerboard="0"
     showgrid="false"
     inkscape:lockguides="true"
     inkscape:zoom="0.48981481"
     inkscape:cx="158.22306"
     inkscape:cy="258.26087"
     inkscape:window-width="1366"
     inkscape:window-height="703"
     inkscape:window-x="0"
     inkscape:window-y="0"
     inkscape:window-maximized="1"
     inkscape:current-layer="svg287" />
  <title
     id="title2">CHICO ESTIDUIANDO - LIBROS - ABRURRIDO</title>
  <g
     id="COLOR"
     transform="matrix(0.52211251,0,0,0.52211251,-322.00447,-80.322468)">
    <path
       d="m 1107.688,232.7 a 11.678,11.678 0 0 1 -2.6,-3.71 16.336,16.336 0 0 1 -0.4,-1.672 l 2.214,-7.039 c 3.659,-11.636 -12.58,-20.56 -19.524,-9.745 a 29.959,29.959 0 0 0 -1.73,3.084 c -28.654,-2.231 -58.113,-2.793 -84.745,9.528 -26.361,12.195 -42.451,35.922 -49.023,63.662 -3.606,15.222 -5.142,30.733 -6.291,46.3 a 10.193,10.193 0 0 0 2.689,8.056 q -1.85,7.193 -3.491,14.392 c -1.221,5.341 0.221,10.834 5.517,13.376 a 11.072,11.072 0 0 0 14.007,-3.63 237.836,237.836 0 0 1 63.271,-60.839 q 0.76,2.584 1.708,5.1 a 22.723,22.723 0 0 1 -2.547,4.538 c -4.611,6.4 0.034,17.07 8.274,17.1 l 7.226,0.026 q 1.143,1.284 2.354,2.511 a 10.6,10.6 0 0 0 7.06,8.675 49,49 0 0 1 22.7,17.466 c 2.829,3.84 8.989,4.622 13.066,2.649 4.559,-2.206 6.573,-7.041 6.031,-11.89 a 173.6,173.6 0 0 1 19.764,-101.425 c 3.633,-6.686 1.282,-13.286 -5.53,-16.513 z"
       fill="#a18c77"
       id="path4" />
    <path
       d="m 1207.821,359.027 c 7.949,9.034 24.548,-1.015 18.176,-12.043 l -21.468,-37.159 a 99.963,99.963 0 0 1 -1.683,-58.559 c 1.191,-4.219 0.2,-10.521 -4.258,-12.748 -22.191,-11.1 -47.5,-14.336 -71.47,-7.1 -4.865,1.469 -8.71,4.976 -8.919,10.153 -0.217,0.257 -0.434,0.517 -0.639,0.8 a 150.643,150.643 0 0 0 -27.841,96.889 141.538,141.538 0 0 0 3.376,23.212 c -4.43,-3.6 -9.639,-3.041 -14.218,0.105 -3.182,2.187 -8.656,1.222 -12.3,-0.264 -5.4,-2.206 -9.468,-6.664 -13.017,-11.163 -9.367,-11.874 -16.972,-25.366 -25.19,-38.043 -5.308,-8.188 -16.119,-8 -20.291,1.177 a 136.945,136.945 0 0 1 -61.815,64.4 c 0.6,-20.636 -3.943,-41.68 1.773,-61.832 1.62,-5.713 -0.934,-11.971 -6.776,-14 -5.368,-1.867 -12.375,1.037 -14,6.776 -4.184,14.75 -3.893,29.605 -3.113,44.77 0.683,13.295 1.851,27.447 -2.392,40.292 -2.37,7.173 -6.624,13.488 -9.244,20.55 a 49.341,49.341 0 0 0 -2.225,23.9 c 2.121,15.724 9.333,31.331 15.051,46.021 5.16,13.256 9.921,27.388 17.828,39.309 8.468,12.766 21.795,19.927 37.267,17.909 15.138,-1.974 28.049,-12.087 39.755,-21.1 q 19.722,-15.179 39.352,-30.477 c 23.223,-18.1 51.885,-36.715 58.766,-67.056 a 26.906,26.906 0 0 0 0.875,-4.58 c 0.018,-0.174 0.015,-0.347 0.024,-0.52 q 3.813,5.109 8.043,9.881 c 9.437,10.629 25.312,-3.428 16.549,-14.5 l -9.074,-11.471 a 129.378,129.378 0 0 1 -19.4,-41.717 137.233,137.233 0 0 1 5.566,-23.824 c 10.622,28.531 24.474,56 47.921,74.672 -0.055,0.061 -0.111,0.118 -0.166,0.178 -4.636,5.183 -5.367,13.066 1.121,17.409 12.475,8.351 29.181,2.509 34.724,-11.09 a 9.27,9.27 0 0 0 0.344,-6.095 52.023,52.023 0 0 1 5.612,-2.138 c 8.173,-2.573 11.732,-10.874 6.287,-18.074 a 195.173,195.173 0 0 1 -35.236,-78.335 c 1,1.8 1.987,3.6 2.984,5.384 a 121.217,121.217 0 0 0 23.341,40.101 z M 1115.1,298.952 c 0.266,0.265 0.543,0.517 0.832,0.753 a 10.344,10.344 0 0 0 -1.289,1.123 c 0.149,-0.628 0.297,-1.253 0.457,-1.876 z m -21.125,121.413 a 17.54,17.54 0 0 0 -2.7,0.468 11.321,11.321 0 0 0 -1.6,-0.209 c 0.038,-0.03 -0.3,-0.145 -1,-0.341 l -0.8,-0.488 a 11,11 0 0 1 -3.911,-4.928 c -4.781,-10.4 1.167,-22.092 7.381,-31.885 -0.281,5.319 -0.453,10.641 -0.563,15.94 a 27.514,27.514 0 0 0 0.912,15.872 8.727,8.727 0 0 0 3.957,4.784 c -0.551,0.292 -1.107,0.55 -1.677,0.786 z"
       fill="#f2dfd9"
       id="path6" />
    <path
       d="m 868.779,719.246 c -6.34,-3.566 -13.319,-4.952 -20.45,-5.987 -8.79,-1.276 -17.591,-2.475 -26.386,-3.713 -17.3,-2.434 -34.776,-5.878 -52.2,-7.149 -8.019,-0.585 -16.611,0.053 -23.8,3.974 -6.875,3.749 -12.078,9.545 -16.459,15.939 a 255.693,255.693 0 0 0 -23.535,43.316 c -3.153,7.328 -5.356,15.186 -4.72,23.22 0.661,8.35 5.045,14.554 11.2,19.871 0.8,0.687 1.393,1.185 1.95,1.7 a 8.36,8.36 0 0 1 0.8,0.96 c -0.027,0.061 -0.047,0.117 -0.082,0.182 -0.8,1.5 -1.429,3.195 -2.146,4.749 -3.212,6.961 -3.951,14.649 0.461,21.287 9.45,14.218 33.8,12.006 48.362,10.082 18.3,-2.418 35.318,-9.571 50.507,-19.9 4.917,-3.343 4.591,-11.448 1.022,-15.527 -0.07,-0.08 -0.144,-0.146 -0.215,-0.223 a 30.528,30.528 0 0 1 23.228,-15.439 c 4.624,-0.6 8.811,-5.311 8.98,-9.961 q 0.082,-2.247 0.164,-4.495 a 60.8,60.8 0 0 0 12.12,-6.1 c 6.817,-4.179 13.331,-8.721 18.123,-15.245 9.676,-13.176 8.105,-33.087 -6.924,-41.541 z"
       fill="#f2dfd9"
       id="path8" />
    <path
       d="m 1170.934,494.229 q -1.151,-14.118 -2.3,-28.237 a 84.084,84.084 0 0 1 18.225,-10.846 35.921,35.921 0 0 0 5.675,0.4 c 0.769,-2.116 1.539,-4.231 2.3,-6.352 q 1.457,-10.327 2.92,-20.652 a 113.983,113.983 0 0 0 -12.344,3.4 18.359,18.359 0 0 1 -1.882,-1.11 c -6.974,-4.713 -11.182,-12.647 -14.94,-20.213 -10.186,-9.925 -20.017,-19.438 -22.364,-34.119 -2.135,-2.551 -4.229,-5.138 -6.242,-7.8 -9.082,-12.007 -13.391,-27.158 -21.706,-39.442 0.092,2.322 0.206,4.643 0.387,6.962 l 2.959,17.755 a 13.574,13.574 0 0 1 -2.527,10.793 l 19.085,44.069 c 0.116,0.053 0.236,0.094 0.351,0.153 a 10.777,10.777 0 0 1 6.479,6.5 8.93,8.93 0 0 1 1,4.576 v 1 a 12.059,12.059 0 0 1 -1.576,5.881 l -1.878,2.481 a 12.084,12.084 0 0 1 -5.525,3.19 l -3.087,0.386 a 11.559,11.559 0 0 1 -10.94,-7.49 8.846,8.846 0 0 1 -0.978,-3.51 317.547,317.547 0 0 1 -24.246,28.072 c -8.664,12.941 -19.917,24.165 -32.526,33.921 -11.581,8.961 -24.04,16.674 -35.579,25.7 -13.174,10.3 -25.991,21.06 -39.668,30.7 a 10.174,10.174 0 0 1 -8.229,1.381 69.79,69.79 0 0 1 -9.165,5.544 l -25.829,-11.654 c -5.232,-11.45 -9.609,-23.367 -14.136,-35.105 Q 916.13,457.732 902.394,413.901 a 14.744,14.744 0 0 0 -3,-5.4 l 0.122,-0.105 a 10.02,10.02 0 0 0 10.406,0.6 c 14.63,-7.745 20.118,-24.044 14.9,-39.361 -1.919,-5.633 -9.81,-7.473 -14.693,-5.111 a 10.265,10.265 0 0 0 -4.6,4.227 12.009,12.009 0 0 0 -1.808,1.892 c -8.508,11.141 -17.592,23.425 -30.878,29.1 -9.381,4.008 -21.349,2.932 -27.572,-5.059 -4.334,-5.565 -13.746,-4.608 -17.409,1.121 -13.578,21.237 -43.238,25.625 -65.1,36.832 -27.052,13.869 -47.6,37.653 -62.177,63.931 -16.388,29.548 -25.763,61.983 -36.212,93.923 -2.723,8.323 -5.538,16.619 -8.6,24.823 -1.51,4.041 -3.573,8.1 -4.8,12.222 -1.349,4.524 -0.949,9.818 -1.195,14.518 -0.965,18.438 -2.088,36.877 -2.873,55.324 -0.822,19.33 0.052,39.607 11.278,56.119 9.849,14.487 26.956,23.954 44.665,20.822 7.789,-1.377 10.1,-9.019 7.914,-15.613 0.587,1.773 0.1,-0.295 0.279,-0.883 0.233,-0.785 0.349,-1.354 0.656,-2.24 a 47.763,47.763 0 0 1 2.179,-5.051 c 1.6,-3.307 3.337,-6.562 5.087,-9.79 a 122.176,122.176 0 0 1 12.957,-19.991 c 9.79,-11.8 23.213,-17.067 38.337,-17.717 18.151,-0.78 36.9,2.2 54.727,5.313 9.166,1.6 18.291,3.5 27.3,5.853 6.936,1.813 14.088,3.876 20.232,7.667 a 29.689,29.689 0 0 1 8.4,7.28 20.731,20.731 0 0 1 2.933,6.735 19.238,19.238 0 0 1 0.2,7.29 c -0.756,3.034 -1.182,3.723 -4.184,5.971 -3.822,2.862 -4.634,8.964 -2.649,13.066 2.277,4.705 6.989,6.339 11.89,6.031 l 109.248,-6.875 c 6.4,-0.4 9.194,-7.479 8.834,-12.809 -0.668,-9.886 7.857,-18.947 15.69,-24.066 12.489,-8.162 28.164,-9.882 42.45,-12.789 2.575,-0.524 5.169,-1.111 7.76,-1.769 -0.08,3.422 1.567,6.809 4.729,9.49 a 15.9,15.9 0 0 0 15.741,3.09 c 3.023,4.353 9.479,6.646 14.216,3.991 6.107,-3.422 13.472,-6 14.645,-13.787 0.784,-5.2 1.039,-10.509 1.713,-15.73 1.388,-10.757 3.163,-21.487 5.5,-32.08 0.748,-3.392 1.558,-6.768 2.4,-10.138 a 184.53,184.53 0 0 0 8.177,-28.084 c 0.051,-0.249 0.1,-0.5 0.148,-0.747 q 1.193,-3.618 2.459,-7.211 l 6.325,-16.887 c 2.56,-6.834 -1.6,-12 -6.957,-13.645 a 7.3,7.3 0 0 1 1.053,-4.14 70.3,70.3 0 0 0 4.7,-8.1 q 1.374,-3.007 2.778,-6 3.213,-6.85 6.586,-13.624 c 4.376,-8.733 9.1,-17.26 13.73,-25.859 3.225,-5.994 1.886,-12.16 1.354,-18.689 q -0.737,-8.782 -1.451,-17.553 z m -23.9,-64.777 c 0.368,0.994 0.843,2.319 1.271,3.566 a 14.448,14.448 0 0 1 -1.271,-3.566 z"
       fill="#8aaeff"
       id="path10" />
    <path
       d="m 1315.775,176.462 c -29.871,4.351 -59.654,9.262 -89.384,14.475 a 79.756,79.756 0 0 0 -32.139,5.38 11.442,11.442 0 0 0 -14.712,-5.666 l -45.552,18.914 a 9.578,9.578 0 0 0 -4.656,4.25 q -2.964,1.353 -5.877,2.863 c -12.531,6.533 -3,26.364 9.582,19.8 a 108.634,108.634 0 0 1 42.082,-12.028 c -1.368,7.15 5.293,14 13.481,12.51 a 12.175,12.175 0 0 0 3.061,6.89 c 1.339,6.289 7.819,11.321 15.253,7.818 l 115.64,-54.487 c 11.452,-5.391 5.336,-22.481 -6.779,-20.719 z"
       fill="#8aaeff"
       id="path12" />
    <path
       d="m 1180.712,727.628 a 483.144,483.144 0 0 1 -60.353,-1.4 q -15.531,-1.35 -30.951,-3.716 c -9.969,-1.53 -19.841,-3.785 -29.846,-5.046 -18.223,-2.3 -38.1,0.934 -50.27,15.924 a 32.321,32.321 0 0 0 -6.314,28.054 622.153,622.153 0 0 1 -84.122,9.509 q -12.08,0.512 -24.174,0.569 -6.287,0.03 -12.574,-0.063 c -4.4,-0.065 -9.717,-0.99 -13.92,0.389 -4.333,1.422 -7.313,5.666 -10.4,8.865 l -8.494,8.811 -17.425,18.076 -34.069,35.343 a 10.489,10.489 0 0 0 -11.571,1.574 c -4.088,3.577 -5.437,11.5 -1.022,15.527 18.463,16.843 37.576,34.169 61.8,42.114 a 80.038,80.038 0 0 0 37,3.495 c 13.216,-2.024 25.76,-7.853 38.085,-12.779 47.328,-18.914 94.91,-37.613 144.238,-50.713 a 542.561,542.561 0 0 1 86.3,-16 c 7.411,-0.726 10.593,-9.579 7.914,-15.613 -9.979,-22.48 1.635,-51.87 24.106,-62.053 9.368,-4.246 7.263,-21.295 -3.938,-20.867 z"
       fill="#f5f5f7"
       id="path14" />
    <path
       d="m 793.783,689.952 -19.508,-20.2 a 11.4,11.4 0 0 0 -3.967,-2.721 q -3.469,-3.671 -6.765,-7.486 l -18.753,-37.28 a 10.332,10.332 0 0 0 -6.095,-5.435 c -0.547,-1.874 -1.055,-3.767 -1.475,-5.7 -3.005,-13.829 -24.654,-9.875 -21.643,3.976 4.64,21.349 15.5,39.376 28.969,55.621 l 3.554,7.065 a 10.17,10.17 0 0 0 7.964,5.852 c 6.826,7.183 14,14.07 21.171,20.814 4.325,4.068 10.747,5.2 15.527,1.022 4.312,-3.78 5.164,-11.236 1.021,-15.528 z"
       fill="#fff06a"
       id="path16" />
    <path
       d="m 876.183,803.026 -16.224,-24.853 c -3.247,-4.974 -8.855,-7.935 -14.693,-5.111 -4.822,2.333 -8.381,9.683 -5.111,14.693 l 16.224,24.853 c 3.247,4.974 8.855,7.936 14.693,5.111 4.821,-2.334 8.381,-9.684 5.111,-14.693 z"
       fill="#fff06a"
       id="path18" />
    <path
       d="m 1528.37,188.648 a 523.479,523.479 0 0 0 -136,-13.256 11.661,11.661 0 0 0 -9.874,-4.852 c -5.641,0.385 -9.643,4.469 -10.4,10.034 a 19.624,19.624 0 0 0 -0.167,3.131 9.583,9.583 0 0 0 0.646,7.808 c 0.146,0.237 0.278,0.479 0.42,0.718 l 2.427,28.443 -0.276,0.07 q -9.966,2.627 -19.934,5.247 l -40.817,10.744 c -5.74,1.511 -9.969,6.658 -8.834,12.809 1.016,5.506 7.036,10.354 12.809,8.834 l 44.614,-11.743 c 13.5,-3.553 30.937,-5.5 41.4,-15.578 0.433,-0.417 0.826,-0.853 1.226,-1.286 l 80.879,-10.241 c 5.795,-0.734 8.586,-5.158 8.739,-9.834 9.547,-0.356 19.117,-0.272 28.672,0.309 a 11.03,11.03 0 0 0 11.539,-8.731 c 0.944,-4.901 -1.659,-11.374 -7.069,-12.626 z"
       fill="#ff656a"
       id="path20" />
    <path
       d="m 1540.86,509.2 -127,-1.035 c -5.938,-0.048 -11.339,3.9 -11.829,10.108 -0.442,5.608 4.143,11.78 10.108,11.829 l 0.773,0.006 c -6.111,5.855 -3.794,19.11 6.5,19.2 a 1045.307,1045.307 0 0 0 107.273,-4.633 c 5.877,-0.556 9.789,-7.244 8.848,-12.7 l 6.448,-0.978 c 12.137,-1.846 11.486,-21.697 -1.121,-21.797 z"
       fill="#ff656a"
       id="path22" />
    <path
       d="m 1554.117,238.459 -45.5,-23.544 c -5.268,-2.726 -11.69,-2.328 -15.266,3 a 12.1,12.1 0 0 0 -0.82,11.021 6.679,6.679 0 0 1 -3.347,0.532 c -14.131,-1.561 -15.738,20.255 -1.721,21.936 l 59.66,7.154 c 10.411,1.252 16.944,-14.95 6.994,-20.099 z"
       fill="#7fd2ff"
       id="path24" />
    <path
       d="m 1551.043,631.443 c -1.577,-5.721 -6.61,-9.978 -12.81,-8.834 a 10.385,10.385 0 0 0 -3.238,1.219 l -42.991,2.212 c -5.936,0.305 -9.812,7.509 -8.834,12.809 a 10.139,10.139 0 0 0 3.372,6.034 c -3.254,7.334 -5.123,15.212 1.925,20.5 4.582,3.435 9.625,2.657 14.935,1.992 l 15.639,-1.957 c 9.96,-1.247 22.471,-0.833 29.255,-9.529 5.491,-7.042 5.004,-16.272 2.747,-24.446 z"
       fill="#157eff"
       id="path26" />
    <path
       d="m 1555.491,448.46 a 11.69,11.69 0 0 0 2.12,-7.125 c -0.346,-5.064 -4.475,-10.435 -10.034,-10.4 a 541.064,541.064 0 0 1 -133.83,-15.8 c -8.424,-2.1 -15.2,3.761 -14.435,12.377 l 1.9,21.372 c -2.737,4 -2.229,9.784 1.018,13.63 a 55.163,55.163 0 0 0 0.918,6.54 11.887,11.887 0 0 0 -3.153,9.941 c 1.164,6.306 6.869,9.361 12.809,8.834 3.453,-0.306 6.908,-0.575 10.364,-0.826 6.917,1.018 14.489,0.513 20.876,0.589 l 96.774,1.146 c 8.138,0.1 12.182,-6.774 11.406,-12.863 a 14.847,14.847 0 0 0 8.983,-9.837 c 2.054,-6.683 -0.715,-13.323 -5.716,-17.578 z m -132.876,-6.3 -0.227,-2.542 q 3.534,0.777 7.078,1.5 -3.428,0.508 -6.851,1.045 z"
       fill="#ff9fcd"
       id="path28" />
    <path
       d="m 1557.934,670.068 c -12.989,-11.642 -29.745,-13.692 -46.417,-10.074 -15.221,3.3 -32.02,12.488 -47.761,7.389 -4.457,-1.444 -9.977,0.513 -12.867,4.212 -11.354,1.6 -11.83,20.509 1.2,21.887 q 2.92,0.309 5.846,0.56 a 37.654,37.654 0 0 0 27.031,10.394 c 16.948,-0.193 33.324,-10.186 50.237,-6.741 5.268,1.073 10.318,-3.636 11.555,-8.547 1.633,-0.326 3.266,-0.654 4.894,-1.006 7.34,-1.587 12.897,-12.142 6.282,-18.074 z"
       fill="#ff9fcd"
       id="path30" />
    <path
       d="m 1553.749,737.924 a 28.553,28.553 0 0 0 -5.23,-9.725 c 2.781,-5.6 2.9,-12.327 -0.714,-17.643 -7.256,-10.69 -24.825,-10.082 -36.681,-7.44 -6.769,-7.942 -17.229,-8.647 -24.133,-0.6 -3.87,4.509 -1.515,12.235 3,15.266 a 10.273,10.273 0 0 0 6.056,1.836 c 0.352,0.682 1.173,2.364 1.514,3.155 a 21.319,21.319 0 0 1 1.056,3.41 12.483,12.483 0 0 0 0.694,5.976 c -0.057,5.709 -1.891,11.716 -5.5,15.629 -3.339,3.616 -4.919,8.375 -2.649,13.065 a 11.256,11.256 0 0 0 11.89,6.031 l 32.871,-5.489 c 5.748,-0.96 11.211,-2.216 15.084,-6.936 3.847,-4.691 4.507,-10.848 2.742,-16.535 z"
       fill="#be8aff"
       id="path32" />
    <path
       d="m 1549.742,374.815 c -2.542,-3.766 -3.229,-8.55 -2.9,-12.966 a 10.024,10.024 0 0 0 -4.066,-9.264 13.179,13.179 0 0 0 -8.375,-5.094 l -48.887,-9.835 q -11.982,-2.41 -23.964,-4.821 c -8.048,-1.616 -15.878,-2.927 -24.055,-1.251 -13.875,2.844 -9.908,24.489 3.975,21.643 a 23.71,23.71 0 0 1 4.22,-0.456 16.409,16.409 0 0 0 -2.309,7.306 24.207,24.207 0 0 0 -0.063,5.026 q -0.532,0.526 -1.04,1.1 c -6.454,7.334 -3.45,17.438 6.392,19.242 5.173,0.948 9.6,-1.328 12.672,-4.983 a 31.46,31.46 0 0 1 6.854,0.543 c 7.871,1.107 15.707,2.588 23.548,3.894 l 48.86,8.135 c 4.256,0.709 8.876,-2.456 10.623,-6.1 2.082,-4.326 1.113,-8.269 -1.485,-12.119 z"
       fill="#b4fff9"
       id="path34" />
  </g>
  <g
     id="SOMBRAS"
     opacity="0.2"
     transform="matrix(0.52211251,0,0,0.52211251,-322.00447,-80.322468)">
    <path
       d="m 824.477,782.174 -48.8,-11.813 c -5.77,-1.4 -11.918,0.781 -14,6.776 -1.806,5.193 0.973,12.6 6.776,14 l 39.8,9.634 a 8.665,8.665 0 0 0 -3.5,1.123 77.01,77.01 0 0 1 -30.813,10.4 48.73,48.73 0 0 1 -13.986,-0.1 12.768,12.768 0 0 1 -5.786,-2.468 8.147,8.147 0 0 1 -1.438,-1.658 c -1.659,-5.7 -6.551,-9.989 -12.809,-8.834 a 12,12 0 0 0 -8.6,7.484 65.032,65.032 0 0 0 -2.732,-8.124 c -2.355,-5.816 -6,-11.718 -5.861,-18.178 0.138,-6.56 4.333,-12.6 7.746,-17.895 9.783,-15.167 17.29,-30.169 17.637,-48.648 0.112,-5.937 -3.941,-11.343 -10.107,-11.829 -5.659,-0.446 -11.716,4.145 -11.829,10.107 a 58.664,58.664 0 0 1 -4.229,21.426 c -2.436,5.988 -6.255,11.274 -9.741,16.679 q -1.123,1.741 -2.2,3.523 a 9.636,9.636 0 0 0 -5.336,-4.283 c -18.245,-5.813 -33.554,-20.493 -38.938,-38.975 -5.636,-19.347 -0.4,-41.651 13.57,-56.259 2.484,-2.6 4.7,-6.473 3.569,-10.262 a 66.322,66.322 0 0 1 11.011,-60.289 c 3.631,-4.7 1.7,-12.115 -3,-15.266 -5.209,-3.494 -11.621,-1.715 -15.266,3 a 86.964,86.964 0 0 0 -15.643,71.787 c -15.8,19.715 -22.818,46.521 -15.882,71.263 a 82.324,82.324 0 0 0 10.653,23.228 10.941,10.941 0 0 0 1.013,5.787 c 8.3,18.231 26.993,28.246 46.564,27.23 a 36.815,36.815 0 0 0 -0.327,19.754 c 1.789,6.649 5,12.66 7.352,19.086 2.258,6.159 0.492,10.765 -0.017,17.053 -0.657,8.1 2.621,15.941 9.87,19.994 6.832,3.821 14.563,3.215 22.041,2.333 Q 769.115,845.676 797,842.3 c 5.9,-0.7 9.864,-7.231 8.834,-12.809 a 10.877,10.877 0 0 0 -1.031,-3.024 87.44,87.44 0 0 0 9.527,-4.77 c 5.126,-3 7.846,-9.039 5.111,-14.693 a 11.179,11.179 0 0 0 -4.255,-4.555 l 2.067,0.5 c 5.77,1.4 11.918,-0.781 14,-6.776 1.806,-5.189 -0.973,-12.595 -6.776,-13.999 z m -87.229,45.147 a 37.21,37.21 0 0 1 -4.569,0.421 8.843,8.843 0 0 1 -1.284,-0.115 c 0.282,-1.824 0.741,-4.662 0.8,-5 a 34.547,34.547 0 0 0 0.483,-6.2 28.463,28.463 0 0 0 7.816,10.5 c -1.084,0.136 -2.165,0.267 -3.246,0.394 z"
       id="path37" />
    <path
       d="m 929.874,390.129 a 52.559,52.559 0 0 0 -2.966,-19.922 c -1.9,-5.578 -9.652,-7.428 -14.542,-5.173 -6.146,-5.594 -17.037,-1.538 -18.305,7.436 -1.144,8.093 -2.247,16.287 -3.113,24.518 -3.682,-2.968 -8.956,-3.726 -13.488,0.436 -8.779,8.063 -23.942,7.338 -31.882,-2.428 -3.78,-4.65 -11.137,-4.777 -15.527,-1.022 a 108.352,108.352 0 0 0 -21.484,24.893 137.061,137.061 0 0 0 -75.486,25.825 8.937,8.937 0 0 0 -3.881,8.552 11.251,11.251 0 0 0 -0.723,9.932 l -1.879,-0.494 c -9.133,-2.4 -15.366,5.029 -14.1,12.3 a 9.465,9.465 0 0 0 -1.207,1.656 l -41.74,73.046 c -2.944,5.152 -2.182,11.788 3,15.266 4.666,3.13 12.3,2.18 15.266,-3 l 37.009,-64.767 25.763,12.9 c 11,5.508 20.648,-5.589 15.436,-14.6 a 10.939,10.939 0 0 0 10.289,-4.674 c 2.5,-3.733 2.676,-10.141 -0.86,-13.384 l -8.659,-7.941 a 89.2,89.2 0 0 0 14.088,-3.955 c 8.288,-3.066 7.463,-14.534 1.34,-19.036 -0.569,-0.419 -1.16,-0.8 -1.747,-1.188 a 112.176,112.176 0 0 1 33.556,-4.589 c 3.729,0.065 8.056,-1.323 10,-4.836 a 91.713,91.713 0 0 1 13.486,-18.611 c 15.279,10.438 37.124,10.306 51.949,-1.206 -1.133,24.773 1.291,49.424 12.731,72.192 3.436,6.837 10.809,7.175 15.85,4.045 a 10.186,10.186 0 0 0 6.254,0.738 c 5.3,-0.978 10.606,-7.1 8.834,-12.81 a 123.193,123.193 0 0 1 1.05,-77.694 10.084,10.084 0 0 0 -4.312,-12.405 z"
       id="path39" />
    <path
       d="m 1021.205,409.8 a 108.678,108.678 0 0 0 -28.11,-24.875 c -12.029,-7.386 -24.376,10.832 -12.263,18.269 a 90.514,90.514 0 0 1 23.825,21.11 c 8.81,11.077 25.362,-3.423 16.548,-14.504 z"
       id="path41" />
    <path
       d="M 887.589,701.326 A 58.882,58.882 0 0 0 839.7,686.716 l -2.427,-21.823 A 224.179,224.179 0 0 0 851.6,539.412 c -2.463,-13.967 -24.1,-9.967 -21.643,3.976 a 201.388,201.388 0 0 1 -11.947,110.646 9.046,9.046 0 0 0 -3.076,7.072 v 0.052 a 197.772,197.772 0 0 1 -14.763,26.847 c -4.958,7.55 0.417,15.463 8.274,17.1 l 13.48,2.809 c 3.207,3.292 8.732,4.17 13.048,2.434 12.129,-4.881 27.358,-2.332 37.155,6.485 10.2,9.182 14.113,24.365 10.089,37.417 -4.168,13.518 16.6,20.792 20.779,7.227 6.428,-20.851 1.034,-45.263 -15.407,-60.151 z"
       id="path43" />
    <path
       d="m 871.922,748.036 -18.873,-23.1 c -8.953,-10.96 -25.515,3.528 -16.549,14.5 l 18.873,23.1 c 8.953,10.964 25.515,-3.524 16.549,-14.5 z"
       id="path45" />
    <path
       d="m 969.052,873.758 c -2.45,-5.064 -9.516,-8.089 -14.693,-5.111 -22.974,13.215 -50.264,18.288 -76.352,12.75 a 107.942,107.942 0 0 1 -55.256,-31.136 222.82,222.82 0 0 1 31.486,-34.887 c 10.522,-9.434 -3.926,-26.034 -14.5,-16.549 a 247.563,247.563 0 0 0 -40.123,46.1 11.271,11.271 0 0 0 0.86,13.384 c 39.358,48.007 109.543,61.156 163.471,30.137 5.147,-2.958 7.829,-9.065 5.107,-14.688 z"
       id="path47" />
    <path
       d="m 1014.644,491.534 a 98.533,98.533 0 0 1 -25.637,-15.519 c -4.585,-3.777 -12.188,-1.586 -15.266,3 -3.576,5.331 -1.6,11.475 3,15.266 a 117.343,117.343 0 0 0 30.673,18.029 c 5.507,2.235 12.121,-1.365 14,-6.776 2.044,-5.856 -1.249,-11.76 -6.77,-14 z"
       id="path49" />
    <path
       d="m 1038.935,216.707 c -16.977,-2.835 -32.9,4.9 -46.7,13.982 -13.3,8.754 -27.132,18.008 -36.588,31.084 -21.409,29.606 -7.793,66.22 -12.856,99.367 -1.769,11.584 14,15.16 20.1,6.992 7.919,-10.593 15.992,-21.09 23.762,-31.793 a 38.065,38.065 0 0 0 3.9,-6.56 12.425,12.425 0 0 0 12.183,-8.612 27.033,27.033 0 0 0 19.09,-12.208 c 7.5,-11.969 -10.721,-24.307 -18.269,-12.263 -1.68,2.68 -3.788,3.4 -6.834,2.215 a 10.532,10.532 0 0 0 -12.083,3.589 29.054,29.054 0 0 0 -12.3,1.459 c -7.857,2.671 -7.46,12.587 -2.6,17.73 -0.753,1.134 -1.611,2.736 -1.859,3.074 -0.853,1.164 -1.72,2.318 -2.584,3.473 -0.226,-4.37 -0.451,-8.742 -0.549,-13.12 -0.289,-12.9 0.25,-27.106 7.327,-38.353 7,-11.129 18.717,-18.622 29.333,-25.95 10.566,-7.294 22.535,-14.385 35.806,-12.17 5.863,0.979 11.391,-4.551 11.829,-10.107 0.501,-6.364 -4.231,-10.848 -10.108,-11.829 z"
       id="path51" />
    <path
       d="m 1188.833,408.021 c -13.783,-6.4 -22.89,-20.122 -30.018,-32.976 -9.877,-17.81 -18.528,-36.362 -27.66,-54.561 -4.6,-9.168 -16.281,-6.665 -19.932,0.237 0.76,-7.234 1.723,-14.248 2.65,-20.807 0.832,-5.885 -4.447,-11.383 -10.107,-11.829 -6.244,-0.492 -10.995,4.209 -11.829,10.107 -1.927,13.631 -3.872,27.634 -4.367,41.6 a 11.79,11.79 0 0 0 -10.079,-2.347 39.842,39.842 0 0 0 1.41,-4.45 14.838,14.838 0 0 0 -1.132,-9.291 13.207,13.207 0 0 0 -4.244,-4.938 c 0.121,-0.238 0.246,-0.473 0.364,-0.714 4.179,-8.513 -7.328,-18 -15.181,-13.515 a 28.881,28.881 0 0 1 -8.183,3.237 93.521,93.521 0 0 0 0.9,-18 c -0.295,-5.928 -3.657,-11.321 -10.108,-11.829 -5.331,-0.42 -12.125,4.141 -11.829,10.108 a 82.469,82.469 0 0 1 -2.669,26.388 c -1.485,5.334 0.721,12.482 6.776,14 a 54.518,54.518 0 0 0 6.869,1.268 9.755,9.755 0 0 0 2.428,4.432 16.137,16.137 0 0 0 11.771,5.3 21.146,21.146 0 0 0 4.756,13.1 20.455,20.455 0 0 0 5.647,4.691 l -0.453,1.159 c -5.169,13.214 15.624,20.4 20.779,7.227 l 2.567,-6.562 a 115.23,115.23 0 0 0 3.54,20.638 110.242,110.242 0 0 0 4.995,14.419 c -5.375,0.545 -10.006,4.27 -10.459,10.03 -0.439,5.569 4.142,11.829 10.107,11.829 a 12.129,12.129 0 0 0 9.83,-4.688 72.36,72.36 0 0 0 24.626,22.431 c 5.215,2.828 11.736,2.26 15.266,-3 3.071,-4.578 2.247,-12.419 -3,-15.266 -31.878,-17.288 -35.048,-53.857 -32.317,-87.443 a 12.238,12.238 0 0 0 0.809,2.066 c 9.795,19.521 18.886,39.637 29.9,58.508 9.93,17.008 22.186,31.793 40.35,40.226 5.392,2.5 12.189,-1.559 14,-6.776 2.117,-6.085 -1.367,-11.499 -6.773,-14.009 z"
       id="path53" />
    <path
       d="m 1212.2,395.736 a 262.143,262.143 0 0 1 -53.868,-90.028 c -1.982,-5.61 -9.767,-7.494 -14.693,-5.111 -5.846,2.829 -7.1,9.066 -5.111,14.693 a 278.542,278.542 0 0 0 57.122,94.951 c 9.539,10.418 26.15,-4.022 16.55,-14.505 z"
       id="path55" />
    <path
       d="m 1404.015,309.192 a 1825.255,1825.255 0 0 0 -178.869,39.842 c -0.171,-0.256 -0.341,-0.512 -0.537,-0.764 a 298.889,298.889 0 0 1 -37.576,-63.118 c -5.724,-12.961 -25.519,-3.361 -19.8,9.582 a 323.6,323.6 0 0 0 40.831,68.04 c 2.73,3.5 6.233,4.477 9.486,3.819 2.478,3.279 6.678,5.436 10.742,4.312 a 1825.255,1825.255 0 0 1 179.7,-40.07 c 13.981,-2.385 9.975,-24.023 -3.977,-21.643 z"
       id="path57" />
    <path
       d="m 1330.886,188.268 c -1.024,-5.55 -7.024,-10.3 -12.809,-8.834 a 293.371,293.371 0 0 0 -94.714,43.046 44.643,44.643 0 0 0 -0.709,-4.462 c -2.985,-13.735 -12.135,-26.571 -26.087,-30.6 -5.705,-1.647 -11.978,0.952 -14,6.776 -1.874,5.388 1.046,12.349 6.776,14 7.438,2.147 11.092,8.78 12.156,16.532 1.559,11.361 -4.09,23.227 -8.29,33.439 -2.261,5.5 1.384,12.128 6.776,14 5.88,2.045 11.737,-1.265 14,-6.776 a 161.716,161.716 0 0 0 7.494,-21.375 c 3.777,1.644 8.206,0.8 11.767,-1.758 a 264.215,264.215 0 0 1 88.807,-41.187 c 5.752,-1.449 9.961,-6.687 8.833,-12.801 z"
       id="path59" />
    <path
       d="m 1383.915,221.762 -1.777,0.412 c 8.294,-13.5 6.311,-30.828 3.529,-45.811 -2.589,-13.939 -24.229,-9.95 -21.643,3.975 2.135,11.5 5.2,26.685 -4.671,34.861 -4.159,3.444 -9.922,5.838 -15.193,8.723 -6.794,3.719 -12.625,7.993 -17.417,14.125 -5.784,7.4 2.181,19.026 11.122,16.953 l 50.025,-11.6 c 13.772,-3.186 9.834,-24.839 -3.975,-21.638 z"
       id="path61" />
    <path
       d="m 1528.262,235.1 c -1.929,-5.591 -6.715,-7.746 -12.349,-7.432 L 1473.95,230 c -5.935,0.33 -9.815,7.492 -8.834,12.809 a 10.666,10.666 0 0 0 1.747,4.258 l -23.726,9.481 a 9.807,9.807 0 0 0 -11.03,-4.888 1186.782,1186.782 0 0 0 -210.871,63.512 c -5.512,2.235 -7.578,9.593 -5.111,14.693 2.734,5.651 9.165,7.352 14.693,5.111 a 1154.142,1154.142 0 0 1 203.729,-61.353 c 2.945,5.007 8.985,6.4 14.248,4.3 l 73.895,-29.528 c 5.02,-2.013 7.235,-8.478 5.572,-13.295 z"
       id="path63" />
    <path
       d="m 1291.045,449.95 a 541.036,541.036 0 0 1 -113.179,13.678 12.872,12.872 0 0 0 -8.257,2.988 11.9,11.9 0 0 1 0.381,-1.56 c 0.716,-2.247 2.446,-4.071 5.036,-6 4.526,-3.365 11.827,-5.5 18.371,-7.046 l 1.651,-0.383 c 13.766,-3.184 9.858,-24.779 -3.975,-21.643 q -0.864,0.2 -1.734,0.4 c -11.633,2.7 -23.508,5.673 -34.136,11.213 -12.527,6.531 -21.331,16.25 -28.692,28.135 -16.226,26.2 -32.2,52.551 -48.3,78.826 a 11.082,11.082 0 0 0 12.806,16.447 53.293,53.293 0 0 0 -7.46,11.659 c -3.111,6.8 -4.015,14.466 -4.741,21.838 -1.069,10.848 -2.316,23.591 -10.982,31.31 a 16.226,16.226 0 0 1 -8.588,3.277 c -2.846,0.039 -3.2,-0.044 -5.254,-0.892 1.4,0.578 -0.506,-0.516 -1.174,-0.79 -0.411,-0.608 -1.867,-2.249 -1.039,-0.876 -4.427,-7.338 -13.643,-8.281 -19.036,-1.341 A 129.36,129.36 0 0 1 967.1,673.8 c -11.662,3.358 -11.856,20.288 1.127,21.79 a 131.009,131.009 0 0 0 17.246,0.834 421.946,421.946 0 0 0 -53.927,59.207 c -8.505,11.325 9.772,23.577 18.269,12.263 0.734,-0.978 1.487,-1.941 2.23,-2.912 a 11.934,11.934 0 0 0 8.242,1.9 117.346,117.346 0 0 0 21.124,-4.459 50.009,50.009 0 0 1 6.9,0.739 c 3.887,0.685 7.956,-1.816 10.12,-5.1 a 7.894,7.894 0 0 0 1.248,1.507 c 1.346,1.262 2.734,2.429 4.153,3.525 a 10.654,10.654 0 0 0 -1.258,4.163 c -0.494,6.269 4.213,10.963 10.107,11.829 l 136.574,20.055 c 10.313,1.514 16.345,-14.066 7.692,-19.68 a 12.161,12.161 0 0 0 7.567,-7.092 c 2.152,-6.188 -1.431,-11.362 -6.776,-14 -22.735,-11.236 -48.586,-11.048 -73.342,-11.794 -21.991,-0.663 -45.183,-2.567 -62.945,-16.91 a 8.51,8.51 0 0 0 -3.725,-1.668 c 1.629,-1.518 3.325,-2.966 5.1,-4.324 a 128.753,128.753 0 0 1 15.015,-4.857 138.4,138.4 0 0 1 50.5,-4.034 67.928,67.928 0 0 1 11.264,5.661 c 7.417,4.651 15.722,-0.138 17.1,-8.274 a 786.237,786.237 0 0 1 29.583,-118.056 c 6.42,-19.2 14.381,-37.822 20.9,-56.97 3.286,-9.65 5.971,-19.72 6.822,-29.908 a 80.474,80.474 0 0 0 -1.624,-22.519 8.438,8.438 0 0 0 3.755,0.854 575.657,575.657 0 0 0 83.454,-7.12 10.5,10.5 0 0 0 13.193,3.457 l 25.033,-11.228 c 11.214,-5.034 5.409,-23.507 -6.776,-20.729 z m -193.392,220.257 c -0.924,0 -2.162,0.072 -3.382,0.171 -0.011,-0.041 -0.019,-0.084 -0.03,-0.125 0.544,-0.621 1.09,-1.239 1.623,-1.871 a 8.84,8.84 0 0 0 1.884,-6.574 8.306,8.306 0 0 0 0.635,-0.852 c -0.156,2.953 -0.361,5.9 -0.7,8.814 0,-0.045 -0.01,0.144 -0.03,0.437 z m 0.093,23.677 q -1.8,-0.726 -3.623,-1.381 a 30.785,30.785 0 0 1 3.9,-0.134 c -0.092,0.505 -0.181,1.01 -0.277,1.515 z"
       id="path65" />
    <path
       d="M 1536.782,476.62 1424.2,461.682 a 129.693,129.693 0 0 0 1.356,-39.634 c -0.694,-5.9 -7.238,-9.862 -12.81,-8.834 -6.171,1.139 -9.53,6.888 -8.834,12.81 a 102.5,102.5 0 0 1 -3.643,41.33 11.174,11.174 0 0 0 9.529,14.582 l 125.262,16.62 c 5.891,0.782 11.38,-4.411 11.829,-10.108 0.489,-6.202 -4.201,-11.048 -10.107,-11.828 z"
       id="path67" />
    <path
       d="m 1508.677,528.546 -54.872,9.246 c -4.573,0.771 -9.144,1.552 -13.718,2.312 -0.025,0 -0.99,0.086 -1.968,0.2 -0.283,-0.655 -0.57,-1.308 -0.843,-1.968 q -5.131,-12.072 -10.208,-24.167 c -2.314,-5.478 -9.538,-7.605 -14.693,-5.111 -5.589,2.7 -7.432,9.2 -5.111,14.693 3.9,9.23 7.242,19.022 11.859,27.91 2.65,5.1 6.632,9 12.311,10.376 5.487,1.331 11.1,-0.03 16.547,-0.949 l 64.671,-10.9 c 13.99,-2.356 9.981,-23.993 -3.975,-21.642 z"
       id="path69" />
  </g>
  <g
     id="LINEAS"
     transform="matrix(0.52211251,0,0,0.52211251,-322.00447,-80.322468)">
    <path
       id="_Trazado_"
       data-name="&lt;Trazado&gt;"
       d="m 943.7,318.5 c 0.1,-2.8 0.2,-5.7 -1.1,-8.2 -1.3,-2.5 -4.2,-4.4 -6.9,-3.4 -2.1,0.8 -3.2,3.1 -4,5.2 -4.9,12.7 -7.3,26.2 -9.6,39.6 -0.9,5 -1.7,10.1 -0.1,14.9 1.6,4.8 6.4,8.9 11.3,7.9"
       fill="none"
       stroke="#000000"
       stroke-linecap="round"
       stroke-linejoin="round"
       stroke-width="4.252" />
    <path
       id="_Trazado_2"
       data-name="&lt;Trazado&gt;"
       d="m 948.1,313.2 a 90.283,90.283 0 0 1 93.1,-95.4 c -2.9,-1.4 -5.7,-2.8 -8.6,-4.1 a 54.886,54.886 0 0 1 21.7,-1.4 19.954,19.954 0 0 1 22.3,4.5 35.88,35.88 0 0 1 30.6,-12.2 c -5.6,0.4 -9.4,6.7 -8.7,12.2 0.7,5.6 4.8,10.2 9.3,13.4"
       fill="none"
       stroke="#000000"
       stroke-linecap="round"
       stroke-linejoin="round"
       stroke-width="4.252" />
    <path
       id="_Trazado_3"
       data-name="&lt;Trazado&gt;"
       d="m 1036.3,297.8 a 40.363,40.363 0 0 1 -8.2,26 29.567,29.567 0 0 0 30,0.2 55.982,55.982 0 0 1 -15.3,13.8 37.919,37.919 0 0 0 16.4,-1 c -2.3,2.2 -4.5,4.4 -6.8,6.5 a 13.972,13.972 0 0 0 10,1.4 18.929,18.929 0 0 0 -4,8.9 c 3.8,-0.3 7.7,-0.7 11.5,-1 a 10.475,10.475 0 0 0 4.9,10.6 10.617,10.617 0 0 0 11.7,-0.8"
       fill="none"
       stroke="#000000"
       stroke-linecap="round"
       stroke-linejoin="round"
       stroke-width="4.252" />
    <path
       id="_Trazado_4"
       data-name="&lt;Trazado&gt;"
       d="m 1030.6,294.6 c -1.5,10.6 -11.4,19.5 -22.1,19.8 -3.4,0.1 -8.3,0.8 -8,4.2 a 20.209,20.209 0 0 0 1.1,3.2 c 0.6,2.8 -2,5.3 -4.6,6.3 -2.6,1 -5.7,1.3 -8,3 -2.3,1.7 -3.2,5.7 -0.7,7.2 -2.8,0.4 -5.5,0.7 -8.3,1.1 v 10.3 a 68.244,68.244 0 0 0 -35.8,26.2 l 1.2,-39"
       fill="none"
       stroke="#000000"
       stroke-linecap="round"
       stroke-linejoin="round"
       stroke-width="4.252" />
    <path
       id="_Trazado_5"
       data-name="&lt;Trazado&gt;"
       d="m 941.1,325.9 c -0.6,-1.4 -1.2,-2.8 -1.8,-4.3 a 32.931,32.931 0 0 0 -5.8,12.6"
       fill="none"
       stroke="#000000"
       stroke-linecap="round"
       stroke-linejoin="round"
       stroke-width="4.252" />
    <path
       id="_Trazado_6"
       data-name="&lt;Trazado&gt;"
       d="m 941.7,326.9 a 47.5,47.5 0 0 1 -6.9,27.5 c -0.9,-0.4 -1.9,-0.8 -2.8,-1.2 a 11.9,11.9 0 0 0 -2.6,10.2"
       fill="none"
       stroke="#000000"
       stroke-linecap="round"
       stroke-linejoin="round"
       stroke-width="4.252" />
    <path
       id="_Trazado_7"
       data-name="&lt;Trazado&gt;"
       d="m 933.3,375.5 c -4.3,23.6 -8.6,47.2 -9.3,71.1 -0.7,23.9 2.4,48.3 12.3,70.1 5.9,13 15.5,25.8 29.4,28.9 15.8,3.5 31.1,-6.7 44.1,-16.3 l 44.7,-33 c 26.4,-19.5 54.6,-41.7 61.8,-73.7"
       fill="none"
       stroke="#000000"
       stroke-linecap="round"
       stroke-linejoin="round"
       stroke-width="4.252" />
    <path
       id="_Trazado_8"
       data-name="&lt;Trazado&gt;"
       d="m 980.8,399.4 c 7.6,3.7 15.2,7.4 22.1,12.2 6.9,4.8 13.3,10.6 17.5,17.9"
       fill="none"
       stroke="#000000"
       stroke-linecap="round"
       stroke-linejoin="round"
       stroke-width="4.252" />
    <path
       id="_Trazado_9"
       data-name="&lt;Trazado&gt;"
       d="m 997.6,410.8 a 6.322,6.322 0 0 0 -3,5.6 6.223,6.223 0 0 0 3.6,5.2 c 1.9,0.8 4.1,0.6 6.2,0.3 a 16.2,16.2 0 0 0 3.8,-0.9 4.109,4.109 0 0 0 2.4,-2.9"
       fill="none"
       stroke="#000000"
       stroke-linecap="round"
       stroke-linejoin="round"
       stroke-width="4.252" />
    <path
       id="_Trazado_10"
       data-name="&lt;Trazado&gt;"
       d="m 1064.4,444.7 a 27.907,27.907 0 0 1 22.6,10.5"
       fill="none"
       stroke="#000000"
       stroke-linecap="round"
       stroke-linejoin="round"
       stroke-width="4.252" />
    <path
       id="_Trazado_11"
       data-name="&lt;Trazado&gt;"
       d="m 1062.4,445.5 a 8.67,8.67 0 0 0 16.5,5.2"
       fill="none"
       stroke="#000000"
       stroke-linecap="round"
       stroke-linejoin="round"
       stroke-width="4.252" />
    <path
       id="_Trazado_12"
       data-name="&lt;Trazado&gt;"
       d="m 1056.5,443.1 a 85.2,85.2 0 0 1 37.6,0 4.573,4.573 0 0 1 2,0.9 1.539,1.539 0 0 1 0.2,2 66.3,66.3 0 0 1 -20.3,-2.7 c -2.4,-0.6 -4.8,-1.4 -7.2,-1.3 a 7.428,7.428 0 0 0 -6.3,3.3"
       fill="none"
       stroke="#000000"
       stroke-linecap="round"
       stroke-linejoin="round"
       stroke-width="4.252" />
    <path
       id="_Trazado_13"
       data-name="&lt;Trazado&gt;"
       d="m 1027,423.2 c -5.4,-7.6 -10.9,-15.3 -17.5,-21.9 -6.6,-6.6 -14.4,-12.3 -23.4,-15.1 16.9,8.5 25.1,29.7 42.7,36.4"
       fill="none"
       stroke="#000000"
       stroke-linecap="round"
       stroke-linejoin="round"
       stroke-width="4.252" />
    <path
       id="_Trazado_14"
       data-name="&lt;Trazado&gt;"
       d="m 1071.1,446.8 a 4.6,4.6 0 0 0 0.7,7.1 4.774,4.774 0 0 1 -4.9,-2.5 4.714,4.714 0 0 1 1,-5.4 v 5.8"
       fill="none"
       stroke="#000000"
       stroke-linecap="round"
       stroke-linejoin="round"
       stroke-width="4.252" />
    <path
       id="_Trazado_15"
       data-name="&lt;Trazado&gt;"
       d="m 1004,414.4 a 2.927,2.927 0 0 0 -3.2,4.6 3.738,3.738 0 0 1 -3.3,-1.5 3.838,3.838 0 0 1 -0.3,-3.6 l 3.6,-0.3 a 2.577,2.577 0 0 0 -2.5,1.3 2.162,2.162 0 0 0 0.6,2.7"
       fill="none"
       stroke="#000000"
       stroke-linecap="round"
       stroke-linejoin="round"
       stroke-width="4.252" />
    <path
       id="_Trazado_16"
       data-name="&lt;Trazado&gt;"
       d="m 1034.3,481.2 c -2.7,4 -3.5,9 -5.6,13.4 -2.1,4.4 -6.5,8.5 -11.2,7.5 -2.8,-0.6 -5,-2.8 -6.6,-5.2 -1.6,-2.4 -2.8,-5.1 -4.7,-7.2 -2.3,-2.7 -5.5,-4.4 -8.4,-6.5 -2.9,-2.1 -5.6,-4.8 -6.3,-8.2 -0.7,-3.5 1.7,-7.7 5.2,-7.7"
       fill="none"
       stroke="#000000"
       stroke-linecap="round"
       stroke-linejoin="round"
       stroke-width="4.252" />
    <path
       id="_Trazado_17"
       data-name="&lt;Trazado&gt;"
       d="m 995.7,510.2 c -1.5,-4.5 -5.7,-7.5 -9.8,-9.7 -4.1,-2.2 -8.7,-4 -12.1,-7.3"
       fill="none"
       stroke="#000000"
       stroke-linecap="round"
       stroke-linejoin="round"
       stroke-width="4.252" />
    <path
       id="_Trazado_18"
       data-name="&lt;Trazado&gt;"
       d="m 996.5,510.7 a 75.759,75.759 0 0 0 17.1,1.7"
       fill="none"
       stroke="#000000"
       stroke-linecap="round"
       stroke-linejoin="round"
       stroke-width="4.252" />
    <path
       id="_Trazado_19"
       data-name="&lt;Trazado&gt;"
       d="m 979.2,518.2 a 21.57,21.57 0 0 0 17.5,5.4"
       fill="none"
       stroke="#000000"
       stroke-linecap="round"
       stroke-linejoin="round"
       stroke-width="4.252" />
    <path
       id="_Trazado_20"
       data-name="&lt;Trazado&gt;"
       d="m 1108.7,254.2 c 4.5,-9.9 13.2,-17.6 23.3,-21.9 10,-4.3 21.2,-5.3 32.1,-4.1 14.7,1.6 29.9,7.9 37.6,20.5"
       fill="none"
       stroke="#000000"
       stroke-linecap="round"
       stroke-linejoin="round"
       stroke-width="4.252" />
    <path
       id="_Trazado_21"
       data-name="&lt;Trazado&gt;"
       d="m 1106.9,254.4 c 1.5,-12.7 9.2,-24.2 19.8,-31.3 10.6,-7.1 23.8,-9.8 36.5,-8.5 a 72.389,72.389 0 0 1 35,14.2 c 3.1,2.3 6.1,4.9 7.5,8.5 1.4,3.5 0.8,8.2 -2.4,10.3"
       fill="none"
       stroke="#000000"
       stroke-linecap="round"
       stroke-linejoin="round"
       stroke-width="4.252" />
    <path
       id="_Trazado_22"
       data-name="&lt;Trazado&gt;"
       d="m 1199.4,247.9 a 126.415,126.415 0 0 1 -3.7,32.4"
       fill="none"
       stroke="#000000"
       stroke-linecap="round"
       stroke-linejoin="round"
       stroke-width="4.252" />
    <path
       id="_Trazado_23"
       data-name="&lt;Trazado&gt;"
       d="m 1170.8,293.2 q 18,31.95 36.1,63.9 c 1.6,2.8 3.2,5.6 5.9,7.4 a 10.445,10.445 0 0 0 14.4,-3.5 c 2.9,-5.2 0.8,-11.7 -1.7,-17.1 -9.6,-20.6 -24.5,-39.3 -28.7,-61.7"
       fill="none"
       stroke="#000000"
       stroke-linecap="round"
       stroke-linejoin="round"
       stroke-width="4.252" />
    <path
       id="_Trazado_24"
       data-name="&lt;Trazado&gt;"
       d="m 1144.2,310.6 c 5.4,16.2 11.4,32.2 19.8,47.1 7,12.4 15.5,23.9 23.9,35.4 3.1,4.3 6.4,8.6 11,11.3 3.8,2.3 9.4,2.8 12,-0.8 2.3,-3.3 0.6,-7.7 -1.1,-11.3 -7.9,-15.8 -17.4,-30.7 -25.2,-46.6 -7.8,-15.8 -14,-32.9 -14.4,-50.5"
       fill="none"
       stroke="#000000"
       stroke-linecap="round"
       stroke-linejoin="round"
       stroke-width="4.252" />
    <path
       id="_Trazado_25"
       data-name="&lt;Trazado&gt;"
       d="m 1116.4,321.1 c 7.1,23.9 20.2,45.5 33.2,66.8 4.4,7.3 8.9,14.6 13.3,21.8 4.4,7.1 9.3,14.7 17.1,17.6 4.5,1.6 10,1.3 13.3,-2.2 3,-3.2 3.3,-8.3 1.9,-12.6 -1.4,-4.2 -4.2,-7.8 -6.9,-11.4 -16.2,-22 -26.7,-47.6 -40.8,-71"
       fill="none"
       stroke="#000000"
       stroke-linecap="round"
       stroke-linejoin="round"
       stroke-width="4.252" />
    <path
       id="_Trazado_26"
       data-name="&lt;Trazado&gt;"
       d="m 1110.3,256.5 c -10,19.9 -20.2,40.4 -21.9,62.7 -1,12.7 0.9,25.4 3.4,37.9 1.8,8.7 3.8,17.4 7.3,25.5 3.3,7.9 7.9,15.2 12.4,22.5 3.9,6.4 7.9,12.7 11.8,19.1 3.1,5 7.5,10.7 13.4,10.2 4.7,-0.4 8.1,-5.1 8.6,-9.7 0.5,-4.7 -1.3,-9.3 -3.5,-13.4 -5.4,-10.3 -13.2,-19.3 -17.9,-29.9 -7.3,-16.3 -6.8,-34.9 -6.2,-52.7"
       fill="none"
       stroke="#000000"
       stroke-linecap="round"
       stroke-linejoin="round"
       stroke-width="4.252" />
    <path
       id="_Trazado_27"
       data-name="&lt;Trazado&gt;"
       d="m 1095.9,379.8 c 0.8,4.5 -1.5,8.9 -3.9,12.7 -2.4,3.9 -5,7.9 -5.1,12.4 -0.1,5.4 4.2,10.5 9.5,11.8 6.2,1.4 13.1,-2.7 14.8,-8.7"
       fill="none"
       stroke="#000000"
       stroke-linecap="round"
       stroke-linejoin="round"
       stroke-width="4.252" />
    <path
       id="_Trazado_28"
       data-name="&lt;Trazado&gt;"
       d="m 1132.1,218.8 c 5,-5.6 10.2,-11.2 16.1,-15.8 6,-4.6 12.8,-8.3 20.3,-9.5 15.7,-2.6 32.2,7 38.9,21.4 6.7,14.4 3.7,32.5 -6.5,44.7 0.1,-0.3 0.1,-0.5 0.2,-0.8"
       fill="none"
       stroke="#000000"
       stroke-linecap="round"
       stroke-linejoin="round"
       stroke-width="4.252" />
    <path
       id="_Trazado_29"
       data-name="&lt;Trazado&gt;"
       d="m 1155.8,198.5 c 9.1,-10.9 25.6,-14 38.7,-8.7 13.1,5.3 22.5,18 25.4,31.9 2.9,13.9 -0.3,28.6 -7.2,41 -2.9,5.3 -7.5,10.9 -13.6,10.8"
       fill="none"
       stroke="#000000"
       stroke-linecap="round"
       stroke-linejoin="round"
       stroke-width="4.252" />
    <path
       id="_Trazado_30"
       data-name="&lt;Trazado&gt;"
       d="m 1202.8,192.7 a 55.635,55.635 0 0 0 21.1,-2"
       fill="none"
       stroke="#000000"
       stroke-linecap="round"
       stroke-linejoin="round"
       stroke-width="4.252" />
    <path
       id="_Trazado_31"
       data-name="&lt;Trazado&gt;"
       d="m 1221.3,248.4 a 89.6,89.6 0 0 0 15.7,-8.1"
       fill="none"
       stroke="#000000"
       stroke-linecap="round"
       stroke-linejoin="round"
       stroke-width="4.252" />
    <path
       id="_Trazado_32"
       data-name="&lt;Trazado&gt;"
       d="m 1235.7,240.6 a 20.135,20.135 0 0 1 15.5,-11.2"
       fill="none"
       stroke="#000000"
       stroke-linecap="round"
       stroke-linejoin="round"
       stroke-width="4.252" />
    <path
       id="_Trazado_33"
       data-name="&lt;Trazado&gt;"
       d="m 1225.4,193.2 a 56.341,56.341 0 0 1 34.5,28.5"
       fill="none"
       stroke="#000000"
       stroke-linecap="round"
       stroke-linejoin="round"
       stroke-width="4.252" />
    <path
       id="_Trazado_34"
       data-name="&lt;Trazado&gt;"
       d="m 1226.7,189.2 a 449.515,449.515 0 0 1 107.5,-1.5"
       fill="none"
       stroke="#000000"
       stroke-linecap="round"
       stroke-linejoin="round"
       stroke-width="4.252" />
    <path
       id="_Trazado_35"
       data-name="&lt;Trazado&gt;"
       d="M 1236.5,238.6 A 857.45,857.45 0 0 1 1360,174.1 c -0.6,-1.9 1,-3.9 3,-4.3 a 5.625,5.625 0 0 1 5.1,2.4 13.429,13.429 0 0 1 2.2,5.4 c 2.9,12.6 1.5,25.7 0.2,38.6 a 16.907,16.907 0 0 1 -1.2,5.4 5.179,5.179 0 0 1 -4.2,3.1 c -1.2,0 -2.4,-0.5 -3.6,-0.6 -2.3,-0.3 -4.5,0.7 -6.6,1.6 -17.2,7.9 -34.3,15.7 -51.5,23.6"
       fill="none"
       stroke="#000000"
       stroke-linecap="round"
       stroke-linejoin="round"
       stroke-width="4.252" />
    <path
       id="_Trazado_36"
       data-name="&lt;Trazado&gt;"
       d="m 1237.3,241.8 c 40.2,-17.4 79.8,-36.4 118.7,-56.7 2.9,-1.5 6,-3.4 6.8,-6.5 a 5.257,5.257 0 0 1 1,-2.8 c 0.8,-0.7 2.4,0.1 1.9,1"
       fill="none"
       stroke="#000000"
       stroke-linecap="round"
       stroke-linejoin="round"
       stroke-width="4.252" />
    <path
       id="_Trazado_37"
       data-name="&lt;Trazado&gt;"
       d="m 1218.8,255.8 a 11.449,11.449 0 0 1 1,14.1"
       fill="none"
       stroke="#000000"
       stroke-linecap="round"
       stroke-linejoin="round"
       stroke-width="4.252" />
    <path
       id="_Trazado_38"
       data-name="&lt;Trazado&gt;"
       d="m 1367.9,172.4 c 50.4,4.5 100.6,11.4 150.3,20.7"
       fill="none"
       stroke="#000000"
       stroke-linecap="round"
       stroke-linejoin="round"
       stroke-width="4.252" />
    <path
       id="_Trazado_39"
       data-name="&lt;Trazado&gt;"
       d="m 1368.2,226.3 c 8.8,0.2 17.6,0.7 26.3,1.5"
       fill="none"
       stroke="#000000"
       stroke-linecap="round"
       stroke-linejoin="round"
       stroke-width="4.252" />
    <path
       id="_Trazado_40"
       data-name="&lt;Trazado&gt;"
       d="m 1202.9,276 q 142.8,-32.55 285.5,-65 c 2.2,-0.5 4.6,-1 6.7,-0.1 2.7,1.1 4,4.3 4.2,7.2 0.2,2.9 -0.4,5.8 -0.3,8.7 a 258.5,258.5 0 0 1 -38.1,14.7 c -30,8.9 -61.3,12.1 -92.2,16.8 -55.3,8.4 -109.8,21.7 -164.1,34.9"
       fill="none"
       stroke="#000000"
       stroke-linecap="round"
       stroke-linejoin="round"
       stroke-width="4.252" />
    <path
       id="_Trazado_41"
       data-name="&lt;Trazado&gt;"
       d="m 1205.1,279.4 a 9.532,9.532 0 0 1 0.7,14.5"
       fill="none"
       stroke="#000000"
       stroke-linecap="round"
       stroke-linejoin="round"
       stroke-width="4.252" />
    <path
       id="_Trazado_42"
       data-name="&lt;Trazado&gt;"
       d="m 1202.9,294.9 c 2.5,3.8 5.1,7.6 7.6,11.4 1.5,2.2 3,5.1 1.7,7.4"
       fill="none"
       stroke="#000000"
       stroke-linecap="round"
       stroke-linejoin="round"
       stroke-width="4.252" />
    <path
       id="_Trazado_43"
       data-name="&lt;Trazado&gt;"
       d="m 1499.4,209.4 c 8.6,6.2 17.2,12.4 25.7,18.7 8.5,6.1 17.2,12.4 27.4,14.7"
       fill="none"
       stroke="#000000"
       stroke-linecap="round"
       stroke-linejoin="round"
       stroke-width="4.252" />
    <path
       id="_Trazado_44"
       data-name="&lt;Trazado&gt;"
       d="m 1502.9,230.8 a 341.013,341.013 0 0 0 34,20.1"
       fill="none"
       stroke="#000000"
       stroke-linecap="round"
       stroke-linejoin="round"
       stroke-width="4.252" />
    <path
       id="_Trazado_45"
       data-name="&lt;Trazado&gt;"
       d="m 1462.7,243.6 a 59.682,59.682 0 0 1 4.4,10.8 21.41,21.41 0 0 1 0.2,11.5 13.1,13.1 0 0 1 -7.4,8.5"
       fill="none"
       stroke="#000000"
       stroke-linecap="round"
       stroke-linejoin="round"
       stroke-width="4.252" />
    <path
       id="_Trazado_46"
       data-name="&lt;Trazado&gt;"
       d="m 1224.7,340 a 1471.225,1471.225 0 0 1 235.5,-68.1"
       fill="none"
       stroke="#000000"
       stroke-linecap="round"
       stroke-linejoin="round"
       stroke-width="4.252" />
    <path
       id="_Trazado_47"
       data-name="&lt;Trazado&gt;"
       d="m 1462.4,245.6 a 1944.692,1944.692 0 0 0 -249.2,62.5"
       fill="none"
       stroke="#000000"
       stroke-linecap="round"
       stroke-linejoin="round"
       stroke-width="4.252" />
    <path
       id="_Trazado_48"
       data-name="&lt;Trazado&gt;"
       d="m 1462.9,242.8 c 28.9,5.9 57.7,11.7 86.6,17.6"
       fill="none"
       stroke="#000000"
       stroke-linecap="round"
       stroke-linejoin="round"
       stroke-width="4.252" />
    <path
       id="_Trazado_49"
       data-name="&lt;Trazado&gt;"
       d="m 1461.9,272.6 a 496.985,496.985 0 0 0 84.9,21.9"
       fill="none"
       stroke="#000000"
       stroke-linecap="round"
       stroke-linejoin="round"
       stroke-width="4.252" />
    <path
       id="_Trazado_50"
       data-name="&lt;Trazado&gt;"
       d="m 1426.8,294.6 c 2.7,5.9 5.4,11.9 6.1,18.3 0.6,6.4 -1.2,13.5 -6.2,17.6"
       fill="none"
       stroke="#000000"
       stroke-linecap="round"
       stroke-linejoin="round"
       stroke-width="4.252" />
    <path
       id="_Trazado_51"
       data-name="&lt;Trazado&gt;"
       d="m 1427.2,294.6 a 6.909,6.909 0 0 0 -5.9,-2.5 24.74,24.74 0 0 0 -6.5,1.6 c -40.5,14.7 -83.5,20.8 -126.1,27.4 -6.9,1.1 -14,2.3 -19.5,6.6"
       fill="none"
       stroke="#000000"
       stroke-linecap="round"
       stroke-linejoin="round"
       stroke-width="4.252" />
    <path
       id="_Trazado_52"
       data-name="&lt;Trazado&gt;"
       d="m 1227.4,370.1 a 997.119,997.119 0 0 1 201.8,-39"
       fill="none"
       stroke="#000000"
       stroke-linecap="round"
       stroke-linejoin="round"
       stroke-width="4.252" />
    <path
       id="_Trazado_53"
       data-name="&lt;Trazado&gt;"
       d="m 1429.2,290.9 a 933.227,933.227 0 0 0 115.2,27.8"
       fill="none"
       stroke="#000000"
       stroke-linecap="round"
       stroke-linejoin="round"
       stroke-width="4.252" />
    <path
       id="_Trazado_54"
       data-name="&lt;Trazado&gt;"
       d="m 1429.1,334.3 56.1,10.2 c 18.4,3.4 37.1,6.8 54.1,14.7 1.6,0.7 3.3,1.5 5,1 2.2,-0.7 3.1,-3.3 3.6,-5.6 1.5,-6.2 2.9,-12.5 2.3,-18.9 -0.6,-6.3 -3.8,-12.8 -9.4,-15.7"
       fill="none"
       stroke="#000000"
       stroke-linecap="round"
       stroke-linejoin="round"
       stroke-width="4.252" />
    <path
       id="_Trazado_55"
       data-name="&lt;Trazado&gt;"
       d="m 1224,371.6 c 1.6,0.2 3.3,0.5 4.9,0.8 6.7,1.2 13.4,2.4 20.1,3.7"
       fill="none"
       stroke="#000000"
       stroke-linecap="round"
       stroke-linejoin="round"
       stroke-width="4.252" />
    <path
       id="_Trazado_56"
       data-name="&lt;Trazado&gt;"
       d="m 1249.3,371 c 0.2,2.8 0.4,5.5 0.6,8.3 a 1023.557,1023.557 0 0 1 158,-31.8 c 6.9,-0.8 14.6,-2 19,-7.4 a 5.754,5.754 0 0 1 2.6,-2.3 c 2.4,-0.6 3.9,2.6 4.3,5.1 1.8,10.7 3.6,21.3 5.4,32 0.2,1.4 0.4,3 -0.5,4.1 -0.9,1.1 -3.2,0.8 -3.2,-0.6 -7.2,2.9 -15,4.1 -22.6,5.2 q -80.85,12 -161.8,23.9 c 0.1,1.9 0.1,3.8 0.2,5.7 q 96,-13.05 191.3,-30.1"
       fill="none"
       stroke="#000000"
       stroke-linecap="round"
       stroke-linejoin="round"
       stroke-width="4.252" />
    <path
       id="_Trazado_57"
       data-name="&lt;Trazado&gt;"
       d="m 1251.1,370.9 a 1376.245,1376.245 0 0 1 179,-33.5"
       fill="none"
       stroke="#000000"
       stroke-linecap="round"
       stroke-linejoin="round"
       stroke-width="4.252" />
    <path
       id="_Trazado_58"
       data-name="&lt;Trazado&gt;"
       d="m 1440.8,385.2 a 33.548,33.548 0 0 1 21.4,-4.9 10.849,10.849 0 0 0 5.3,1.5"
       fill="none"
       stroke="#000000"
       stroke-linecap="round"
       stroke-linejoin="round"
       stroke-width="4.252" />
    <path
       id="_Trazado_59"
       data-name="&lt;Trazado&gt;"
       d="m 1466.6,382 c 27.3,5.4 54.6,10.9 81.9,16.3"
       fill="none"
       stroke="#000000"
       stroke-linecap="round"
       stroke-linejoin="round"
       stroke-width="4.252" />
    <path
       id="_Trazado_60"
       data-name="&lt;Trazado&gt;"
       d="m 1502.7,358.3 a 31.124,31.124 0 0 1 5.1,21.8"
       fill="none"
       stroke="#000000"
       stroke-linecap="round"
       stroke-linejoin="round"
       stroke-width="4.252" />
    <path
       id="_Trazado_61"
       data-name="&lt;Trazado&gt;"
       d="m 1467.8,374.6 a 1.151,1.151 0 0 1 -1.7,-0.1 21.562,21.562 0 0 0 -1.4,-24.5"
       fill="none"
       stroke="#000000"
       stroke-linecap="round"
       stroke-linejoin="round"
       stroke-width="4.252" />
    <path
       id="_Trazado_62"
       data-name="&lt;Trazado&gt;"
       d="m 1251.9,412.1 c -7.4,1.2 -14.9,2.5 -22.3,3.7 a 7.157,7.157 0 0 0 -2.9,1 2.419,2.419 0 0 0 -0.9,2.7 c 0.6,1.2 2.3,1.2 3.7,1 10,-1.5 20,-3 30.1,-4.4"
       fill="none"
       stroke="#000000"
       stroke-linecap="round"
       stroke-linejoin="round"
       stroke-width="4.252" />
    <path
       id="_Trazado_63"
       data-name="&lt;Trazado&gt;"
       d="m 1234.6,421.2 a 6.845,6.845 0 0 1 1,9.3"
       fill="none"
       stroke="#000000"
       stroke-linecap="round"
       stroke-linejoin="round"
       stroke-width="4.252" />
    <path
       id="_Trazado_64"
       data-name="&lt;Trazado&gt;"
       d="m 1229.6,429.6 c -2.6,0.6 -2.4,4.8 -0.1,6.2 2.3,1.4 5.1,0.9 7.7,0.3 q 53.1,-11.7 106.2,-23.5 c 37.8,-8.4 76,-16.8 114.8,-16.8"
       fill="none"
       stroke="#000000"
       stroke-linecap="round"
       stroke-linejoin="round"
       stroke-width="4.252" />
    <path
       id="_Trazado_65"
       data-name="&lt;Trazado&gt;"
       d="m 1457.6,396.7 a 2.292,2.292 0 0 0 1.5,2.4 2.234,2.234 0 0 0 2.6,-1 4.2,4.2 0 0 0 0,-3.3 c -0.7,-2.9 -1.5,-5.8 -2.2,-8.7"
       fill="none"
       stroke="#000000"
       stroke-linecap="round"
       stroke-linejoin="round"
       stroke-width="4.252" />
    <path
       id="_Trazado_66"
       data-name="&lt;Trazado&gt;"
       d="m 1460.7,398.3 c 14.6,3.1 29.3,6.2 43.9,9.3"
       fill="none"
       stroke="#000000"
       stroke-linecap="round"
       stroke-linejoin="round"
       stroke-width="4.252" />
    <path
       id="_Trazado_67"
       data-name="&lt;Trazado&gt;"
       d="m 1263.5,436.7 a 5.337,5.337 0 0 1 3.6,6.1"
       fill="none"
       stroke="#000000"
       stroke-linecap="round"
       stroke-linejoin="round"
       stroke-width="4.252" />
    <path
       id="_Trazado_68"
       data-name="&lt;Trazado&gt;"
       d="m 1263.5,435.5 q 94.65,-20.25 190.8,-32.8"
       fill="none"
       stroke="#000000"
       stroke-linecap="round"
       stroke-linejoin="round"
       stroke-width="4.252" />
    <path
       id="_Trazado_69"
       data-name="&lt;Trazado&gt;"
       d="m 1447.6,409 a 6.038,6.038 0 0 1 -0.6,-2.2 2.036,2.036 0 0 1 1.1,-1.9 2.154,2.154 0 0 1 2.5,1.2 6.065,6.065 0 0 1 0.3,3 c -0.2,3.1 -0.3,6.2 -0.5,9.2 -0.1,1.7 -0.4,3.8 -2,4.3 a 4.858,4.858 0 0 1 -2.9,-0.3 18.332,18.332 0 0 0 -8.4,-0.4"
       fill="none"
       stroke="#000000"
       stroke-linecap="round"
       stroke-linejoin="round"
       stroke-width="4.252" />
    <path
       id="_Trazado_70"
       data-name="&lt;Trazado&gt;"
       d="m 1447.2,425.8 c 35.3,-5.7 70.9,8.1 106.6,6.8"
       fill="none"
       stroke="#000000"
       stroke-linecap="round"
       stroke-linejoin="round"
       stroke-width="4.252" />
    <path
       id="_Trazado_71"
       data-name="&lt;Trazado&gt;"
       d="m 1456.6,403.1 c 27.3,3.4 54.5,6.8 81.8,10.2"
       fill="none"
       stroke="#000000"
       stroke-linecap="round"
       stroke-linejoin="round"
       stroke-width="4.252" />
    <path
       id="_Trazado_72"
       data-name="&lt;Trazado&gt;"
       d="m 1393.4,420.8 c -0.8,-1.6 0.6,-3.7 2.4,-4 1.8,-0.3 3.5,0.9 4.6,2.3 a 14.771,14.771 0 0 1 1.8,5.1 c 3.3,15 6.4,30.3 5.5,45.7 -0.2,3.2 -0.7,6.7 -2.8,9.1 -2.1,2.4 -6.5,3.1 -8.5,0.6"
       fill="none"
       stroke="#000000"
       stroke-linecap="round"
       stroke-linejoin="round"
       stroke-width="4.252" />
    <path
       id="_Trazado_73"
       data-name="&lt;Trazado&gt;"
       d="m 1159.7,463.1 q 82.35,-10.05 164.5,-22.4 c 22.6,-3.4 45.6,-7 66.2,-17 q -115.5,20.1 -231.1,40.2 c 0.1,0.7 0.3,1.5 0.4,2.2"
       fill="none"
       stroke="#000000"
       stroke-linecap="round"
       stroke-linejoin="round"
       stroke-width="4.252" />
    <path
       id="_Trazado_74"
       data-name="&lt;Trazado&gt;"
       d="m 1168.8,465.1 c 3.2,5.9 6.4,11.9 7.9,18.4 1.5,6.5 0.9,13.8 -3,19.2"
       fill="none"
       stroke="#000000"
       stroke-linecap="round"
       stroke-linejoin="round"
       stroke-width="4.252" />
    <path
       id="_Trazado_75"
       data-name="&lt;Trazado&gt;"
       d="m 1164.7,505.7 q 116.85,-17.55 234.7,-28.2 h -2.8"
       fill="none"
       stroke="#000000"
       stroke-linecap="round"
       stroke-linejoin="round"
       stroke-width="4.252" />
    <path
       id="_Trazado_76"
       data-name="&lt;Trazado&gt;"
       d="m 1165.4,505.7 c -2.6,-0.8 -3.9,3.7 -1.9,5.5 2,1.8 5,1.4 7.7,0.9 q 113.4,-21 228.5,-30.7"
       fill="none"
       stroke="#000000"
       stroke-linecap="round"
       stroke-linejoin="round"
       stroke-width="4.252" />
    <path
       id="_Trazado_77"
       data-name="&lt;Trazado&gt;"
       d="m 1401.7,485 145.2,6.3 c -0.6,0 -1.2,0.1 -1.8,0.1"
       fill="none"
       stroke="#000000"
       stroke-linecap="round"
       stroke-linejoin="round"
       stroke-width="4.252" />
    <path
       id="_Trazado_78"
       data-name="&lt;Trazado&gt;"
       d="m 1397.7,418 q 77.55,12.9 156.1,19.3"
       fill="none"
       stroke="#000000"
       stroke-linecap="round"
       stroke-linejoin="round"
       stroke-width="4.252" />
    <path
       id="_Trazado_79"
       data-name="&lt;Trazado&gt;"
       d="m 1173.1,513 c -0.6,0 -0.8,1 -0.4,1.4 a 2.114,2.114 0 0 0 1.7,0.6 247.188,247.188 0 0 0 36.5,0.7"
       fill="none"
       stroke="#000000"
       stroke-linecap="round"
       stroke-linejoin="round"
       stroke-width="4.252" />
    <path
       id="_Trazado_80"
       data-name="&lt;Trazado&gt;"
       d="m 1217.1,512 a 3.775,3.775 0 0 0 -4.2,4.4 c 2.1,-0.7 4.4,-1.3 6.4,-0.5 2,0.8 3.3,3.8 1.6,5.2 -1,0.9 -2.4,0.8 -3.6,1.3 -1.2,0.5 -2.1,2.3 -1,3 15.5,0.1 31,-1.4 46.4,-2.9 q 55.95,-5.55 111.8,-11.1 c 1.3,0.8 3.2,0.1 4.1,-1.2 a 9.817,9.817 0 0 0 1.3,-4.5 82.487,82.487 0 0 0 0.4,-8.6 c 0,-3.1 -0.4,-6.6 -2.9,-8.4 -2.1,-1.5 -4.9,-1.2 -7.5,-0.8 q -77.7,11.25 -155.5,22.4"
       fill="none"
       stroke="#000000"
       stroke-linecap="round"
       stroke-linejoin="round"
       stroke-width="4.252" />
    <path
       id="_Trazado_81"
       data-name="&lt;Trazado&gt;"
       d="m 1217.5,517.2 q 66.15,-8.7 131.9,-20.1"
       fill="none"
       stroke="#000000"
       stroke-linecap="round"
       stroke-linejoin="round"
       stroke-width="4.252" />
    <path
       id="_Trazado_82"
       data-name="&lt;Trazado&gt;"
       d="m 1219.5,522.6 c 52.3,-1.4 104.1,-10.5 155.6,-19.5 0.2,0.7 0.4,1.5 0.6,2.2 -0.3,-2 0.5,-3.9 1.1,-5.8 0.6,-1.9 0.9,-4.1 -0.2,-5.8 -1.1,-1.7 -4.1,-2 -4.9,-0.1 a 147.763,147.763 0 0 0 -22.8,4.3"
       fill="none"
       stroke="#000000"
       stroke-linecap="round"
       stroke-linejoin="round"
       stroke-width="4.252" />
    <path
       id="_Trazado_83"
       data-name="&lt;Trazado&gt;"
       d="m 1381.2,488.5 c 12.9,-0.5 25.7,-0.9 38.6,-1.4"
       fill="none"
       stroke="#000000"
       stroke-linecap="round"
       stroke-linejoin="round"
       stroke-width="4.252" />
    <path
       id="_Trazado_84"
       data-name="&lt;Trazado&gt;"
       d="m 1380.7,510.1 c 42,-3.4 84.1,-2.1 126.2,-0.7 17.6,0.6 35.3,1.1 52.9,1.7"
       fill="none"
       stroke="#000000"
       stroke-linecap="round"
       stroke-linejoin="round"
       stroke-width="4.252" />
    <path
       id="_Trazado_85"
       data-name="&lt;Trazado&gt;"
       d="m 1390.9,518.7 c -1.2,-2.5 1.6,-5.4 4.3,-5.4 2.7,0 5.1,1.9 7,4 a 41.189,41.189 0 0 1 10.6,22.9 14.144,14.144 0 0 1 -0.5,6.8 6.627,6.627 0 0 1 -5,4.3 c -2.3,0.3 -4.8,-1.5 -4.7,-3.8 -14.3,0 -28.6,0.1 -42.9,0.4"
       fill="none"
       stroke="#000000"
       stroke-linecap="round"
       stroke-linejoin="round"
       stroke-width="4.252" />
    <path
       id="_Trazado_86"
       data-name="&lt;Trazado&gt;"
       d="m 1255,538.2 a 12.574,12.574 0 0 1 2,14.5"
       fill="none"
       stroke="#000000"
       stroke-linecap="round"
       stroke-linejoin="round"
       stroke-width="4.252" />
    <path
       id="_Trazado_87"
       data-name="&lt;Trazado&gt;"
       d="m 1253.3,533.8 c -0.5,-0.9 -2.2,-0.4 -2.3,0.7 a 2.251,2.251 0 0 0 2,2.2 7.168,7.168 0 0 0 3.2,-0.5 403.674,403.674 0 0 1 138.4,-19.8"
       fill="none"
       stroke="#000000"
       stroke-linecap="round"
       stroke-linejoin="round"
       stroke-width="4.252" />
    <path
       id="_Trazado_88"
       data-name="&lt;Trazado&gt;"
       d="m 1254.9,531.2 a 918.605,918.605 0 0 1 139.2,-18.8"
       fill="none"
       stroke="#000000"
       stroke-linecap="round"
       stroke-linejoin="round"
       stroke-width="4.252" />
    <path
       id="_Trazado_89"
       data-name="&lt;Trazado&gt;"
       d="m 1397.2,511.6 c 34.4,0.3 68.8,0.5 103.2,0.8"
       fill="none"
       stroke="#000000"
       stroke-linecap="round"
       stroke-linejoin="round"
       stroke-width="4.252" />
    <path
       id="_Trazado_90"
       data-name="&lt;Trazado&gt;"
       d="m 1408.7,548.5 q 55.8,-0.15 111.7,-0.2"
       fill="none"
       stroke="#000000"
       stroke-linecap="round"
       stroke-linejoin="round"
       stroke-width="4.252" />
    <path
       id="_Trazado_91"
       data-name="&lt;Trazado&gt;"
       d="m 1152.3,573.7 a 16.659,16.659 0 0 1 1.7,8.5"
       fill="none"
       stroke="#000000"
       stroke-linecap="round"
       stroke-linejoin="round"
       stroke-width="4.252" />
    <path
       id="_Trazado_92"
       data-name="&lt;Trazado&gt;"
       d="m 1336.8,553.2 c 1.2,-1.7 2.5,-3.5 3.7,-5.2 0.5,-0.7 1.2,-1.5 2.1,-1.3 0.8,0.2 1,1.2 1.1,2.1 a 76.988,76.988 0 0 1 0,17.3 6.027,6.027 0 0 1 -0.6,2.3 2.348,2.348 0 0 1 -1.9,1.3 1.3,1.3 0 0 1 -1.3,-1.6 l -2.7,0.3"
       fill="none"
       stroke="#000000"
       stroke-linecap="round"
       stroke-linejoin="round"
       stroke-width="4.252" />
    <path
       id="_Trazado_93"
       data-name="&lt;Trazado&gt;"
       d="m 1144.3,583.6 q 95.4,-10.95 191.4,-14.8"
       fill="none"
       stroke="#000000"
       stroke-linecap="round"
       stroke-linejoin="round"
       stroke-width="4.252" />
    <path
       id="_Trazado_94"
       data-name="&lt;Trazado&gt;"
       d="m 1144.4,588.4 q 26.7,-1.35 53.4,-4.8 c 21.9,-2.8 43.7,-6.6 65.6,-8.6 36.6,-3.4 73.5,-1.6 110.2,0.1"
       fill="none"
       stroke="#000000"
       stroke-linecap="round"
       stroke-linejoin="round"
       stroke-width="4.252" />
    <path
       id="_Trazado_95"
       data-name="&lt;Trazado&gt;"
       d="m 1377.8,573.5 c 46.5,-4.1 93.2,-0.2 139.7,3.8 9.5,0.8 19.1,1.6 28.6,2.5"
       fill="none"
       stroke="#000000"
       stroke-linecap="round"
       stroke-linejoin="round"
       stroke-width="4.252" />
    <path
       id="_Trazado_96"
       data-name="&lt;Trazado&gt;"
       d="m 1152.6,570.8 a 6.636,6.636 0 0 1 -7.5,-0.4 753.317,753.317 0 0 1 177.7,-17.6 c 4.7,0.1 9.9,0.1 13.5,-2.9 1.8,-1.5 3.2,-3.8 5.4,-4.5 2.3,-0.7 5.3,1.9 3.7,3.7 a 18.64,18.64 0 0 0 2,-1"
       fill="none"
       stroke="#000000"
       stroke-linecap="round"
       stroke-linejoin="round"
       stroke-width="4.252" />
    <path
       id="_Trazado_97"
       data-name="&lt;Trazado&gt;"
       d="m 1154.9,571 q 91.8,-11.25 184.4,-16.4"
       fill="none"
       stroke="#000000"
       stroke-linecap="round"
       stroke-linejoin="round"
       stroke-width="4.252" />
    <path
       id="_Trazado_98"
       data-name="&lt;Trazado&gt;"
       d="m 1147.2,589.7 c 18,-1.5 35.9,-3 54,-3.1 19.4,-0.2 38.8,1.2 58.2,-0.6 a 8.889,8.889 0 0 1 2.7,11 c -0.5,-0.1 -1,-0.3 -1.5,-0.4"
       fill="none"
       stroke="#000000"
       stroke-linecap="round"
       stroke-linejoin="round"
       stroke-width="4.252" />
    <path
       id="_Trazado_99"
       data-name="&lt;Trazado&gt;"
       d="m 1258,583.1 c -0.1,0.8 -0.3,1.6 -0.4,2.3 a 2.759,2.759 0 0 1 -0.6,-3.5 2.854,2.854 0 0 1 3.4,-1.1 2.2,2.2 0 0 1 -0.8,-0.1"
       fill="none"
       stroke="#000000"
       stroke-linecap="round"
       stroke-linejoin="round"
       stroke-width="4.252" />
    <path
       id="_Trazado_100"
       data-name="&lt;Trazado&gt;"
       d="m 1260.2,598.5 a 2.2,2.2 0 0 0 -1.6,3"
       fill="none"
       stroke="#000000"
       stroke-linecap="round"
       stroke-linejoin="round"
       stroke-width="4.252" />
    <path
       id="_Trazado_101"
       data-name="&lt;Trazado&gt;"
       d="m 1265.4,597.7 a 1061.672,1061.672 0 0 0 143.8,0.5 c 2.4,-0.2 4.9,-0.3 7.1,-1.3"
       fill="none"
       stroke="#000000"
       stroke-linecap="round"
       stroke-linejoin="round"
       stroke-width="4.252" />
    <path
       id="_Trazado_102"
       data-name="&lt;Trazado&gt;"
       d="m 1415.3,577.7 a 12.48,12.48 0 0 1 0.3,9.3 12.9,12.9 0 0 1 -6.3,6.9"
       fill="none"
       stroke="#000000"
       stroke-linecap="round"
       stroke-linejoin="round"
       stroke-width="4.252" />
    <path
       id="_Trazado_103"
       data-name="&lt;Trazado&gt;"
       d="m 1258.7,582.8 q 76.05,-3.3 152,-6.6 a 4.246,4.246 0 0 1 2.7,0.5 1.482,1.482 0 0 1 0.3,2.3"
       fill="none"
       stroke="#000000"
       stroke-linecap="round"
       stroke-linejoin="round"
       stroke-width="4.252" />
    <path
       id="_Trazado_104"
       data-name="&lt;Trazado&gt;"
       d="m 1412.6,577.2 a 712.089,712.089 0 0 1 80,2.7"
       fill="none"
       stroke="#000000"
       stroke-linecap="round"
       stroke-linejoin="round"
       stroke-width="4.252" />
    <path
       id="_Trazado_105"
       data-name="&lt;Trazado&gt;"
       d="m 1410.8,596.6 c 24,0.1 48.1,0.2 72.1,0.4"
       fill="none"
       stroke="#000000"
       stroke-linecap="round"
       stroke-linejoin="round"
       stroke-width="4.252" />
    <path
       id="_Trazado_106"
       data-name="&lt;Trazado&gt;"
       d="m 1478.5,597.7 a 25.024,25.024 0 0 1 -4.5,26"
       fill="none"
       stroke="#000000"
       stroke-linecap="round"
       stroke-linejoin="round"
       stroke-width="4.252" />
    <path
       id="_Trazado_107"
       data-name="&lt;Trazado&gt;"
       d="m 1208.2,607.4 c 5.4,2.6 8.2,9 8,15 -0.2,6 -2.9,11.6 -6,16.7"
       fill="none"
       stroke="#000000"
       stroke-linecap="round"
       stroke-linejoin="round"
       stroke-width="4.252" />
    <path
       id="_Trazado_108"
       data-name="&lt;Trazado&gt;"
       d="m 1244.8,633.6 c -15.7,2 -29.9,13.3 -35.6,28.1"
       fill="none"
       stroke="#000000"
       stroke-linecap="round"
       stroke-linejoin="round"
       stroke-width="4.252" />
    <path
       id="_Trazado_109"
       data-name="&lt;Trazado&gt;"
       d="m 1209.9,637.3 a 6.055,6.055 0 0 1 3.5,6.1"
       fill="none"
       stroke="#000000"
       stroke-linecap="round"
       stroke-linejoin="round"
       stroke-width="4.252" />
    <path
       id="_Trazado_110"
       data-name="&lt;Trazado&gt;"
       d="m 1247.4,631.5 c 69.9,-7.2 140.4,0.9 210.7,-1.2 5.8,-0.2 12.5,-0.8 15.8,-5.6"
       fill="none"
       stroke="#000000"
       stroke-linecap="round"
       stroke-linejoin="round"
       stroke-width="4.252" />
    <path
       id="_Trazado_111"
       data-name="&lt;Trazado&gt;"
       d="m 1481.7,627.6 c 10.5,-0.8 21.1,-1.2 31.7,-1"
       fill="none"
       stroke="#000000"
       stroke-linecap="round"
       stroke-linejoin="round"
       stroke-width="4.252" />
    <path
       id="_Trazado_112"
       data-name="&lt;Trazado&gt;"
       d="m 1483.8,597.4 c 7.8,0 15.7,-0.1 23.5,-0.1"
       fill="none"
       stroke="#000000"
       stroke-linecap="round"
       stroke-linejoin="round"
       stroke-width="4.252" />
    <path
       id="_Trazado_113"
       data-name="&lt;Trazado&gt;"
       d="m 1210.1,604.5 c -0.1,0.2 -0.4,0.1 -0.5,-0.1 a 0.271,0.271 0 0 1 0.4,-0.2"
       fill="none"
       stroke="#000000"
       stroke-linecap="round"
       stroke-linejoin="round"
       stroke-width="4.252" />
    <path
       id="_Trazado_114"
       data-name="&lt;Trazado&gt;"
       d="m 1261.4,605.8 c -19.3,0.4 -38.6,0.9 -57.9,1.3 -1.1,-1.6 -0.2,-4.1 1.5,-5.2 1.7,-1.1 3.8,-1.2 5.8,-1.3 q 43.8,-2.25 87.8,-2.6"
       fill="none"
       stroke="#000000"
       stroke-linecap="round"
       stroke-linejoin="round"
       stroke-width="4.252" />
    <path
       id="_Trazado_115"
       data-name="&lt;Trazado&gt;"
       d="m 1482.7,631.7 c 2.2,5 4.2,10.3 4,15.7 -0.2,5.4 -3,11.1 -8,13.3"
       fill="none"
       stroke="#000000"
       stroke-linecap="round"
       stroke-linejoin="round"
       stroke-width="4.252" />
    <path
       id="_Trazado_116"
       data-name="&lt;Trazado&gt;"
       d="m 1265.9,640.8 a 9.771,9.771 0 0 1 6.4,15.1"
       fill="none"
       stroke="#000000"
       stroke-linecap="round"
       stroke-linejoin="round"
       stroke-width="4.252" />
    <path
       id="_Trazado_117"
       data-name="&lt;Trazado&gt;"
       d="m 1275.8,634.9 c -5.6,0.5 -11.3,0.9 -16.9,1.4 a 3.858,3.858 0 0 1 -2.8,-0.5 1.974,1.974 0 0 1 -0.6,-1.2 3.148,3.148 0 0 1 3.8,-3.4"
       fill="none"
       stroke="#000000"
       stroke-linecap="round"
       stroke-linejoin="round"
       stroke-width="4.252" />
    <path
       id="_Trazado_118"
       data-name="&lt;Trazado&gt;"
       d="m 1278,657.6 c -5.3,-3 -12.9,-0.5 -15.4,5 a 706.426,706.426 0 0 0 79.7,-2"
       fill="none"
       stroke="#000000"
       stroke-linecap="round"
       stroke-linejoin="round"
       stroke-width="4.252" />
    <path
       id="_Trazado_119"
       data-name="&lt;Trazado&gt;"
       d="m 1275.9,659 a 607,607 0 0 1 88.4,-3.7"
       fill="none"
       stroke="#000000"
       stroke-linecap="round"
       stroke-linejoin="round"
       stroke-width="4.252" />
    <path
       id="_Trazado_120"
       data-name="&lt;Trazado&gt;"
       d="m 1472.4,660.1 a 5.363,5.363 0 0 0 3.9,3.8 5.614,5.614 0 0 0 5.2,-1.7 3.626,3.626 0 0 0 0.9,-3 2.26,2.26 0 0 0 -2.3,-1.9"
       fill="none"
       stroke="#000000"
       stroke-linecap="round"
       stroke-linejoin="round"
       stroke-width="4.252" />
    <path
       id="_Trazado_121"
       data-name="&lt;Trazado&gt;"
       d="m 1479.3,665.5 c 22.3,-0.2 44.7,-0.4 67,-0.7"
       fill="none"
       stroke="#000000"
       stroke-linecap="round"
       stroke-linejoin="round"
       stroke-width="4.252" />
    <path
       id="_Trazado_122"
       data-name="&lt;Trazado&gt;"
       d="m 1524.8,627.2 4.8,-0.3"
       fill="none"
       stroke="#000000"
       stroke-linecap="round"
       stroke-linejoin="round"
       stroke-width="4.252" />
    <path
       id="_Trazado_123"
       data-name="&lt;Trazado&gt;"
       d="m 1496.8,646.8 0.9,6.3"
       fill="none"
       stroke="#000000"
       stroke-linecap="round"
       stroke-linejoin="round"
       stroke-width="4.252" />
    <path
       id="_Trazado_124"
       data-name="&lt;Trazado&gt;"
       d="m 1500.4,630.4 a 20.119,20.119 0 0 1 11,14.9 19.879,19.879 0 0 1 -6.2,17.5"
       fill="none"
       stroke="#000000"
       stroke-linecap="round"
       stroke-linejoin="round"
       stroke-width="4.252" />
    <path
       id="_Trazado_125"
       data-name="&lt;Trazado&gt;"
       d="m 1517.8,630.9 a 18.348,18.348 0 0 1 6.7,10.1 18.685,18.685 0 0 1 -1.1,12.1"
       fill="none"
       stroke="#000000"
       stroke-linecap="round"
       stroke-linejoin="round"
       stroke-width="4.252" />
    <path
       id="_Trazado_126"
       data-name="&lt;Trazado&gt;"
       d="m 1174,665.4 c -2,-1.3 -4.3,2.3 -2.9,4.3 1.4,2 4.2,2.2 6.6,2.3 89.6,2.7 179.6,-10.4 268.8,-0.9 0.7,-1.6 1.3,-3.2 2,-4.9 a 94.754,94.754 0 0 1 -2,37.1 c -1.5,-0.2 -3.1,-0.4 -4.6,-0.6 l -264.6,1.5 a 5.518,5.518 0 0 0 -3.4,0.7 c -1,0.7 -1.3,2.3 -0.4,3 69.3,6.2 139.1,4.5 208.6,2.9 l 49.6,-1.2 c 7.5,-0.2 15.5,-0.5 21.5,-5.1 5.9,-4.6 7.7,-15 1.4,-19.1"
       fill="none"
       stroke="#000000"
       stroke-linecap="round"
       stroke-linejoin="round"
       stroke-width="4.252" />
    <path
       id="_Trazado_127"
       data-name="&lt;Trazado&gt;"
       d="m 1459.1,704.4 c 27.3,-1 54.5,-1.9 81.8,-2.9"
       fill="none"
       stroke="#000000"
       stroke-linecap="round"
       stroke-linejoin="round"
       stroke-width="4.252" />
    <path
       id="_Trazado_128"
       data-name="&lt;Trazado&gt;"
       d="m 1450.9,666.7 a 249.715,249.715 0 0 1 28.7,-1.6"
       fill="none"
       stroke="#000000"
       stroke-linecap="round"
       stroke-linejoin="round"
       stroke-width="4.252" />
    <path
       id="_Trazado_129"
       data-name="&lt;Trazado&gt;"
       d="m 1178.4,665.7 q 48.3,-3.3 96.6,-3.3"
       fill="none"
       stroke="#000000"
       stroke-linecap="round"
       stroke-linejoin="round"
       stroke-width="4.252" />
    <path
       id="_Trazado_130"
       data-name="&lt;Trazado&gt;"
       d="m 1211.4,712.8 c -0.1,1 -0.2,2 -0.3,2.9 53,2.2 106.2,4.5 159.1,1.2 30.4,-1.9 60.9,-5.5 91.2,-2.2 9.9,1.1 20.2,2.9 29.8,0.1 -0.6,14.1 -1.2,28.3 -1.8,42.4 -1.1,-0.9 -2.3,-1.8 -3.4,-2.8 -14.9,0.2 -29.9,0.3 -44.8,0.5 -25.5,0.3 -51,0.5 -76.4,-1 -51.8,-3.1 -104.2,-13.5 -155.1,-3.2 q 133.5,9.3 267.3,12.7 c 4.1,0.1 8.5,0.2 12.2,-1.8 6.9,-3.7 8.6,-12.7 9.4,-20.5 0.6,-5.4 1.2,-10.9 0.2,-16.2 -1,-5.3 -3.8,-10.6 -8.5,-13.3 -5.4,-3.1 -12.1,-2.3 -18.2,-1.4"
       fill="none"
       stroke="#000000"
       stroke-linecap="round"
       stroke-linejoin="round"
       stroke-width="4.252" />
    <path
       id="_Trazado_131"
       data-name="&lt;Trazado&gt;"
       d="m 1490.7,759.9 56.1,-9.9"
       fill="none"
       stroke="#000000"
       stroke-linecap="round"
       stroke-linejoin="round"
       stroke-width="4.252" />
    <path
       id="_Trazado_132"
       data-name="&lt;Trazado&gt;"
       d="m 1509.5,727.3 a 22.769,22.769 0 0 1 4.5,16.3"
       fill="none"
       stroke="#000000"
       stroke-linecap="round"
       stroke-linejoin="round"
       stroke-width="4.252" />
    <path
       id="_Trazado_133"
       data-name="&lt;Trazado&gt;"
       d="m 1520,724.6 a 19.406,19.406 0 0 1 5.8,17.2"
       fill="none"
       stroke="#000000"
       stroke-linecap="round"
       stroke-linejoin="round"
       stroke-width="4.252" />
    <path
       id="_Trazado_134"
       data-name="&lt;Trazado&gt;"
       d="m 1534.4,724.7 a 16.349,16.349 0 0 1 1.5,16.9"
       fill="none"
       stroke="#000000"
       stroke-linecap="round"
       stroke-linejoin="round"
       stroke-width="4.252" />
    <path
       id="_Trazado_135"
       data-name="&lt;Trazado&gt;"
       d="m 1214.4,718.9 a 1.656,1.656 0 0 1 -0.5,-1.2 18.668,18.668 0 0 1 7.5,19.3"
       fill="none"
       stroke="#000000"
       stroke-linecap="round"
       stroke-linejoin="round"
       stroke-width="4.252" />
    <path
       id="_Trazado_136"
       data-name="&lt;Trazado&gt;"
       d="m 1259,757.3 c -1.1,0.3 -1.1,1.9 -0.3,2.6 a 3.718,3.718 0 0 0 3.1,0.4 8.808,8.808 0 0 1 3.2,-0.4"
       fill="none"
       stroke="#000000"
       stroke-linecap="round"
       stroke-linejoin="round"
       stroke-width="4.252" />
    <path
       id="_Trazado_137"
       data-name="&lt;Trazado&gt;"
       d="m 1263.4,763.9 a 19.889,19.889 0 0 1 5.8,19.8"
       fill="none"
       stroke="#000000"
       stroke-linecap="round"
       stroke-linejoin="round"
       stroke-width="4.252" />
    <path
       id="_Trazado_138"
       data-name="&lt;Trazado&gt;"
       d="m 1272,785.6 -15,2.1 c 2.2,3.9 7.6,4.2 12.1,4.1 q 100.2,-3 200.3,-5.9 c 8.3,-0.2 17.5,-0.2 23.7,5.2 1.2,1 2.6,2.3 4.1,1.7 1.7,-0.7 1.5,-3.1 1,-4.8 a 103.581,103.581 0 0 0 -9,-22.1"
       fill="none"
       stroke="#000000"
       stroke-linecap="round"
       stroke-linejoin="round"
       stroke-width="4.252" />
    <path
       id="_Trazado_139"
       data-name="&lt;Trazado&gt;"
       d="m 1499.4,795.8 c 14.9,-4.8 29.9,-9.1 45.1,-12.6"
       fill="none"
       stroke="#000000"
       stroke-linecap="round"
       stroke-linejoin="round"
       stroke-width="4.252" />
    <path
       id="_Trazado_140"
       data-name="&lt;Trazado&gt;"
       d="m 1504.9,776.8 a 93.883,93.883 0 0 0 17.5,-8.4"
       fill="none"
       stroke="#000000"
       stroke-linecap="round"
       stroke-linejoin="round"
       stroke-width="4.252" />
    <path
       id="_Trazado_141"
       data-name="&lt;Trazado&gt;"
       d="m 1521.5,756.6 a 9.25,9.25 0 0 1 8.1,3.7 13.109,13.109 0 0 1 2.4,8.8 25.2,25.2 0 0 1 -2.5,8.9"
       fill="none"
       stroke="#000000"
       stroke-linecap="round"
       stroke-linejoin="round"
       stroke-width="4.252" />
    <path
       id="_Trazado_142"
       data-name="&lt;Trazado&gt;"
       d="m 1531.8,754.8 a 29.425,29.425 0 0 1 7.5,23.9"
       fill="none"
       stroke="#000000"
       stroke-linecap="round"
       stroke-linejoin="round"
       stroke-width="4.252" />
    <path
       id="_Trazado_143"
       data-name="&lt;Trazado&gt;"
       d="m 1270.7,762.6 a 131.411,131.411 0 0 1 27.9,-4.8"
       fill="none"
       stroke="#000000"
       stroke-linecap="round"
       stroke-linejoin="round"
       stroke-width="4.252" />
    <path
       id="_Trazado_144"
       data-name="&lt;Trazado&gt;"
       d="m 1256,789.8 c -2.3,0.9 -4.9,0.5 -7.3,0.2 -2.4,-0.4 -5,-0.8 -7.4,-0.1 -2.4,0.7 -4.5,2.9 -4.2,5.4"
       fill="none"
       stroke="#000000"
       stroke-linecap="round"
       stroke-linejoin="round"
       stroke-width="4.252" />
    <path
       id="_Trazado_145"
       data-name="&lt;Trazado&gt;"
       d="m 1009.6,766.6 c -8.7,-7.9 -8.7,-22.5 -2.2,-32.3 6.5,-9.8 17.8,-15.4 29.3,-17.9 24.9,-5.4 50.6,1.7 75.9,4.8 31.3,3.9 63.5,1.6 93.9,9.7"
       fill="none"
       stroke="#000000"
       stroke-linecap="round"
       stroke-linejoin="round"
       stroke-width="4.252" />
    <path
       id="_Trazado_146"
       data-name="&lt;Trazado&gt;"
       d="m 1169.5,762.1 a 34.125,34.125 0 0 1 15.8,-14.7 34.487,34.487 0 0 1 21.5,-2.1"
       fill="none"
       stroke="#000000"
       stroke-linecap="round"
       stroke-linejoin="round"
       stroke-width="4.252" />
    <path
       id="_Trazado_147"
       data-name="&lt;Trazado&gt;"
       d="m 1177,761.5 a 41.109,41.109 0 0 1 29.2,-9.9"
       fill="none"
       stroke="#000000"
       stroke-linecap="round"
       stroke-linejoin="round"
       stroke-width="4.252" />
    <path
       id="_Trazado_148"
       data-name="&lt;Trazado&gt;"
       d="M 1158.7,765.4 A 44.8,44.8 0 0 1 1193.2,735"
       fill="none"
       stroke="#000000"
       stroke-linecap="round"
       stroke-linejoin="round"
       stroke-width="4.252" />
    <path
       id="_Trazado_149"
       data-name="&lt;Trazado&gt;"
       d="m 1160.4,800.7 a 8.344,8.344 0 0 0 -0.8,1.2 c -2.1,-6.6 -4.1,-13.4 -4.6,-20.3 -0.5,-6.9 0.7,-14.2 4.8,-19.9"
       fill="none"
       stroke="#000000"
       stroke-linecap="round"
       stroke-linejoin="round"
       stroke-width="4.252" />
    <path
       id="_Trazado_150"
       data-name="&lt;Trazado&gt;"
       d="m 1175.5,774.4 a 12.153,12.153 0 0 1 7.1,-5.6 30.75,30.75 0 0 1 9.1,-1.2 156.24,156.24 0 0 1 54.3,8 c 5.8,2 11.9,4.5 18,3.4"
       fill="none"
       stroke="#000000"
       stroke-linecap="round"
       stroke-linejoin="round"
       stroke-width="4.252" />
    <path
       id="_Trazado_151"
       data-name="&lt;Trazado&gt;"
       d="m 1177.4,781.4 a 40.553,40.553 0 0 0 -5.1,18.3"
       fill="none"
       stroke="#000000"
       stroke-linecap="round"
       stroke-linejoin="round"
       stroke-width="4.252" />
    <path
       id="_Trazado_152"
       data-name="&lt;Trazado&gt;"
       d="m 1170.6,802.2 c -0.5,2.8 -3.5,4.7 -6.4,4.9 -2.9,0.1 -5.6,-1.2 -8,-2.8 a 14.28,14.28 0 0 0 7.1,0.6"
       fill="none"
       stroke="#000000"
       stroke-linecap="round"
       stroke-linejoin="round"
       stroke-width="4.252" />
    <path
       id="_Trazado_153"
       data-name="&lt;Trazado&gt;"
       d="m 1175.1,792.1 a 259.734,259.734 0 0 1 48.3,-0.3"
       fill="none"
       stroke="#000000"
       stroke-linecap="round"
       stroke-linejoin="round"
       stroke-width="4.252" />
    <path
       id="_Trazado_154"
       data-name="&lt;Trazado&gt;"
       d="m 1178,796.4 a 10.973,10.973 0 0 0 0.8,4 9.079,9.079 0 0 1 0.6,4 3.2,3.2 0 0 1 -2.5,2.8"
       fill="none"
       stroke="#000000"
       stroke-linecap="round"
       stroke-linejoin="round"
       stroke-width="4.252" />
    <path
       id="_Trazado_155"
       data-name="&lt;Trazado&gt;"
       d="m 1177.2,808.8 h -12.1 c -1,0 -2.2,0.1 -2.7,1 a 2.893,2.893 0 0 0 0.1,2.4 c 1,3.1 1.9,6.2 2.9,9.3"
       fill="none"
       stroke="#000000"
       stroke-linecap="round"
       stroke-linejoin="round"
       stroke-width="4.252" />
    <path
       id="_Trazado_156"
       data-name="&lt;Trazado&gt;"
       d="m 1171.5,819.5 a 210.776,210.776 0 0 1 72.6,1.2"
       fill="none"
       stroke="#000000"
       stroke-linecap="round"
       stroke-linejoin="round"
       stroke-width="4.252" />
    <path
       id="_Trazado_157"
       data-name="&lt;Trazado&gt;"
       d="m 1232.3,799.2 a 54.613,54.613 0 0 0 2.4,17 11.665,11.665 0 0 0 1.6,3.6 4.454,4.454 0 0 0 3.4,1.8"
       fill="none"
       stroke="#000000"
       stroke-linecap="round"
       stroke-linejoin="round"
       stroke-width="4.252" />
    <path
       id="_Trazado_158"
       data-name="&lt;Trazado&gt;"
       d="m 1240.4,801.5 a 35.826,35.826 0 0 1 6,6.3 14.56,14.56 0 0 1 3,8 8.592,8.592 0 0 1 -3.8,7.4"
       fill="none"
       stroke="#000000"
       stroke-linecap="round"
       stroke-linejoin="round"
       stroke-width="4.252" />
    <path
       id="_Trazado_159"
       data-name="&lt;Trazado&gt;"
       d="m 1239.7,797.7 a 470.708,470.708 0 0 1 66.1,1.4"
       fill="none"
       stroke="#000000"
       stroke-linecap="round"
       stroke-linejoin="round"
       stroke-width="4.252" />
    <path
       id="_Trazado_160"
       data-name="&lt;Trazado&gt;"
       d="m 1020.3,769.4 c 3.7,0.2 7.5,0.3 11.2,0.5"
       fill="none"
       stroke="#000000"
       stroke-linecap="round"
       stroke-linejoin="round"
       stroke-width="4.252" />
    <path
       id="_Trazado_161"
       data-name="&lt;Trazado&gt;"
       d="m 1064.7,776.8 4.2,0.6"
       fill="none"
       stroke="#000000"
       stroke-linecap="round"
       stroke-linejoin="round"
       stroke-width="4.252" />
    <path
       id="_Trazado_162"
       data-name="&lt;Trazado&gt;"
       d="m 1082.7,779.6 a 4.409,4.409 0 0 0 4,0.8"
       fill="none"
       stroke="#000000"
       stroke-linecap="round"
       stroke-linejoin="round"
       stroke-width="4.252" />
    <path
       id="_Trazado_163"
       data-name="&lt;Trazado&gt;"
       d="m 1105.1,785 a 46.418,46.418 0 0 1 14.5,5.1"
       fill="none"
       stroke="#000000"
       stroke-linecap="round"
       stroke-linejoin="round"
       stroke-width="4.252" />
    <path
       id="_Trazado_164"
       data-name="&lt;Trazado&gt;"
       d="m 1136.2,796.2 a 9.991,9.991 0 0 1 5.8,1.6"
       fill="none"
       stroke="#000000"
       stroke-linecap="round"
       stroke-linejoin="round"
       stroke-width="4.252" />
    <path
       id="_Trazado_165"
       data-name="&lt;Trazado&gt;"
       d="m 876.1,766.2 q 63.15,0.6 126.1,-4.8"
       fill="none"
       stroke="#000000"
       stroke-linecap="round"
       stroke-linejoin="round"
       stroke-width="4.252" />
    <path
       id="_Trazado_166"
       data-name="&lt;Trazado&gt;"
       d="m 931.4,379.6 a 50.236,50.236 0 0 1 -28.3,33"
       fill="none"
       stroke="#000000"
       stroke-linecap="round"
       stroke-linejoin="round"
       stroke-width="4.252" />
    <path
       id="_Trazado_167"
       data-name="&lt;Trazado&gt;"
       d="M 917.4,358.9 C 896.3,398.8 901,451 928.9,486.5"
       fill="none"
       stroke="#000000"
       stroke-linecap="round"
       stroke-linejoin="round"
       stroke-width="4.252" />
    <path
       id="_Trazado_168"
       data-name="&lt;Trazado&gt;"
       d="m 918.8,357.9 c -13.6,10.6 -28,22.5 -32,39.2 -1.8,7.6 -1.3,15.6 -0.3,23.4 2,16.2 5.7,32.4 13.4,46.8 7.7,14.4 19.8,26.8 35,32.7"
       fill="none"
       stroke="#000000"
       stroke-linecap="round"
       stroke-linejoin="round"
       stroke-width="4.252" />
    <path
       id="_Trazado_169"
       data-name="&lt;Trazado&gt;"
       d="m 880.5,395 a 18.324,18.324 0 0 1 -18.9,0.4 c 0.2,2.4 0.5,4.8 0.7,7.1 a 4.706,4.706 0 0 1 -6,-3.5"
       fill="none"
       stroke="#000000"
       stroke-linecap="round"
       stroke-linejoin="round"
       stroke-width="4.252" />
    <path
       id="_Trazado_170"
       data-name="&lt;Trazado&gt;"
       d="m 868.3,402.8 c -0.7,3.2 -4.7,4.7 -7.8,3.8 -3.1,-0.9 -5.5,-3.4 -7.4,-6 -1.9,-2.6 -3.7,-5.4 -6.4,-7.3 a 12.379,12.379 0 0 0 -9.5,-2.2 c -8,1.5 -13.3,10.3 -21.4,11.3"
       fill="none"
       stroke="#000000"
       stroke-linecap="round"
       stroke-linejoin="round"
       stroke-width="4.252" />
    <path
       id="_Trazado_171"
       data-name="&lt;Trazado&gt;"
       d="M 834.2,411.8 A 43.426,43.426 0 0 0 809.4,405 c -1.2,0 -2.6,0.3 -2.9,1.4 -0.4,1.5 1.3,2.5 2.8,3 2.4,0.8 4.9,1.5 7.3,2.3 2.5,0.8 5.3,1.9 6.1,4.4 0.7,2.3 -0.9,4.9 -3,5.9 a 10.744,10.744 0 0 1 -7.1,0.3 c -2.4,-0.6 -4.6,-1.5 -7,-2 a 17.582,17.582 0 0 0 -11.7,1.7"
       fill="none"
       stroke="#000000"
       stroke-linecap="round"
       stroke-linejoin="round"
       stroke-width="4.252" />
    <path
       id="_Trazado_172"
       data-name="&lt;Trazado&gt;"
       d="m 816.8,426.4 c -10.7,-4.1 -22.7,-3.5 -33.8,-0.5 -11.1,3 -21.3,8.2 -31.5,13.5 l -26.4,13.5 a 9.633,9.633 0 0 1 5.8,9.6"
       fill="none"
       stroke="#000000"
       stroke-linecap="round"
       stroke-linejoin="round"
       stroke-width="4.252" />
    <path
       id="_Trazado_173"
       data-name="&lt;Trazado&gt;"
       d="m 716.5,467.8 c 21.5,-2 43.8,8 56.7,25.3"
       fill="none"
       stroke="#000000"
       stroke-linecap="round"
       stroke-linejoin="round"
       stroke-width="4.252" />
    <path
       id="_Trazado_174"
       data-name="&lt;Trazado&gt;"
       d="M 718.1,472.8 A 97.341,97.341 0 0 1 776,500.4"
       fill="none"
       stroke="#000000"
       stroke-linecap="round"
       stroke-linejoin="round"
       stroke-width="4.252" />
    <path
       id="_Trazado_175"
       data-name="&lt;Trazado&gt;"
       d="m 715,469.4 c -10.4,28.7 -21,57.4 -32,85.9 12.7,-7.3 25.9,-14.3 40.4,-16.1 14.5,-1.8 30.6,2.7 39,14.7"
       fill="none"
       stroke="#000000"
       stroke-linecap="round"
       stroke-linejoin="round"
       stroke-width="4.252" />
    <path
       id="_Trazado_176"
       data-name="&lt;Trazado&gt;"
       d="m 699.8,556.7 a 92.974,92.974 0 0 1 52,-10.4 10.324,10.324 0 0 1 4.9,1.4 3.9,3.9 0 0 1 1.6,4.5 c -0.9,2 -3.6,2.1 -5.8,2 a 255.209,255.209 0 0 0 -48.6,2.6"
       fill="none"
       stroke="#000000"
       stroke-linecap="round"
       stroke-linejoin="round"
       stroke-width="4.252" />
    <path
       id="_Trazado_177"
       data-name="&lt;Trazado&gt;"
       d="m 793,555.8 a 86.015,86.015 0 0 1 27.6,42.1"
       fill="none"
       stroke="#000000"
       stroke-linecap="round"
       stroke-linejoin="round"
       stroke-width="4.252" />
    <path
       id="_Trazado_178"
       data-name="&lt;Trazado&gt;"
       d="m 803.9,593 a 47.248,47.248 0 0 1 12.3,10.4 c 1,1.2 2,2.7 1.7,4.3 a 3.867,3.867 0 0 1 -3.7,2.9 11.842,11.842 0 0 1 -4.9,-0.9 224.453,224.453 0 0 1 -28.1,-12.1 40.005,40.005 0 0 0 15.8,15 125.874,125.874 0 0 0 -29.1,-17.7 c -2.3,-1 -5.3,-1.7 -6.9,0.2 -1.2,1.5 -0.6,3.9 0.9,5.2 a 12.4,12.4 0 0 0 5.2,2.4 101.746,101.746 0 0 1 30.4,15.1 20.034,20.034 0 0 1 5.8,5.8 7.548,7.548 0 0 1 0.2,7.8 c 0.8,0.9 1.5,1.9 2.3,2.8 -9.1,2.9 -18.2,5.8 -27.3,8.6 1,0.2 2,0.3 3,0.5"
       fill="none"
       stroke="#000000"
       stroke-linecap="round"
       stroke-linejoin="round"
       stroke-width="4.252" />
    <path
       id="_Trazado_179"
       data-name="&lt;Trazado&gt;"
       d="m 791.7,651.8 a 19.022,19.022 0 0 1 0.5,11.8"
       fill="none"
       stroke="#000000"
       stroke-linecap="round"
       stroke-linejoin="round"
       stroke-width="4.252" />
    <path
       id="_Trazado_180"
       data-name="&lt;Trazado&gt;"
       d="M 673.4,559.4 A 292.545,292.545 0 0 0 648.3,629 c -0.9,4 -1.3,8.9 2,11.3 3,2.2 8.6,1.6 9.3,5.3 0.3,1.4 -0.5,2.8 -1.2,4.1 l -14.1,25.2 c 1.3,0.3 2.6,0.7 3.9,1"
       fill="none"
       stroke="#000000"
       stroke-linecap="round"
       stroke-linejoin="round"
       stroke-width="4.252" />
    <path
       id="_Trazado_181"
       data-name="&lt;Trazado&gt;"
       d="m 651.1,678.7 a 82.228,82.228 0 0 0 -1.8,46.1"
       fill="none"
       stroke="#000000"
       stroke-linecap="round"
       stroke-linejoin="round"
       stroke-width="4.252" />
    <path
       id="_Trazado_182"
       data-name="&lt;Trazado&gt;"
       d="m 646.1,720.2 a 57.984,57.984 0 0 0 60.3,53.7"
       fill="none"
       stroke="#000000"
       stroke-linecap="round"
       stroke-linejoin="round"
       stroke-width="4.252" />
    <path
       id="_Trazado_183"
       data-name="&lt;Trazado&gt;"
       d="m 660,670.4 a 5.142,5.142 0 0 0 -2.4,6 165.769,165.769 0 0 1 57.8,-11.1"
       fill="none"
       stroke="#000000"
       stroke-linecap="round"
       stroke-linejoin="round"
       stroke-width="4.252" />
    <path
       id="_Trazado_184"
       data-name="&lt;Trazado&gt;"
       d="m 686.7,685.3 c 14.7,2.2 30.1,-6.6 44.3,-2.1"
       fill="none"
       stroke="#000000"
       stroke-linecap="round"
       stroke-linejoin="round"
       stroke-width="4.252" />
    <path
       id="_Trazado_185"
       data-name="&lt;Trazado&gt;"
       d="m 707.3,701.5 a 31.891,31.891 0 0 1 23.9,-4.2"
       fill="none"
       stroke="#000000"
       stroke-linecap="round"
       stroke-linejoin="round"
       stroke-width="4.252" />
    <path
       id="_Trazado_186"
       data-name="&lt;Trazado&gt;"
       d="m 732.8,702.8 c -15.3,1.8 -28.6,14.4 -31.2,29.6"
       fill="none"
       stroke="#000000"
       stroke-linecap="round"
       stroke-linejoin="round"
       stroke-width="4.252" />
    <path
       id="_Trazado_187"
       data-name="&lt;Trazado&gt;"
       d="m 731.9,728.4 c -3.6,-9.1 2.4,-19.9 11.1,-24.5 8.7,-4.6 19.1,-4.3 28.8,-2.7 9.7,1.6 19.2,4.4 29.1,4.6 5.1,0.1 10.4,-0.6 15.1,1.3 5.1,2.1 8.7,6.8 11.9,11.3 11.4,15.7 22.7,31.3 34.1,47 2.6,3.6 5.3,8.1 3.4,12.1 -1.1,2.4 -3.8,3.9 -6.4,4.5 -5.9,1.4 -12,-0.7 -17.2,-3.9 -5.2,-3.2 -9.5,-7.4 -14.3,-11 -18.7,-14.1 -43,-18.1 -66.2,-21.6"
       fill="none"
       stroke="#000000"
       stroke-linecap="round"
       stroke-linejoin="round"
       stroke-width="4.252" />
    <path
       id="_Trazado_188"
       data-name="&lt;Trazado&gt;"
       d="m 842.8,779.3 c 4,7 0,16.5 -6.9,20.6 -6.9,4.1 -15.6,3.7 -23.3,1.3 -7.6,-2.4 -14.6,-6.6 -21.9,-9.9 a 101.355,101.355 0 0 0 -40.6,-9"
       fill="none"
       stroke="#000000"
       stroke-linecap="round"
       stroke-linejoin="round"
       stroke-width="4.252" />
    <path
       id="_Trazado_189"
       data-name="&lt;Trazado&gt;"
       d="m 795.3,798.7 a 14.861,14.861 0 0 1 -4.2,18.5"
       fill="none"
       stroke="#000000"
       stroke-linecap="round"
       stroke-linejoin="round"
       stroke-width="4.252" />
    <path
       id="_Trazado_190"
       data-name="&lt;Trazado&gt;"
       d="m 806.1,767.2 a 9.928,9.928 0 0 1 -2.6,9"
       fill="none"
       stroke="#000000"
       stroke-linecap="round"
       stroke-linejoin="round"
       stroke-width="4.252" />
    <path
       id="_Trazado_191"
       data-name="&lt;Trazado&gt;"
       d="m 819.4,720.6 a 21.717,21.717 0 0 1 -3.8,20.1"
       fill="none"
       stroke="#000000"
       stroke-linecap="round"
       stroke-linejoin="round"
       stroke-width="4.252" />
    <path
       id="_Trazado_192"
       data-name="&lt;Trazado&gt;"
       d="m 819.4,797.7 c 5,5.7 2.7,15.2 -2.8,20.4 -5.5,5.2 -13.2,7.3 -20.6,9.1 -10,2.5 -20,5 -30.3,5.5 -10.3,0.5 -20.9,-1.3 -29.5,-6.9 1.3,0.1 2.6,0.1 3.9,0.2"
       fill="none"
       stroke="#000000"
       stroke-linecap="round"
       stroke-linejoin="round"
       stroke-width="4.252" />
    <path
       id="_Trazado_193"
       data-name="&lt;Trazado&gt;"
       d="m 809.4,822.2 c 1.2,6.3 -2.7,12.8 -8,16.5 -5.3,3.7 -11.8,5.2 -18.1,6.6 -15.2,3.4 -30.7,6.9 -46.2,5.7 -6.7,-0.5 -13.6,-2 -19.1,-5.9 -5.5,-3.9 -9.5,-10.5 -8.6,-17.2 0.8,-6.4 5.8,-12.6 3.9,-18.8 -1.7,-5.4 -7.8,-8.1 -10.2,-13.2 -4.2,-9.2 5.9,-18.9 5.7,-28.9 -0.1,-3.8 -1.6,-7.4 -1.2,-11.2 1.4,-13.1 23.8,-16.2 24.4,-29.4"
       fill="none"
       stroke="#000000"
       stroke-linecap="round"
       stroke-linejoin="round"
       stroke-width="4.252" />
    <path
       id="_Trazado_194"
       data-name="&lt;Trazado&gt;"
       d="m 824.8,714.2 c 7.8,-6.6 19.4,-7 29.1,-3.7 9.7,3.3 17.9,9.7 26,16 2,1.6 4,3.2 4.9,5.6 1,2.8 0.1,5.9 -0.8,8.8 -1.7,5.3 -3.4,10.7 -5,16 -1.1,3.4 -2.3,7 -5.1,9.1 -2.8,2.1 -7.8,1.6 -8.9,-1.8"
       fill="none"
       stroke="#000000"
       stroke-linecap="round"
       stroke-linejoin="round"
       stroke-width="4.252" />
    <path
       id="_Trazado_195"
       data-name="&lt;Trazado&gt;"
       d="m 794.3,693.3 c 5.8,-13.4 11.6,-26.7 17.3,-40.1 2.5,-5.9 5.1,-12 4.7,-18.4 -0.7,-9.9 -8.5,-18 -17.1,-22.9 -8.6,-4.9 -18.4,-7.6 -27.1,-12.5"
       fill="none"
       stroke="#000000"
       stroke-linecap="round"
       stroke-linejoin="round"
       stroke-width="4.252" />
    <path
       id="_Trazado_196"
       data-name="&lt;Trazado&gt;"
       d="m 824.2,632.4 c 1.9,-11.7 3.8,-23.7 1.3,-35.2 -4,-18.1 -19.9,-33.1 -38.2,-36"
       fill="none"
       stroke="#000000"
       stroke-linecap="round"
       stroke-linejoin="round"
       stroke-width="4.252" />
    <path
       id="_Trazado_197"
       data-name="&lt;Trazado&gt;"
       d="m 834.4,600.8 a 462.5,462.5 0 0 1 0.3,-47.1"
       fill="none"
       stroke="#000000"
       stroke-linecap="round"
       stroke-linejoin="round"
       stroke-width="4.252" />
    <path
       id="_Trazado_198"
       data-name="&lt;Trazado&gt;"
       d="m 837.6,530.2 q 3.3,79.2 0.7,158.6"
       fill="none"
       stroke="#000000"
       stroke-linecap="round"
       stroke-linejoin="round"
       stroke-width="4.252" />
    <path
       id="_Trazado_199"
       data-name="&lt;Trazado&gt;"
       d="m 876,592.1 c -1,4.1 -2.1,8.3 -1.5,12.5 0.6,4.2 3.2,8.4 7.2,9.6 4,1.2 8.3,-0.9 11.4,-3.7 6.4,-5.8 9.1,-14.5 11.6,-22.8 a 307.757,307.757 0 0 1 4.4,31.6"
       fill="none"
       stroke="#000000"
       stroke-linecap="round"
       stroke-linejoin="round"
       stroke-width="4.252" />
    <path
       id="_Trazado_200"
       data-name="&lt;Trazado&gt;"
       d="m 966.2,552.4 c -5.7,20.5 -0.1,42.2 0.3,63.5 0.5,25.9 -6.6,51.2 -13.6,76.1"
       fill="none"
       stroke="#000000"
       stroke-linecap="round"
       stroke-linejoin="round"
       stroke-width="4.252" />
    <path
       id="_Trazado_201"
       data-name="&lt;Trazado&gt;"
       d="M 774.9,698.9 A 365.435,365.435 0 0 1 720.4,619 c -1.3,-2.6 -2.6,-5.3 -2.3,-8.2 0.2,-2.9 2.6,-5.7 5.5,-5.4 2.9,0.3 4.5,3.4 6.6,5.5 2.1,2 4.9,3.1 7.3,4.7 3.5,2.4 6,6.1 8.3,9.7 q 24.9,38.1 49.7,76.2"
       fill="none"
       stroke="#000000"
       stroke-linecap="round"
       stroke-linejoin="round"
       stroke-width="4.252" />
    <path
       id="_Trazado_202"
       data-name="&lt;Trazado&gt;"
       d="m 848.8,792.4 c -1.1,-0.7 -2.2,-1.3 -3.3,-2 l 33,33.3 c -7,-12.9 -14.1,-25.8 -21.1,-38.7"
       fill="none"
       stroke="#000000"
       stroke-linecap="round"
       stroke-linejoin="round"
       stroke-width="4.252" />
    <path
       id="_Trazado_203"
       data-name="&lt;Trazado&gt;"
       d="m 1164.9,821.1 q -153.3,34.8 -305.7,73.6"
       fill="none"
       stroke="#000000"
       stroke-linecap="round"
       stroke-linejoin="round"
       stroke-width="4.252" />
    <path
       id="_Trazado_204"
       data-name="&lt;Trazado&gt;"
       d="m 794,851.4 a 96.224,96.224 0 0 1 47.5,27.3"
       fill="none"
       stroke="#000000"
       stroke-linecap="round"
       stroke-linejoin="round"
       stroke-width="4.252" />
    <path
       id="_Trazado_205"
       data-name="&lt;Trazado&gt;"
       d="m 791,854.8 c 7,7.8 16.9,12.3 26.1,17.3 9.3,4.9 18.7,11.1 23.1,20.6"
       fill="none"
       stroke="#000000"
       stroke-linecap="round"
       stroke-linejoin="round"
       stroke-width="4.252" />
    <path
       id="_Trazado_206"
       data-name="&lt;Trazado&gt;"
       d="m 895,904.1 a 1497.994,1497.994 0 0 1 286.5,-78.9"
       fill="none"
       stroke="#000000"
       stroke-linecap="round"
       stroke-linejoin="round"
       stroke-width="4.252" />
    <path
       id="_Trazado_207"
       data-name="&lt;Trazado&gt;"
       d="m 1028.1,596.3 50.4,-6"
       fill="none"
       stroke="#000000"
       stroke-linecap="round"
       stroke-linejoin="round"
       stroke-width="4.252" />
    <path
       id="_Trazado_208"
       data-name="&lt;Trazado&gt;"
       d="m 1083.7,590.2 c -2,8.4 -1,17.3 -2.2,25.8 -1.2,8.6 -5.5,17.7 -13.7,20.4 -5.6,1.9 -11.7,0.3 -17.1,-2.1 -8,-3.5 -15.4,-9.4 -18.3,-17.6 -2.9,-8.2 0.2,-18.8 8.2,-22.3"
       fill="none"
       stroke="#000000"
       stroke-linecap="round"
       stroke-linejoin="round"
       stroke-width="4.252" />
    <path
       id="_Trazado_209"
       data-name="&lt;Trazado&gt;"
       d="m 1183.5,517.5 a 309.127,309.127 0 0 0 -30.8,51.2"
       fill="none"
       stroke="#000000"
       stroke-linecap="round"
       stroke-linejoin="round"
       stroke-width="4.252" />
    <path
       id="_Trazado_210"
       data-name="&lt;Trazado&gt;"
       d="m 1148.8,593.6 q -15.45,56.85 -30.8,113.6"
       fill="none"
       stroke="#000000"
       stroke-linecap="round"
       stroke-linejoin="round"
       stroke-width="4.252" />
    <path
       id="_Trazado_211"
       data-name="&lt;Trazado&gt;"
       d="m 1121.1,704.1 c 1.2,0.1 2.3,0.2 3.5,0.4 0.9,1.7 0,3.8 -1.1,5.3 -1.1,1.5 -2.6,2.9 -3,4.8 -0.6,2.9 1.5,5.5 3.1,7.9 1.6,2.4 2.8,6 0.6,8.1"
       fill="none"
       stroke="#000000"
       stroke-linecap="round"
       stroke-linejoin="round"
       stroke-width="4.252" />
    <path
       id="_Trazado_212"
       data-name="&lt;Trazado&gt;"
       d="m 1133.7,631.5 a 76.535,76.535 0 0 1 -46.9,33.2 c -0.2,-1.1 -0.3,-2.2 -0.5,-3.4"
       fill="none"
       stroke="#000000"
       stroke-linecap="round"
       stroke-linejoin="round"
       stroke-width="4.252" />
    <path
       id="_Trazado_213"
       data-name="&lt;Trazado&gt;"
       d="m 1120.6,662.5 a 98.557,98.557 0 0 1 -38.2,21.2"
       fill="none"
       stroke="#000000"
       stroke-linecap="round"
       stroke-linejoin="round"
       stroke-width="4.252" />
    <path
       id="_Trazado_214"
       data-name="&lt;Trazado&gt;"
       d="m 1120.9,677.9 a 126.217,126.217 0 0 1 -57.6,36.9"
       fill="none"
       stroke="#000000"
       stroke-linecap="round"
       stroke-linejoin="round"
       stroke-width="4.252" />
  </g>
  <metadata
     id="metadata1108">
    <rdf:RDF>
      <cc:Work
         rdf:about="">
        <dc:title>CHICO ESTIDUIANDO - LIBROS - ABRURRIDO</dc:title>
      </cc:Work>
    </rdf:RDF>
  </metadata>
</svg>
