<?xml version="1.0" encoding="UTF-8" standalone="no"?>
<svg
   version="1.1"
   width="900"
   height="768"
   viewBox="28 681 900 768"
   id="svg155"
   sodipodi:docname="teacher-7062037.svg"
   inkscape:version="1.1.2 (0a00cf5339, 2022-02-04)"
   xmlns:inkscape="http://www.inkscape.org/namespaces/inkscape"
   xmlns:sodipodi="http://sodipodi.sourceforge.net/DTD/sodipodi-0.dtd"
   xmlns="http://www.w3.org/2000/svg"
   xmlns:svg="http://www.w3.org/2000/svg">
  <defs
     id="defs159" />
  <sodipodi:namedview
     id="namedview157"
     pagecolor="#ffffff"
     bordercolor="#666666"
     borderopacity="1.0"
     inkscape:pageshadow="2"
     inkscape:pageopacity="0.0"
     inkscape:pagecheckerboard="0"
     showgrid="false"
     inkscape:zoom="0.34440104"
     inkscape:cx="355.68998"
     inkscape:cy="497.96598"
     inkscape:window-width="1366"
     inkscape:window-height="703"
     inkscape:window-x="0"
     inkscape:window-y="0"
     inkscape:window-maximized="1"
     inkscape:current-layer="svg155" />
  <g
     style="fill:#000000;fill-opacity:0.396078;stroke-linejoin:miter"
     id="g8"
     transform="matrix(1.4118437,0,0,1.4118437,-297.44311,-474.6316)">
    <path
       d="m 846.57837,1348.6063 -2.69031,0.4943 q -4.25076,0.3318 -12.14016,0.6339 -1.6705,0.1695 -31.8546,0.8406 -26.69445,0.5162 -67.9429,0.9142 -53.35134,0.4504 -65.9883,0.4777 -69.6759,0.3604 -154.10138,0.2472 -53.71512,-0.1047 -97.87024,-0.3895 l -21.48008,-0.1537 q -20.88256,-0.1645 -39.375,-0.3751 -136.62826,-1.6687 -77.3916,-3.9619 75.4418,-2.235 276.10917,-2.3684 27.83083,0.01 53.58383,0.066 14.1752,0 72.58426,0.282 45.27258,0.2615 82.23401,0.7184 18.48063,0.2284 33.01068,0.4823 9.73415,0.1111 34.70055,0.8189 17.2075,0.5853 18.61207,1.2726 z"
       id="path6" />
  </g>
  <g
     style="fill:#222b32;fill-opacity:1;stroke-linejoin:miter"
     id="g12"
     transform="matrix(1.4118437,0,0,1.4118437,-297.44311,-474.6316)">
    <path
       d="m 309.77182,828.3706 253.79938,2.5e-4 253.7994,2.5e-4 q 0,153.53954 0,307.0789 -253.7994,4e-4 -507.59878,4e-4 0,-153.53976 0,-307.0798"
       id="path10" />
  </g>
  <g
     style="fill:#ffffff;fill-opacity:1;stroke-linejoin:miter"
     id="g16"
     transform="matrix(1.4118437,0,0,1.4118437,-297.44311,-474.6316)">
    <path
       d="m 318.17667,845.557 245.39453,8.6e-4 245.3946,8.4e-4 v 272.7043 q -245.3946,4e-4 -490.78913,0 0,-136.35356 0,-272.7072"
       id="path14" />
  </g>
  <g
     style="fill:#000000;fill-opacity:0.996078;stroke-linejoin:miter"
     id="g20"
     transform="matrix(1.4118437,0,0,1.4118437,-297.44311,-474.6316)">
    <path
       d="m 227.62181,1062.8701 v 7e-4 -6e-4 -10e-5 7e-4 -7e-4 10e-5 q 0,-10e-5 0,-10e-5 z"
       id="path18" />
  </g>
  <g
     style="fill:#000000;fill-opacity:0.996078;stroke-linejoin:miter"
     id="g24"
     transform="matrix(1.4118437,0,0,1.4118437,-297.44311,-474.6316)">
    <path
       d="m 244.21832,1067.9763 v 0 0 0 0 0 0 q 0,0 0,0 z"
       id="path22" />
  </g>
  <g
     style="fill:#000000;fill-opacity:1;stroke-linejoin:miter"
     id="g28"
     transform="matrix(1.4118437,0,0,1.4118437,-297.44311,-474.6316)">
    <path
       d="m 451.88184,1330.6567 0.77044,0.3788 q 4.21448,2.1157 7.23099,2.9666 2.18369,0.5643 2.66821,0.6041 7.00612,0.8626 7.83847,1.2327 1.99125,0.5239 2.82492,1.8497 0.8331,2.3468 -2.32867,4.3123 -5.0928,2.9681 -10.70056,4.2088 -4.91217,1.0213 -5.89179,0.985 -1.95735,0.1747 -3.78057,0.082 -1.81986,-0.096 -3.40538,-0.509 l -1.5309,-0.4825 q -1.47406,-0.5584 -2.76294,-1.3611 -2.55686,-1.6326 -4.61942,-3.9191 -1.46689,-2.156 -12.90637,-14.8475 l -0.74807,11.5137 -8.0771,-5.2535 3.41718,-19.1661 32.00156,17.4056"
       id="path26" />
  </g>
  <g
     style="fill:#4d213f;fill-opacity:1;stroke-linejoin:miter"
     id="g32"
     transform="matrix(1.4118437,0,0,1.4118437,-297.44311,-474.6316)">
    <path
       d="m 465.6546,1222.3688 -3.26498,0.5526 q -21.42676,4.121 -34.02207,1.1949 -11.35531,-2.1894 -29.66775,-17.9248 7.29144,-24.8166 6.82394,-41.3524 0.18176,-1.8639 -1.40997,-10.8948 l -6.20123,-25.0811 q -1.44584,-7.2049 -0.90082,-14.6391 0.70378,-7.477 2.84112,-14.8187 l 8.05262,-26.0797 q 2.11514,-10.5061 1.02417,-17.8079 l -0.71823,-5.576 q -13.12076,24.3185 -20.38135,27.047 -8.65165,2.5787 -12.95392,-6.0308 -2.55988,-4.3933 -2.91269,-13.3883 -0.16164,-1.2988 0.22119,-8.939 2.26312,-22.5688 2.40259,-31.0859 0.42761,-11.3474 -0.89762,-30.23096 0.51764,-7.45898 6.14304,-11.15554 4.98703,-3.9448 16.7005,-9.78293 l 11.90073,-8.37281 36.40896,1.90589 q 16.2164,4.47485 23.57817,11.17735 6.36806,5.70644 8.94042,16.2141 0.60461,1.59634 2.0683,10.76126 l 3.2283,26.21934 q 1.36428,8.0503 6.37323,17.4968 l 34.01471,22.7991 q -0.12451,11.1699 -11.15826,15.2518 l -13.6559,-5.9758 -24.9044,-7.6908 5.22216,25.2803 -2.38626,9.4785 -5.6069,-10.8783 q 1.90493,13.1813 0.68072,25.6869 -0.96277,10.2273 -1.45822,13.2921 l -6.67667,45.8742 q -1.52026,11.3912 -1.89433,19.6974 -0.5932,17.9769 4.4467,27.7761"
       id="path30" />
  </g>
  <g
     style="fill:#ff61ca;fill-opacity:1;stroke-linejoin:miter"
     id="g36"
     transform="matrix(1.4118437,0,0,1.4118437,-297.44311,-474.6316)">
    <path
       d="m 460.65125,1031.4083 -1.87211,-2.8674 q -11.86314,-17.9873 -11.74697,-17.9801 -3.03809,-4.7943 -6.88434,-11.6243 -4.85309,-8.41514 -24.15311,-46.52036 l 27.70584,0.14416 1.09732,13.9226 q 6.80875,7.536 9.7988,12.6807 4.03092,7.3907 4.79889,11.71775 2.98581,10.40525 1.25568,40.52695"
       id="path34" />
  </g>
  <g
     style="fill:#000000;fill-opacity:1;stroke-linejoin:miter"
     id="g40"
     transform="matrix(1.4118437,0,0,1.4118437,-297.44311,-474.6316)">
    <path
       d="m 440.14212,1010.9936 v 0 -8e-4 -3e-4"
       id="path38" />
  </g>
  <g
     style="fill:#929fa8;fill-opacity:1;stroke-linejoin:miter"
     id="g44"
     transform="matrix(1.4118437,0,0,1.4118437,-297.44311,-474.6316)">
    <path
       d="m 260.85556,907.1146 v 0 2.7e-4 -2.7e-4 0 0 2.7e-4 q 0,-2.7e-4 0,-2.7e-4"
       id="path42" />
  </g>
  <g
     style="fill:#ff61ca;fill-opacity:1;stroke-linejoin:miter"
     id="g48"
     transform="matrix(1.4118437,0,0,1.4118437,-297.44311,-474.6316)">
    <path
       d="m 407.1365,951.5327 -1.13143,0.2815 q -2.32352,0.4889 -3.91904,1.8679 -0.76746,0.7267 -1.17099,1.89883 l -0.28204,1.32067 q -0.17572,1.4506 0.19427,3.5692 l 0.53705,2.32253 0.8707,2.73133 q 1.06475,2.98204 2.75576,6.64697 3.48368,7.53847 8.25629,15.31627 2.33548,3.78566 4.68853,7.00734 l 2.30677,2.97716 q 2.28586,2.7848 4.28513,4.3828 2.49368,1.6724 2.5196,1.4473 0.59645,0.3487 2.1851,-0.028 l 1.16303,-0.7766 1.00135,-1.3047 0.85617,-1.78054 q 0.78323,-2.01843 1.34033,-4.77686 0.37142,-1.07494 1.3241,-9.41015 0.20184,-1.63035 0.88778,-10.83755 L 424.07495,955.76965 407.1365,951.5327"
       id="path46" />
  </g>
  <g
     style="fill:#ff61ca;fill-opacity:1;stroke-linejoin:miter"
     id="g52"
     transform="matrix(1.4118437,0,0,1.4118437,-297.44311,-474.6316)">
    <path
       d="m 461.90735,959.17566 0.77295,4.22424 q 2.5434,12.96216 3.0602,23.3235 l -0.0153,3.213 -0.24073,2.9238 -0.49397,2.5988 -0.77517,2.2379 -1.08493,1.8401 -0.60946,0.7041 q -0.83264,1.1594 -4.02014,2.2681 -2.883,0.7568 -6.60767,0.4339 -5.67017,-0.2878 -19.96631,-4.6554 l 29.98053,-39.11204"
       id="path50" />
  </g>
  <g
     style="fill:#000000;fill-opacity:1;stroke-linejoin:miter"
     id="g56"
     transform="matrix(1.4118437,0,0,1.4118437,-297.44311,-474.6316)">
    <path
       d="m 532.7808,935.8429 v 2.4e-4 3.6e-4 -6e-4"
       id="path54" />
  </g>
  <g
     style="fill:#000000;fill-opacity:1;stroke-linejoin:miter"
     id="g60"
     transform="matrix(1.4118437,0,0,1.4118437,-297.44311,-474.6316)">
    <path
       d="m 422.65216,1332.1929 1.40584,0.7837 q 5.87373,3.1512 9.75242,6.1569 2.84398,2.4742 2.90693,3.847 0.33691,2.5685 -3.22342,4.2296 -3.17578,1.1544 -4.18586,1.1452 -1.62734,0.2299 -3.50683,0.2105 -0.83157,0.1643 -6.05551,-0.7017 -4.32633,-0.901 -8.53269,-2.6771 -6.45361,-2.7113 -10.04434,-6.5653 -2.8499,-3.328 -2.96097,-7.352 -0.22033,-3.2727 1.41733,-9.4627 l -4.7077,12.7722 -6.89652,-3.0448 q -0.36904,-22.3656 2.25056,-28.4065 0.59512,-1.6196 1.37585,-2.8993 0.29968,-0.8059 2.67525,-3.2271 2.45567,-2.2745 7.9148,-4.4644 -0.61264,9.0999 0.55442,14.6232 0.90414,5.3501 5.65902,17.9951 l 14.20142,7.0375"
       id="path58" />
  </g>
  <g
     style="fill:#4d213f;fill-opacity:1;stroke-linejoin:miter"
     id="g64"
     transform="matrix(1.4118437,0,0,1.4118437,-297.44311,-474.6316)">
    <path
       d="m 468.59882,1009.1019 -1.20922,23.3372 q 23.76268,112.9645 65.44774,300.4399 -22.27674,9.6629 -54.10739,8.7094 -26.22977,0.2483 -125.79947,-11.3338 11.53995,-37.2258 19.88086,-86.3379 7.88196,-43.669 28.78676,-192.0058 l 67.00072,-42.809"
       id="path62" />
  </g>
  <g
     style="fill:#c7743d;fill-opacity:1;stroke-linejoin:miter"
     id="g68"
     transform="matrix(1.4118437,0,0,1.4118437,-297.44311,-474.6316)">
    <path
       d="m 484.7578,1050.1737 28.31276,15.8053 44.8692,-22.1809 5.42564,-25.0704 -7.72557,-3.6993 -64.7301,32.2606 -6.15193,2.8847"
       id="path66" />
  </g>
  <g
     style="fill:#ffffff;fill-opacity:1;stroke-linejoin:miter"
     id="g72"
     transform="matrix(1.4118437,0,0,1.4118437,-297.44311,-474.6316)">
    <path
       d="m 553.42865,1042.9156 -22.41565,-12.3847 -48.69925,20.9176 77.73075,-35.8574 -2.2783,25.8311 -4.33755,1.4934"
       id="path70" />
  </g>
  <g
     style="fill:#fec5a1;fill-opacity:1;stroke-linejoin:miter"
     id="g76"
     transform="matrix(1.4118437,0,0,1.4118437,-297.44311,-474.6316)">
    <path
       d="m 507.90607,1072.0264 -12.61609,-10.064 4.11725,-3.1218 6.79565,5.7409 -4.27295,-7.6176 3.20727,-1.2968 6.6795,6.2748 2.82057,-9.5786 4.37988,-1.1367 1.61145,7.9475 3.2212,-7.9285 4.1743,-1.2736 -0.1887,8.2619 q -3.1171,7.786 -5.40944,9.7881 -2.151,2.1986 -5.31016,2.99 -1.96266,0.7285 -9.20973,1.0144"
       id="path74" />
  </g>
  <g
     style="fill:#ff61ca;fill-opacity:1;stroke-linejoin:miter"
     id="g80"
     transform="matrix(1.4118437,0,0,1.4118437,-297.44311,-474.6316)">
    <path
       d="m 440.93506,982.44116 0.76901,0.27774 q 7.54803,3.3972 13.43341,-3.20193 2.25195,-2.14673 6.45334,-7.12987 5.96722,-12.9347 5.16531,-13.4547 -0.0664,-0.66714 -0.41507,-0.9401 -1.03189,-0.42187 -2.6249,-2.1478 l -0.62561,-0.32753 -2.88611,0.18763 -1.80722,-1.0106 q -0.83936,-0.009 -2.67139,0.8807 -0.2352,-5.70336 -1.39816,-8.7124 -0.9773,-2.98144 -5.02259,-9.2594 3.27659,-18.1864 -0.59472,-29.31896 -1.78949,-5.65931 -6.14226,-9.95044 -1.95198,-2.4116 -9.31184,-5.2554 -1.04446,-0.5437 -6.60186,-1.3779 -2.224,-0.2208 -4.3525,-0.1068 -4.2936,0.2147 -7.60808,1.9055 -5.90049,2.08264 -12.28159,17.21375 -4.50757,9.1333 -5.25485,17.42041 -0.52298,4.44848 0.22925,16.05544 -2.51673,7.12485 -2.46118,8.88145 0.0146,1.49985 0.18585,1.60915 l 1.82953,2.6953 q 0.53613,1.5034 0.49677,2.11974 0.35763,-0.55874 -0.8696,9.81236 -0.1964,4.2133 0.009,4.976 0.6699,3.8497 1.23274,4.33615 1.43046,2.47229 4.27846,3.90465 2.84807,1.4329 6.5476,2.24086 l 13.11404,2.56094 q 7.29136,1.4062 10.71116,0.4565 3.56957,-0.6744 8.47396,-5.34044 z"
       id="path78" />
  </g>
  <g
     style="fill:#ffffff;fill-opacity:1;stroke-linejoin:miter"
     id="g84"
     transform="matrix(1.4118437,0,0,1.4118437,-297.44311,-474.6316)">
    <path
       d="m 449.45258,927.29297 -0.0108,-2.20557 q 0.0754,-6.713 -0.81334,-12.56067 -0.6373,-3.85766 -2.23924,-6.85133 -2.28973,-3.79515 -5.45132,-5.39915 -2.15271,-1.19435 -4.56171,-1.73985 -2.80083,-0.53664 -4.03046,-0.45583 -3.66693,-0.0621 -7.20755,1.72303 -3.97562,2.2047 -6.59372,5.91124 -2.409,3.07506 -4.32168,8.74096 -1.33032,4.33546 -1.94239,10.958 z"
       id="path82" />
  </g>
  <g
     style="fill:#000000;fill-opacity:0.14902;stroke-linejoin:miter"
     id="g88"
     transform="matrix(1.4118437,0,0,1.4118437,-297.44311,-474.6316)">
    <path
       d="m 406.95068,905.19604 v 3.6e-4 q 0.45532,9.05995 0.87152,13.87086 0.4392,4.78088 0.57657,5.66904 0.22383,1.8472 0.49961,3.6216 0.27762,1.7731 0.60788,3.47486 l 0.34118,1.68628 q 0.35296,1.6698 0.7443,3.28686 0.96866,4.0574 3.00561,10.958 -3.17807,-7.5166 -4.54471,-11.79 -0.55597,-1.70596 -1.01854,-3.4358 l -0.4337,-1.73585 -0.37512,-1.75025 -0.31078,-1.7656 q -0.2752,-1.77456 -0.4218,-3.58 l -0.1205,-1.8116 q -0.0913,-1.81814 -0.0891,-3.6597 0.0527,-5.5344 0.52528,-11.1699 L 406.95,905.197 Z m -6.24911,17.79322 0.65863,1.82629 q 1.98712,5.5874 3.99686,10.55385 1.68151,3.9646 2.0242,4.5785 0.67901,1.4117 1.36468,2.63474 0.68591,1.21766 1.37921,2.245 0.34323,0.60706 2.09192,2.74231 1.75159,2.05371 4.94363,4.68825 -3.63177,-2.07143 -5.5375,-3.929 -1.889,-1.9554 -2.23303,-2.56113 -0.7226,-0.99012 -1.40903,-2.20594 -0.68544,-1.224 -1.33459,-2.67483 l -0.64205,-1.49655 q -0.63344,-1.54871 -1.24086,-3.2627 -1.52347,-4.23975 -4.06304,-13.13879 z m 48.47233,21.54248 q -0.49513,3.59756 -0.9356,5.22316 -0.463,1.57445 -0.60604,1.7762 -0.23401,0.5202 -0.52072,0.9203 -0.28869,0.39613 -0.63058,0.673 l -0.35239,0.25145 q -0.36499,0.224 -0.76787,0.36185 -0.1841,0.0665 -0.4049,0.12094 -0.9792,0.2406 -2.68807,0.22806 1.7829,-0.6344 2.67294,-1.2261 0.87586,-0.62476 1.02066,-0.8223 0.32035,-0.3197 0.60849,-0.71664 1.28592,-1.81421 2.4227,-6.14393 l 0.18091,-0.64599 z m -49.5252,-0.48279 0.76014,0.85095 q 4.82846,5.67615 9.77134,8.42346 4.28018,2.5271 15.98425,5.25584 -6.69933,-0.80466 -10.06439,-1.64963 -3.31571,-0.89957 -3.87024,-1.20057 -1.2216,-0.4758 -2.32877,-1.0802 -1.10321,-0.6069 -2.09158,-1.3418 -0.55045,-0.30554 -2.76025,-2.4353 -2.15824,-2.1825 -5.4014,-6.82275 z m 46.30623,16.8761 v 10e-4 q -4.75003,4.5194 -7.43186,6.56467 -1.07211,0.8291 -2.15407,1.54968 l -1.08488,0.68605 q -1.08772,0.656 -2.18875,1.1609 -1.10224,0.5008 -2.21802,0.8514 l -1.11841,0.3196 q -0.10791,0.0284 -0.21594,0.0551 -1.01453,0.24865 -2.03702,0.40905 -2.8258,0.4689 -7.9884,0.4746 l 10e-4,10e-4 q 5.19281,-0.63706 8.02898,-1.3263 0.15192,-0.0363 0.30378,-0.0736 0.98248,-0.24072 1.95676,-0.54101 l 1.12072,-0.37097 q 1.11784,-0.3938 2.21974,-0.89502 1.10152,-0.50525 2.18725,-1.11829 0.55017,-0.25306 3.22885,-2.03222 3.19705,-2.25454 6.34234,-4.86254 l 1.04709,-0.85365 z m 9.32235,-3.4314 v 10e-4 q -2.17298,12.01611 -4.57368,15.87255 -0.57277,1.01 -1.23198,1.8773 -0.28708,0.5033 -2.13425,2.34634 -1.88467,1.78211 -5.76447,4.19141 5.2277,-5.37815 7.47977,-9.55995 2.56243,-4.5825 5.73236,-13.3978 l 0.49204,-1.33095 z"
       id="path86" />
  </g>
  <g
     style="fill:#f8c4a6;fill-opacity:1;stroke-linejoin:miter"
     id="g92"
     transform="matrix(1.4118437,0,0,1.4118437,-297.44311,-474.6316)">
    <path
       d="m 437.22083,954.6583 -0.15125,0.0858 q -7.23418,4.34131 -15.6008,-2.44714 -3.59821,-3.3596 -5.57333,-7.8899 -0.64527,-1.47094 -1.07125,-2.959 -1.0809,-3.6295 -1.8953,-7.5149 -1.16828,-6.7978 -0.62882,-9.5804 0.56689,-4.0801 1.96387,-6.36 3.20321,-5.97363 13.6239,-12.42114 6.06283,-3.66416 11.72412,-0.32972 4.10116,2.70706 6.84195,7.10596 2.98478,4.86597 3.30282,7.8645 1.53879,8.5354 -2.23114,19.86475 -3.73846,9.26905 -10.30477,14.58115 z"
       id="path90" />
  </g>
  <g
     style="fill:#ffffff;fill-opacity:1;stroke-linejoin:miter"
     id="g96"
     transform="matrix(1.4118437,0,0,1.4118437,-297.44311,-474.6316)">
    <path
       d="m 428.5745,923.81274 -0.31422,-0.21264 q -0.9479,-0.6583 -1.85296,-1.12586 -0.30005,-0.14914 -0.59119,-0.25564 l -0.28775,-0.0932 q -0.24396,-0.0786 -0.63882,-0.1095 -0.50724,-0.0435 -1.20493,0.23753 -0.34045,0.14785 -0.66743,0.35317 -0.48995,0.31213 -0.96868,0.67383 0.88498,0.46984 1.44684,0.65515 0.57126,0.17395 0.70676,0.18605 0.24936,0.047 0.52054,0.0691 0.27264,0.0217 0.56698,0.019 0.13676,0.0103 0.92493,-0.0526 0.79793,-0.0737 2.35993,-0.34436 z"
       id="path94" />
  </g>
  <g
     style="fill:#000000;fill-opacity:1;stroke-linejoin:miter"
     id="g100"
     transform="matrix(1.4118437,0,0,1.4118437,-297.44311,-474.6316)">
    <path
       d="m 425.8028,924.23267 0.0609,-0.0425 q 0.4115,-0.2633 0.52441,-0.5907 0.11249,-0.28175 1.8e-4,-1.1295 -0.68356,-0.41165 -1.07507,-0.4635 -0.34939,-0.0817 -1.24617,0.0644 -0.5852,0.50173 -0.65336,0.8346 -0.0457,0.1177 -0.0228,0.439 0.0234,0.2314 0.14777,0.6786 l 1.23481,0.1976 z"
       id="path98" />
  </g>
  <g
     style="fill:#000000;fill-opacity:1;stroke-linejoin:miter"
     id="g104"
     transform="matrix(1.4118437,0,0,1.4118437,-297.44311,-474.6316)">
    <path
       d="m 432.73877,932.1609 1.8e-4,6e-4 -1.8e-4,-6e-4 1.8e-4,6e-4 z"
       id="path102" />
  </g>
  <g
     style="fill:#000000;fill-opacity:1;stroke-linejoin:miter"
     id="g108"
     transform="matrix(1.4118437,0,0,1.4118437,-297.44311,-474.6316)">
    <path
       d="m 429.23843,918.7539 -0.31427,-0.1283 q -0.93863,-0.40075 -1.91671,-0.6694 -0.32749,-0.0842 -0.66355,-0.1398 l -0.3388,-0.0455 q -0.29395,-0.039 -0.78974,-0.033 -0.53961,0.0248 -0.82166,0.0731 l -0.35046,0.0582 q -0.35302,0.066 -0.71368,0.15724 -0.89926,0.22155 -2.57523,0.81273 2.85709,-0.45398 4.37367,-0.45813 1.42065,-0.0356 4.11043,0.3728 z"
       id="path106" />
  </g>
  <g
     style="fill:#000000;fill-opacity:1;stroke-linejoin:miter"
     id="g112"
     transform="matrix(1.4118437,0,0,1.4118437,-297.44311,-474.6316)">
    <path
       d="m 423.45587,925.7483 v 5e-4 -5e-4 5e-4 z"
       id="path110" />
  </g>
  <g
     style="fill:#ffffff;fill-opacity:1;stroke-linejoin:miter"
     id="g116"
     transform="matrix(1.4118437,0,0,1.4118437,-297.44311,-474.6316)">
    <path
       d="m 438.43182,924.2068 0.32138,-0.2017 q 0.96946,-0.62534 1.89005,-1.0616 0.30515,-0.1383 0.59915,-0.2349 l 0.2911,-0.0834 q 0.2468,-0.0705 0.6422,-0.0881 0.5084,-0.0254 1.1967,0.2797 0.3346,0.159 0.65455,0.37546 0.47888,0.32884 0.94473,0.70584 -0.90054,0.43967 -1.46796,0.6057 -0.5769,0.15404 -0.71298,0.16075 -0.25024,0.0392 -0.52254,0.0518 -0.27302,0.0132 -0.56706,4e-4 -0.13708,0.006 -0.92282,-0.0841 -0.7948,-0.10083 -2.3465,-0.42577 z"
       id="path114" />
  </g>
  <g
     style="fill:#000000;fill-opacity:1;stroke-linejoin:miter"
     id="g120"
     transform="matrix(1.4118437,0,0,1.4118437,-297.44311,-474.6316)">
    <path
       d="m 441.1876,924.72144 -0.0598,-0.0443 q -0.4019,-0.27683 -0.50335,-0.6081 -0.10297,-0.28506 0.0379,-1.1286 0.69724,-0.3874 1.09008,-0.427 0.35264,-0.0697 1.24348,0.1067 0.56778,0.5227 0.62427,0.8577 0.0422,0.1191 0.008,0.4388 -0.0306,0.23025 -0.17065,0.6736 l -1.24106,0.15394 z"
       id="path118" />
  </g>
  <g
     style="fill:#000000;fill-opacity:1;stroke-linejoin:miter"
     id="g124"
     transform="matrix(1.4118437,0,0,1.4118437,-297.44311,-474.6316)">
    <path
       d="m 437.94116,919.12866 0.31861,-0.11816 q 0.95173,-0.3683 1.93817,-0.6035 0.3302,-0.0728 0.66803,-0.1167 l 0.34023,-0.0341 q 0.29502,-0.0281 0.7906,-0.006 0.53784,0.0432 0.8181,0.10155 l 0.34843,0.0705 q 0.35092,0.0779 0.70761,0.1815 0.89133,0.2521 2.54611,0.9 -2.83965,-0.55136 -4.35545,-0.60776 -1.41847,-0.084 -4.12044,0.23242 z"
       id="path122" />
  </g>
  <g
     style="fill:#000000;fill-opacity:1;stroke-linejoin:miter"
     id="g128"
     transform="matrix(1.4118437,0,0,1.4118437,-297.44311,-474.6316)">
    <path
       d="m 443.4813,926.31665 v 4.9e-4 -4.9e-4 4.9e-4 z"
       id="path126" />
  </g>
  <g
     style="fill:#ff4800;fill-opacity:0.152941;stroke-linejoin:miter"
     id="g132"
     transform="matrix(1.4118437,0,0,1.4118437,-297.44311,-474.6316)">
    <path
       d="m 440.82767,938.5172 -0.35843,-0.1262 q -1.64932,-0.6763 -3.73486,-1.0005 -0.69698,0.0209 -1.09525,0.11975 -0.88776,0.29125 -1.16633,0.4712 -0.92202,-0.58631 -2.80663,-0.49625 -1.5553,0.0692 -6.89337,0.9064 2.34695,1.8898 5.22964,4.50525 0.67502,0.50488 1.56076,0.86795 1.6862,0.4969 2.81125,0.3673 0.76651,-0.0656 1.35718,-0.2697 0.61717,-0.21897 0.98111,-0.4393 0.95532,-0.55506 1.88236,-1.63013 1.39376,-1.75537 2.23257,-3.27577 z"
       id="path130" />
  </g>
  <g
     style="fill:#ffffff;fill-opacity:1;stroke-linejoin:miter"
     id="g136"
     transform="matrix(1.4118437,0,0,1.4118437,-297.44311,-474.6316)">
    <path
       d="m 439.57556,938.76196 -0.42071,0.0519 q -3.20481,0.4231 -5.07361,0.42226 -0.67554,-0.002 -1.3212,-0.0391 -2.26501,-0.1522 -3.48312,-0.2032 -0.75144,-0.0373 -3.2165,-0.1194 3.53828,2.4818 4.94974,2.96605 1.00014,0.39285 1.75744,0.47315 0.80625,0.0972 1.54652,10e-4 1.58468,-0.23511 2.72158,-1.00294 1.30124,-0.8717 2.53986,-2.55004 z"
       id="path134" />
  </g>
  <g
     style="fill:#ff4800;fill-opacity:0.160784;stroke-linejoin:miter"
     id="g140"
     transform="matrix(1.4118437,0,0,1.4118437,-297.44311,-474.6316)">
    <path
       d="m 439.2405,933.6725 2e-4,7e-4 -3.1923,2.2244 -4.631,-2.78066 4.61278,1.94386 z"
       id="path138" />
  </g>
  <g
     style="fill:#ff4800;fill-opacity:1;stroke-linejoin:miter"
     id="g144"
     transform="matrix(1.4118437,0,0,1.4118437,-297.44311,-474.6316)">
    <path
       d="m 432.32492,937.3157 v 7e-4 -7e-4 7e-4 z"
       id="path142" />
  </g>
  <g
     style="fill:#929fa8;fill-opacity:1;stroke-linejoin:miter"
     id="g148"
     transform="matrix(1.4118437,0,0,1.4118437,-297.44311,-474.6316)">
    <path
       d="m 370.01016,939.28906 1.6576,-0.93359 1.65771,-0.93357 q 23.87271,42.3839 47.74588,84.7682 -1.6575,0.9337 -3.31503,1.8678 -23.87329,-42.3848 -47.74616,-84.76884"
       id="path146" />
  </g>
  <g
     style="fill:#fec5a1;fill-opacity:1;stroke-linejoin:miter"
     id="g152"
     transform="matrix(1.4118437,0,0,1.4118437,-297.44311,-474.6316)">
    <path
       d="m 399.912,1024.6285 c 0,0 1.86635,-1.6229 2.49733,-5.1359 0.22495,-1.4826 -0.0988,-3.83 -0.49073,-5.8589 -0.0479,-1.2306 -0.41347,-1.6176 1.2923,-3.5591 0.97724,-1.4616 2.3178,-4.1314 1.99165,-7.164 -0.2992,-1.2764 -2.21882,-3.50667 0.12738,-4.62874 2.46007,-1.23633 3.44534,1.06504 4.33752,2.49974 1.16837,2.7794 0.37778,6.4284 0.37778,6.4284 l -0.33377,3.8774 c 0,0 0.65896,-0.3785 2.86612,-1.3389 1.75058,-0.7597 3.37774,-1.9669 6.13202,-2.4417 6.795,0.01 3.15554,4.2349 3.15554,4.2349 4.03736,0.653 2.53952,4.258 2.53952,4.258 3.56232,2.4328 0.86404,4.667 1.0582,4.6039 0.63804,-0.2066 3.76424,0.9044 1.19467,4.5351 0,0 -2.979,3.6085 -5.07489,4.6614 -1.2518,0.9154 -5.14674,2.9291 -8.7261,3.1873 -3.80527,1.1702 -2.68726,1.5786 -5.32782,3.591 z"
       id="path150" />
  </g>
</svg>
